{"glyphs":{"0":{"ha":950,"x_min":122,"x_max":828,"o":"m 433 1 q 198 77 274 1 q 122 313 122 153 l 122 633 q 198 869 122 794 q 433 943 274 944 l 517 943 q 752 867 676 943 q 828 632 828 792 l 828 313 q 752 77 828 153 q 517 1 676 1 l 433 1 m 517 118 q 633 136 592 118 q 693 196 675 154 q 711 313 711 238 l 711 632 q 693 749 711 708 q 634 808 675 790 q 517 826 593 826 l 433 826 q 317 810 358 828 q 257 751 275 793 q 239 633 239 710 l 239 313 q 257 196 239 238 q 317 136 275 154 q 433 118 358 118 l 517 118 m 450 404 q 409 419 424 404 q 394 460 394 433 l 394 494 q 409 535 394 521 q 450 549 424 549 l 483 549 q 536 494 536 549 l 536 460 q 523 419 536 433 q 483 404 510 404 l 450 404 z "},"1":{"ha":540,"x_min":72,"x_max":401,"o":"m 351 942 q 388 926 375 942 q 401 883 401 911 l 401 58 q 386 15 401 31 q 343 0 371 0 q 285 58 285 0 l 285 767 l 164 654 q 122 635 144 635 q 89 650 104 635 q 72 686 72 667 q 93 729 72 708 l 279 913 q 311 935 294 928 q 351 942 328 942 z "},"2":{"ha":799,"x_min":61,"x_max":724,"o":"m 135 0 q 90 15 106 0 q 75 58 75 29 q 121 249 75 172 q 222 367 167 326 q 375 463 278 407 q 517 547 476 519 q 583 606 558 574 q 607 685 607 639 q 594 770 607 740 q 552 813 582 800 q 467 825 522 825 l 318 825 q 221 807 251 825 q 182 743 190 789 q 163 700 176 714 q 121 686 149 686 q 76 702 92 686 q 64 747 61 718 q 142 894 79 846 q 318 942 204 942 l 467 942 q 660 878 597 942 q 724 685 724 815 q 685 551 724 607 q 593 458 647 494 q 432 361 539 422 q 312 288 351 315 q 239 219 272 261 q 196 117 206 176 l 654 117 q 697 101 682 117 q 713 58 713 86 q 697 15 713 31 q 654 0 682 0 l 135 0 z "},"3":{"ha":908,"x_min":86,"x_max":786,"o":"m 357 0 q 169 51 235 0 q 89 208 103 103 q 101 253 86 238 q 146 269 117 269 q 206 211 199 269 q 249 137 215 157 q 357 117 282 117 l 515 117 q 609 131 576 117 q 656 177 642 144 q 669 269 669 210 q 656 362 669 329 q 609 408 642 394 q 515 422 576 422 l 408 422 q 350 481 350 422 q 365 524 350 508 q 408 539 381 539 l 568 539 q 628 576 610 539 q 647 685 647 614 q 635 770 647 740 q 592 813 622 800 q 507 825 563 825 l 372 825 q 275 807 306 825 q 236 743 244 789 q 175 686 228 686 q 131 702 146 686 q 119 747 115 718 q 372 942 146 942 l 507 942 q 701 878 638 942 q 764 685 764 815 q 692 503 764 557 q 786 269 786 442 q 720 66 786 132 q 515 0 654 0 l 357 0 z "},"4":{"ha":865,"x_min":61,"x_max":804,"o":"m 746 314 q 789 298 774 314 q 804 256 804 282 q 789 213 804 228 q 746 197 774 197 l 665 197 l 665 58 q 607 0 665 0 q 564 15 579 0 q 549 58 549 31 l 549 197 l 119 197 q 76 213 92 197 q 61 256 61 228 q 85 317 61 283 l 521 906 q 556 935 538 928 q 603 942 574 942 q 667 883 667 942 l 665 314 l 746 314 m 207 311 l 549 313 l 550 776 l 207 311 z "},"5":{"ha":928,"x_min":119,"x_max":806,"o":"m 390 0 q 202 51 268 0 q 122 208 136 103 q 135 253 119 238 q 179 269 150 269 q 239 213 232 269 q 282 138 249 158 q 390 117 315 117 l 535 117 q 628 131 596 117 q 675 178 661 144 q 689 271 689 211 l 689 367 q 675 460 689 428 q 628 507 661 493 q 535 521 594 521 l 432 521 q 283 496 329 521 q 255 480 269 486 q 228 474 240 474 q 206 478 218 474 l 192 482 q 143 547 143 496 l 143 883 q 158 926 143 911 q 201 942 174 942 l 747 942 q 790 926 775 942 q 806 883 806 911 q 790 840 806 856 q 747 825 775 825 l 260 825 l 260 613 q 432 638 331 638 l 535 638 q 739 571 672 638 q 806 367 806 504 l 806 271 q 739 67 806 133 q 535 0 672 0 l 390 0 z "},"6":{"ha":931,"x_min":122,"x_max":808,"o":"m 393 0 q 188 66 254 0 q 122 269 122 132 l 122 685 q 185 878 122 815 q 379 942 249 942 l 551 942 q 804 747 778 942 q 793 702 808 718 q 749 686 778 686 q 688 743 696 686 q 649 807 679 789 q 551 825 618 825 l 379 825 q 294 813 324 825 q 251 770 264 800 q 239 685 239 740 l 239 569 q 393 635 293 635 l 538 635 q 742 568 675 635 q 808 364 808 501 l 808 271 q 742 66 808 132 q 538 0 675 0 l 393 0 m 538 117 q 631 131 599 117 q 678 178 664 144 q 692 271 692 211 l 692 364 q 678 458 692 425 q 631 504 664 490 q 538 518 597 518 l 393 518 q 299 504 332 518 q 253 458 267 490 q 239 365 239 425 l 239 269 q 253 177 239 210 q 299 131 267 144 q 393 117 332 117 l 538 117 z "},"7":{"ha":738,"x_min":61,"x_max":676,"o":"m 272 0 q 229 15 244 0 q 215 61 214 31 q 239 292 218 204 q 303 438 260 379 q 425 551 346 496 q 521 666 489 601 q 558 825 553 731 l 119 825 q 76 840 92 825 q 61 883 61 856 q 76 926 61 911 q 119 942 92 942 l 618 942 q 661 926 646 942 q 676 883 676 911 q 633 632 676 735 q 493 457 589 529 q 397 367 429 413 q 349 251 364 321 q 332 61 335 181 q 272 0 329 0 z "},"8":{"ha":944,"x_min":122,"x_max":822,"o":"m 706 489 q 822 269 822 424 q 756 66 822 132 q 551 0 690 0 l 393 0 q 188 66 254 0 q 122 269 122 132 q 243 492 122 428 q 151 689 151 561 q 215 879 151 817 q 408 942 278 942 l 543 942 q 737 879 674 942 q 800 689 800 817 q 706 489 800 554 m 408 825 q 323 813 353 825 q 281 771 293 800 q 268 689 268 742 q 294 571 268 603 q 386 539 321 539 l 544 538 q 633 554 603 538 q 673 603 663 571 q 683 689 683 636 q 671 771 683 742 q 628 813 658 800 q 543 825 599 825 l 408 825 m 551 117 q 645 131 613 117 q 692 177 678 144 q 706 269 706 210 q 692 362 706 329 q 645 408 678 394 q 551 422 613 422 l 393 422 q 299 408 332 422 q 253 362 267 394 q 239 269 239 329 q 253 177 239 210 q 299 131 267 144 q 393 117 332 117 l 551 117 z "},"9":{"ha":931,"x_min":122,"x_max":808,"o":"m 538 942 q 742 876 676 942 q 808 672 808 810 l 808 257 q 745 63 808 126 q 551 0 682 0 l 379 0 q 126 194 153 0 q 138 240 122 224 q 182 256 153 256 q 243 199 235 256 q 282 135 251 153 q 379 117 313 117 l 551 117 q 637 129 607 117 q 679 172 667 142 q 692 257 692 201 l 692 372 q 538 307 638 307 l 393 307 q 189 374 256 307 q 122 578 122 440 l 122 671 q 189 876 122 810 q 393 942 256 942 l 538 942 m 393 825 q 299 811 332 825 q 253 764 267 797 q 239 671 239 731 l 239 578 q 253 484 239 517 q 300 438 267 451 q 393 424 333 424 l 538 424 q 631 438 599 424 q 678 484 664 451 q 692 576 692 517 l 692 672 q 678 765 692 732 q 631 811 664 797 q 538 825 599 825 l 393 825 z "},"\u0000":{"ha":0,"x_min":0,"x_max":0,"o":""},"\r":{"ha":436,"x_min":0,"x_max":0,"o":""}," ":{"ha":436,"x_min":0,"x_max":0,"o":""},"A":{"ha":925,"x_min":61,"x_max":868,"o":"m 863 82 q 868 54 868 69 q 831 6 868 21 q 803 0 818 0 q 754 38 769 0 l 679 219 l 247 219 l 175 38 q 126 0 160 0 q 100 6 113 0 q 61 54 61 19 q 67 82 61 69 l 397 896 q 463 942 418 942 l 465 942 q 526 896 511 939 l 863 82 m 293 336 l 632 336 l 458 757 l 293 336 z "},"Á":{"ha":925,"x_min":61,"x_max":868,"o":"m 863 82 q 868 54 868 69 q 831 6 868 21 q 803 0 818 0 q 754 38 769 0 l 679 219 l 247 219 l 175 38 q 126 0 160 0 q 100 6 113 0 q 61 54 61 19 q 67 82 61 69 l 397 896 q 463 942 418 942 l 465 942 q 526 896 511 939 l 863 82 m 293 336 l 632 336 l 458 757 l 293 336 m 456 1003 q 436 1039 436 1018 q 450 1074 436 1058 l 551 1196 q 588 1215 567 1215 q 622 1201 607 1215 q 642 1165 642 1186 q 628 1131 642 1146 l 526 1008 q 490 989 511 989 q 456 1003 474 989 z "},"Ă":{"ha":925,"x_min":61,"x_max":868,"o":"m 863 82 q 868 54 868 69 q 831 6 868 21 q 803 0 818 0 q 754 38 769 0 l 679 219 l 247 219 l 175 38 q 126 0 160 0 q 100 6 113 0 q 61 54 61 19 q 67 82 61 69 l 397 896 q 463 942 418 942 l 465 942 q 526 896 511 939 l 863 82 m 293 336 l 632 336 l 458 757 l 293 336 m 485 1007 q 344 1042 393 1007 q 294 1140 294 1076 l 294 1169 q 308 1208 294 1194 q 344 1221 321 1221 q 396 1169 396 1221 l 396 1140 q 416 1110 396 1118 q 494 1101 436 1101 q 558 1110 540 1101 q 575 1140 575 1119 l 575 1186 q 588 1212 575 1203 q 625 1221 601 1221 q 676 1169 676 1221 l 676 1140 q 626 1042 676 1076 q 485 1007 576 1007 z "},"Ắ":{"ha":925,"x_min":61,"x_max":868,"o":"m 863 82 q 868 54 868 69 q 831 6 868 21 q 803 0 818 0 q 754 38 769 0 l 679 219 l 247 219 l 175 38 q 126 0 160 0 q 100 6 113 0 q 61 54 61 19 q 67 82 61 69 l 397 896 q 463 942 418 942 l 465 942 q 526 896 511 939 l 863 82 m 293 336 l 632 336 l 458 757 l 293 336 m 464 1007 q 323 1042 372 1007 q 274 1140 274 1076 l 274 1169 q 287 1208 274 1194 q 324 1221 300 1221 q 375 1169 375 1221 l 375 1140 q 395 1110 375 1118 q 474 1101 415 1101 q 537 1110 519 1101 q 554 1140 554 1119 l 554 1186 q 567 1212 554 1203 q 604 1221 581 1221 q 656 1169 656 1221 l 656 1140 q 606 1042 656 1076 q 464 1007 556 1007 m 400 1225 q 381 1261 381 1240 q 394 1296 381 1281 l 496 1418 q 532 1438 511 1438 q 567 1424 551 1438 q 586 1388 586 1408 q 572 1353 586 1368 l 471 1231 q 435 1211 456 1211 q 400 1225 418 1211 z "},"Ặ":{"ha":925,"x_min":61,"x_max":868,"o":"m 863 82 q 868 54 868 69 q 831 6 868 21 q 803 0 818 0 q 754 38 769 0 l 679 219 l 247 219 l 175 38 q 126 0 160 0 q 100 6 113 0 q 61 54 61 19 q 67 82 61 69 l 397 896 q 463 942 418 942 l 465 942 q 526 896 511 939 l 863 82 m 293 336 l 632 336 l 458 757 l 293 336 m 447 -218 q 406 -203 421 -218 q 392 -162 392 -189 l 392 -128 q 406 -87 392 -101 q 447 -74 421 -74 l 481 -74 q 533 -128 533 -74 l 533 -162 q 520 -203 533 -189 q 481 -218 507 -218 l 447 -218 m 485 1007 q 344 1042 393 1007 q 294 1140 294 1076 l 294 1169 q 308 1208 294 1194 q 344 1221 321 1221 q 396 1169 396 1221 l 396 1140 q 416 1110 396 1118 q 494 1101 436 1101 q 558 1110 540 1101 q 575 1140 575 1119 l 575 1186 q 588 1212 575 1203 q 625 1221 601 1221 q 676 1169 676 1221 l 676 1140 q 626 1042 676 1076 q 485 1007 576 1007 z "},"Ằ":{"ha":925,"x_min":61,"x_max":868,"o":"m 863 82 q 868 54 868 69 q 831 6 868 21 q 803 0 818 0 q 754 38 769 0 l 679 219 l 247 219 l 175 38 q 126 0 160 0 q 100 6 113 0 q 61 54 61 19 q 67 82 61 69 l 397 896 q 463 942 418 942 l 465 942 q 526 896 511 939 l 863 82 m 293 336 l 632 336 l 458 757 l 293 336 m 464 1007 q 323 1042 372 1007 q 274 1140 274 1076 l 274 1169 q 287 1208 274 1194 q 324 1221 300 1221 q 375 1169 375 1221 l 375 1140 q 395 1110 375 1118 q 474 1101 415 1101 q 537 1110 519 1101 q 554 1140 554 1119 l 554 1186 q 567 1212 554 1203 q 604 1221 581 1221 q 656 1169 656 1221 l 656 1140 q 606 1042 656 1076 q 464 1007 556 1007 m 461 1225 q 426 1211 443 1211 q 390 1231 406 1211 l 289 1353 q 275 1388 275 1368 q 294 1424 275 1408 q 329 1438 310 1438 q 365 1418 350 1438 l 467 1296 q 481 1261 481 1281 q 461 1225 481 1240 z "},"Ẳ":{"ha":925,"x_min":61,"x_max":868,"o":"m 863 82 q 868 54 868 69 q 831 6 868 21 q 803 0 818 0 q 754 38 769 0 l 679 219 l 247 219 l 175 38 q 126 0 160 0 q 100 6 113 0 q 61 54 61 19 q 67 82 61 69 l 397 896 q 463 942 418 942 l 465 942 q 526 896 511 939 l 863 82 m 293 336 l 632 336 l 458 757 l 293 336 m 464 1007 q 323 1042 372 1007 q 274 1140 274 1076 l 274 1169 q 287 1208 274 1194 q 324 1221 300 1221 q 375 1169 375 1221 l 375 1140 q 395 1110 375 1118 q 474 1101 415 1101 q 537 1110 519 1101 q 554 1140 554 1119 l 554 1186 q 567 1212 554 1203 q 604 1221 581 1221 q 656 1169 656 1221 l 656 1140 q 606 1042 656 1076 q 464 1007 556 1007 m 465 1183 q 435 1191 443 1183 q 426 1221 426 1199 q 445 1281 426 1260 q 493 1321 464 1303 q 515 1336 511 1332 q 519 1349 519 1340 q 510 1388 519 1379 q 472 1397 501 1397 q 434 1388 443 1397 q 425 1349 425 1379 q 417 1318 425 1326 q 386 1310 408 1310 q 356 1318 364 1310 q 347 1349 347 1326 q 472 1474 347 1474 q 597 1349 597 1474 q 579 1290 597 1311 q 533 1253 561 1269 q 509 1236 514 1242 q 504 1221 504 1231 q 496 1191 504 1199 q 465 1183 488 1183 z "},"Ẵ":{"ha":925,"x_min":61,"x_max":868,"o":"m 863 82 q 868 54 868 69 q 831 6 868 21 q 803 0 818 0 q 754 38 769 0 l 679 219 l 247 219 l 175 38 q 126 0 160 0 q 100 6 113 0 q 61 54 61 19 q 67 82 61 69 l 397 896 q 463 942 418 942 l 465 942 q 526 896 511 939 l 863 82 m 293 336 l 632 336 l 458 757 l 293 336 m 465 1007 q 324 1042 374 1007 q 275 1140 275 1076 l 275 1169 q 288 1208 275 1194 q 325 1221 301 1221 q 376 1169 376 1221 l 376 1140 q 397 1110 376 1118 q 475 1101 417 1101 q 538 1110 521 1101 q 556 1140 556 1119 l 556 1186 q 569 1212 556 1203 q 606 1221 582 1221 q 657 1169 657 1221 l 657 1140 q 607 1042 657 1076 q 465 1007 557 1007 m 538 1251 q 498 1263 517 1251 q 457 1296 479 1275 q 431 1317 443 1308 q 408 1326 418 1326 q 387 1318 396 1326 q 369 1289 378 1310 q 326 1254 351 1254 q 306 1258 317 1254 q 275 1293 275 1271 q 281 1317 275 1306 q 328 1393 300 1371 q 401 1415 356 1415 q 440 1403 419 1415 q 490 1367 461 1390 q 536 1339 525 1339 q 547 1344 543 1339 q 555 1353 551 1349 q 560 1361 558 1358 q 603 1399 574 1399 q 621 1396 614 1399 q 654 1361 654 1386 q 650 1339 654 1351 q 538 1251 611 1251 z "},"Â":{"ha":925,"x_min":61,"x_max":868,"o":"m 863 82 q 868 54 868 69 q 831 6 868 21 q 803 0 818 0 q 754 38 769 0 l 679 219 l 247 219 l 175 38 q 126 0 160 0 q 100 6 113 0 q 61 54 61 19 q 67 82 61 69 l 397 896 q 463 942 418 942 l 465 942 q 526 896 511 939 l 863 82 m 293 336 l 632 336 l 458 757 l 293 336 m 296 999 q 258 1014 274 999 q 243 1051 243 1029 q 250 1077 243 1064 q 268 1097 257 1090 l 396 1203 q 461 1228 425 1228 l 465 1228 q 500 1222 485 1228 q 531 1203 515 1217 l 660 1097 q 678 1077 671 1090 q 685 1051 685 1064 q 669 1014 685 1029 q 632 999 653 999 q 593 1015 610 999 l 464 1122 l 463 1122 l 335 1015 q 296 999 318 999 z "},"Ấ":{"ha":925,"x_min":61,"x_max":868,"o":"m 863 82 q 868 54 868 69 q 831 6 868 21 q 803 0 818 0 q 754 38 769 0 l 679 219 l 247 219 l 175 38 q 126 0 160 0 q 100 6 113 0 q 61 54 61 19 q 67 82 61 69 l 397 896 q 463 942 418 942 l 465 942 q 526 896 511 939 l 863 82 m 293 336 l 632 336 l 458 757 l 293 336 m 649 1144 q 611 1163 631 1144 q 592 1199 592 1181 q 608 1236 592 1215 l 671 1310 q 711 1331 692 1331 q 749 1313 729 1331 q 768 1276 768 1294 q 763 1258 768 1267 q 751 1239 758 1249 l 688 1165 q 649 1144 671 1144 m 294 999 q 257 1014 272 999 q 242 1051 242 1029 q 249 1077 242 1064 q 267 1097 256 1090 l 394 1203 q 460 1228 424 1228 l 464 1228 q 499 1222 483 1228 q 529 1203 514 1217 l 658 1097 q 676 1077 669 1090 q 683 1051 683 1064 q 667 1014 683 1029 q 631 999 651 999 q 592 1015 608 999 l 463 1122 l 461 1122 l 333 1015 q 294 999 317 999 z "},"Ậ":{"ha":925,"x_min":61,"x_max":868,"o":"m 863 82 q 868 54 868 69 q 831 6 868 21 q 803 0 818 0 q 754 38 769 0 l 679 219 l 247 219 l 175 38 q 126 0 160 0 q 100 6 113 0 q 61 54 61 19 q 67 82 61 69 l 397 896 q 463 942 418 942 l 465 942 q 526 896 511 939 l 863 82 m 293 336 l 632 336 l 458 757 l 293 336 m 447 -218 q 406 -203 421 -218 q 392 -162 392 -189 l 392 -128 q 406 -87 392 -101 q 447 -74 421 -74 l 481 -74 q 533 -128 533 -74 l 533 -162 q 520 -203 533 -189 q 481 -218 507 -218 l 447 -218 m 296 999 q 258 1014 274 999 q 243 1051 243 1029 q 250 1077 243 1064 q 268 1097 257 1090 l 396 1203 q 461 1228 425 1228 l 465 1228 q 500 1222 485 1228 q 531 1203 515 1217 l 660 1097 q 678 1077 671 1090 q 685 1051 685 1064 q 669 1014 685 1029 q 632 999 653 999 q 593 1015 610 999 l 464 1122 l 463 1122 l 335 1015 q 296 999 318 999 z "},"Ầ":{"ha":925,"x_min":61,"x_max":868,"o":"m 863 82 q 868 54 868 69 q 831 6 868 21 q 803 0 818 0 q 754 38 769 0 l 679 219 l 247 219 l 175 38 q 126 0 160 0 q 100 6 113 0 q 61 54 61 19 q 67 82 61 69 l 397 896 q 463 942 418 942 l 465 942 q 526 896 511 939 l 863 82 m 293 336 l 632 336 l 458 757 l 293 336 m 251 1144 q 211 1165 231 1144 l 149 1239 q 132 1276 132 1254 q 151 1313 132 1294 q 189 1331 171 1331 q 228 1310 208 1331 l 290 1236 q 307 1199 307 1218 q 288 1163 307 1181 q 251 1144 269 1144 m 296 999 q 258 1014 274 999 q 243 1051 243 1029 q 250 1077 243 1064 q 268 1097 257 1090 l 396 1203 q 461 1228 425 1228 l 465 1228 q 500 1222 485 1228 q 531 1203 515 1217 l 660 1097 q 678 1077 671 1090 q 685 1051 685 1064 q 669 1014 685 1029 q 632 999 653 999 q 593 1015 610 999 l 464 1122 l 463 1122 l 335 1015 q 296 999 318 999 z "},"Ẩ":{"ha":925,"x_min":61,"x_max":868,"o":"m 863 82 q 868 54 868 69 q 831 6 868 21 q 803 0 818 0 q 754 38 769 0 l 679 219 l 247 219 l 175 38 q 126 0 160 0 q 100 6 113 0 q 61 54 61 19 q 67 82 61 69 l 397 896 q 463 942 418 942 l 465 942 q 526 896 511 939 l 863 82 m 293 336 l 632 336 l 458 757 l 293 336 m 297 999 q 260 1014 275 999 q 244 1051 244 1029 q 251 1077 244 1064 q 269 1097 258 1090 l 397 1203 q 463 1228 426 1228 l 467 1228 q 501 1222 486 1228 q 532 1203 517 1217 l 661 1097 q 679 1077 672 1090 q 686 1051 686 1064 q 670 1014 686 1029 q 633 999 654 999 q 594 1015 611 999 l 465 1122 l 464 1122 l 336 1015 q 297 999 319 999 m 589 1218 q 558 1226 567 1218 q 550 1256 550 1233 q 569 1316 550 1294 q 617 1356 588 1338 q 639 1371 635 1367 q 643 1383 643 1375 q 634 1423 643 1414 q 596 1432 625 1432 q 558 1423 567 1432 q 549 1383 549 1414 q 540 1353 549 1361 q 510 1344 532 1344 q 479 1353 488 1344 q 471 1383 471 1361 q 596 1508 471 1508 q 721 1383 721 1508 q 703 1325 721 1346 q 657 1288 685 1304 q 633 1271 638 1276 q 628 1256 628 1265 q 619 1226 628 1233 q 589 1218 611 1218 z "},"Ẫ":{"ha":925,"x_min":61,"x_max":868,"o":"m 863 82 q 868 54 868 69 q 831 6 868 21 q 803 0 818 0 q 754 38 769 0 l 679 219 l 247 219 l 175 38 q 126 0 160 0 q 100 6 113 0 q 61 54 61 19 q 67 82 61 69 l 397 896 q 463 942 418 942 l 465 942 q 526 896 511 939 l 863 82 m 293 336 l 632 336 l 458 757 l 293 336 m 293 999 q 256 1014 271 999 q 240 1051 240 1029 q 247 1077 240 1064 q 265 1097 254 1090 l 393 1203 q 458 1228 422 1228 l 463 1228 q 497 1222 482 1228 q 528 1203 513 1217 l 657 1097 q 675 1077 668 1090 q 682 1051 682 1064 q 666 1014 682 1029 q 629 999 650 999 q 590 1015 607 999 l 461 1122 l 460 1122 l 332 1015 q 293 999 315 999 m 563 1267 q 498 1282 522 1267 q 447 1324 474 1297 q 419 1349 429 1343 q 396 1354 408 1354 q 342 1311 360 1354 q 300 1275 326 1275 q 278 1279 290 1275 q 247 1314 247 1290 q 253 1338 247 1326 q 310 1421 276 1394 q 396 1447 344 1447 q 462 1431 436 1447 q 514 1389 488 1415 q 540 1366 532 1371 q 563 1361 549 1361 q 585 1368 576 1361 q 603 1396 594 1375 q 646 1435 618 1435 q 664 1432 650 1435 q 697 1396 697 1424 q 693 1375 697 1388 q 642 1293 674 1319 q 563 1267 610 1267 z "},"Ȁ":{"ha":925,"x_min":61,"x_max":868,"o":"m 286 1171 q 272 1203 272 1185 q 290 1235 272 1221 q 321 1247 304 1247 q 354 1229 340 1247 l 446 1119 q 458 1089 458 1106 q 440 1056 458 1069 q 408 1042 425 1042 q 376 1060 390 1042 l 286 1171 m 447 1171 q 433 1203 433 1185 q 451 1235 433 1221 q 482 1247 467 1247 q 515 1229 501 1247 l 607 1119 q 619 1089 619 1106 q 601 1056 619 1069 q 569 1042 586 1042 q 538 1060 551 1042 l 447 1171 m 863 82 q 868 54 868 69 q 831 6 868 21 q 803 0 818 0 q 754 38 769 0 l 679 219 l 247 219 l 175 38 q 126 0 160 0 q 100 6 113 0 q 61 54 61 19 q 67 82 61 69 l 397 896 q 463 942 418 942 l 465 942 q 526 896 511 939 l 863 82 m 293 336 l 632 336 l 458 757 l 293 336 z "},"Ä":{"ha":925,"x_min":61,"x_max":868,"o":"m 863 82 q 868 54 868 69 q 831 6 868 21 q 803 0 818 0 q 754 38 769 0 l 679 219 l 247 219 l 175 38 q 126 0 160 0 q 100 6 113 0 q 61 54 61 19 q 67 82 61 69 l 397 896 q 463 942 418 942 l 465 942 q 526 896 511 939 l 863 82 m 293 336 l 632 336 l 458 757 l 293 336 m 333 1044 q 292 1059 307 1044 q 278 1100 278 1074 l 278 1135 q 292 1175 278 1161 q 333 1189 307 1189 l 367 1189 q 419 1135 419 1189 l 419 1100 q 406 1059 419 1074 q 367 1044 393 1044 l 333 1044 m 565 1044 q 524 1059 539 1044 q 510 1100 510 1074 l 510 1135 q 524 1175 510 1161 q 565 1189 539 1189 l 599 1189 q 651 1135 651 1189 l 651 1100 q 638 1059 651 1074 q 599 1044 625 1044 l 565 1044 z "},"Ạ":{"ha":925,"x_min":61,"x_max":868,"o":"m 863 82 q 868 54 868 69 q 831 6 868 21 q 803 0 818 0 q 754 38 769 0 l 679 219 l 247 219 l 175 38 q 126 0 160 0 q 100 6 113 0 q 61 54 61 19 q 67 82 61 69 l 397 896 q 463 942 418 942 l 465 942 q 526 896 511 939 l 863 82 m 293 336 l 632 336 l 458 757 l 293 336 m 447 -218 q 406 -203 421 -218 q 392 -162 392 -189 l 392 -128 q 406 -87 392 -101 q 447 -74 421 -74 l 481 -74 q 533 -128 533 -74 l 533 -162 q 520 -203 533 -189 q 481 -218 507 -218 l 447 -218 z "},"À":{"ha":925,"x_min":61,"x_max":868,"o":"m 863 82 q 868 54 868 69 q 831 6 868 21 q 803 0 818 0 q 754 38 769 0 l 679 219 l 247 219 l 175 38 q 126 0 160 0 q 100 6 113 0 q 61 54 61 19 q 67 82 61 69 l 397 896 q 463 942 418 942 l 465 942 q 526 896 511 939 l 863 82 m 293 336 l 632 336 l 458 757 l 293 336 m 525 1003 q 490 989 507 989 q 454 1008 469 989 l 353 1131 q 339 1165 339 1146 q 358 1201 339 1186 q 393 1215 374 1215 q 429 1196 414 1215 l 531 1074 q 544 1039 544 1058 q 525 1003 544 1018 z "},"Ả":{"ha":925,"x_min":61,"x_max":868,"o":"m 863 82 q 868 54 868 69 q 831 6 868 21 q 803 0 818 0 q 754 38 769 0 l 679 219 l 247 219 l 175 38 q 126 0 160 0 q 100 6 113 0 q 61 54 61 19 q 67 82 61 69 l 397 896 q 463 942 418 942 l 465 942 q 526 896 511 939 l 863 82 m 293 336 l 632 336 l 458 757 l 293 336 m 464 1015 q 433 1023 442 1015 q 425 1053 425 1031 q 444 1113 425 1092 q 492 1153 463 1135 q 514 1168 510 1164 q 518 1181 518 1172 q 509 1220 518 1211 q 471 1229 500 1229 q 433 1220 442 1229 q 424 1181 424 1211 q 415 1150 424 1158 q 385 1142 407 1142 q 354 1150 363 1142 q 346 1181 346 1158 q 471 1306 346 1306 q 596 1181 596 1306 q 578 1122 596 1143 q 532 1085 560 1101 q 508 1068 513 1074 q 503 1053 503 1063 q 494 1023 503 1031 q 464 1015 486 1015 z "},"Ȃ":{"ha":925,"x_min":61,"x_max":868,"o":"m 863 82 q 868 54 868 69 q 831 6 868 21 q 803 0 818 0 q 754 38 769 0 l 679 219 l 247 219 l 175 38 q 126 0 160 0 q 100 6 113 0 q 61 54 61 19 q 67 82 61 69 l 397 896 q 463 942 418 942 l 465 942 q 526 896 511 939 l 863 82 m 293 336 l 632 336 l 458 757 l 293 336 m 463 1281 q 604 1246 554 1281 q 654 1147 654 1211 l 654 1118 q 603 1067 654 1067 q 566 1076 579 1067 q 553 1101 553 1085 l 553 1147 q 535 1177 553 1168 q 472 1186 518 1186 q 394 1178 414 1186 q 374 1147 374 1169 l 374 1118 q 322 1067 374 1067 q 285 1080 299 1067 q 272 1118 272 1093 l 272 1147 q 322 1246 272 1211 q 463 1281 371 1281 z "},"Ā":{"ha":925,"x_min":61,"x_max":868,"o":"m 863 82 q 868 54 868 69 q 831 6 868 21 q 803 0 818 0 q 754 38 769 0 l 679 219 l 247 219 l 175 38 q 126 0 160 0 q 100 6 113 0 q 61 54 61 19 q 67 82 61 69 l 397 896 q 463 942 418 942 l 465 942 q 526 896 511 939 l 863 82 m 293 336 l 632 336 l 458 757 l 293 336 m 281 1058 q 222 1117 222 1058 q 281 1175 222 1175 l 632 1175 q 690 1117 690 1175 q 632 1058 690 1058 l 281 1058 z "},"Ą":{"ha":925,"x_min":61,"x_max":968,"o":"m 917 -122 q 953 -137 939 -122 q 968 -172 968 -151 q 954 -208 968 -194 q 888 -254 924 -237 q 814 -271 851 -271 q 712 -233 753 -271 q 671 -139 671 -194 q 706 -46 671 -92 l 757 29 q 754 38 757 32 l 679 219 l 247 219 l 175 38 q 126 0 160 0 q 100 6 113 0 q 61 54 61 19 q 67 82 61 69 l 397 896 q 463 942 418 942 l 465 942 q 526 896 511 939 l 863 82 q 868 49 871 64 q 871 31 871 38 q 861 1 871 11 l 788 -106 q 772 -139 772 -122 q 784 -161 772 -153 q 814 -169 796 -169 q 881 -136 850 -169 q 917 -122 900 -122 m 293 336 l 632 336 l 458 757 l 293 336 z "},"Å":{"ha":925,"x_min":61,"x_max":868,"o":"m 863 82 q 868 54 868 69 q 831 6 868 21 q 803 0 818 0 q 754 38 769 0 l 679 219 l 247 219 l 175 38 q 126 0 160 0 q 100 6 113 0 q 61 54 61 19 q 67 82 61 69 l 397 896 q 463 942 418 942 l 465 942 q 526 896 511 939 l 863 82 m 293 336 l 632 336 l 458 757 l 293 336 m 467 1013 q 389 1041 418 1013 q 360 1119 360 1069 q 389 1198 360 1169 q 467 1226 418 1226 q 546 1198 517 1226 q 575 1119 575 1169 q 546 1041 575 1069 q 467 1013 517 1013 m 456 1092 q 488 1094 482 1092 q 494 1106 494 1096 l 494 1128 q 492 1144 494 1142 q 479 1147 490 1147 l 469 1147 q 443 1144 447 1147 q 439 1129 439 1142 l 439 1119 q 442 1096 439 1100 q 456 1092 444 1092 z "},"Ǻ":{"ha":925,"x_min":61,"x_max":868,"o":"m 863 82 q 868 54 868 69 q 831 6 868 21 q 803 0 818 0 q 754 38 769 0 l 679 219 l 247 219 l 175 38 q 126 0 160 0 q 100 6 113 0 q 61 54 61 19 q 67 82 61 69 l 397 896 q 463 942 418 942 l 465 942 q 526 896 511 939 l 863 82 m 293 336 l 632 336 l 458 757 l 293 336 m 467 1013 q 389 1041 418 1013 q 360 1119 360 1069 q 389 1198 360 1169 q 467 1226 418 1226 q 546 1198 517 1226 q 575 1119 575 1169 q 546 1041 575 1069 q 467 1013 517 1013 m 456 1092 q 488 1094 482 1092 q 494 1106 494 1096 l 494 1128 q 492 1144 494 1142 q 479 1147 490 1147 l 469 1147 q 443 1144 447 1147 q 439 1129 439 1142 l 439 1119 q 442 1096 439 1100 q 456 1092 444 1092 m 435 1299 q 415 1335 415 1314 q 429 1369 415 1354 l 531 1492 q 567 1511 546 1511 q 601 1497 586 1511 q 621 1461 621 1482 q 607 1426 621 1442 l 506 1304 q 469 1285 490 1285 q 435 1299 453 1285 z "},"Ã":{"ha":925,"x_min":61,"x_max":868,"o":"m 863 82 q 868 54 868 69 q 831 6 868 21 q 803 0 818 0 q 754 38 769 0 l 679 219 l 247 219 l 175 38 q 126 0 160 0 q 100 6 113 0 q 61 54 61 19 q 67 82 61 69 l 397 896 q 463 942 418 942 l 465 942 q 526 896 511 939 l 863 82 m 293 336 l 632 336 l 458 757 l 293 336 m 564 1019 q 499 1035 524 1019 q 449 1076 475 1050 q 420 1101 431 1096 q 397 1107 410 1107 q 343 1064 361 1107 q 301 1028 328 1028 q 279 1032 292 1028 q 249 1067 249 1043 q 254 1090 249 1079 q 312 1174 278 1147 q 397 1200 346 1200 q 463 1184 438 1200 q 515 1142 489 1168 q 542 1119 533 1124 q 564 1114 550 1114 q 587 1121 578 1114 q 604 1149 596 1128 q 647 1188 619 1188 q 665 1185 651 1188 q 699 1149 699 1176 q 694 1128 699 1140 q 643 1046 675 1072 q 564 1019 611 1019 z "},"Æ":{"ha":1194,"x_min":61,"x_max":1117,"o":"m 654 0 q 596 58 596 0 l 596 219 l 279 219 l 172 33 q 125 0 154 0 q 93 10 108 0 q 61 57 61 29 q 71 89 61 74 l 532 901 q 603 942 557 942 l 1058 942 q 1101 926 1086 942 q 1117 883 1117 911 q 1101 840 1117 856 q 1058 825 1086 825 l 713 825 l 713 533 l 894 533 q 938 518 922 533 q 953 475 953 503 q 938 432 953 447 q 894 417 922 417 l 713 417 l 713 117 l 1058 117 q 1101 101 1086 117 q 1117 58 1117 86 q 1101 15 1117 31 q 1058 0 1086 0 l 654 0 m 346 336 l 596 336 l 596 790 l 346 336 z "},"Ǽ":{"ha":1194,"x_min":61,"x_max":1117,"o":"m 654 0 q 596 58 596 0 l 596 219 l 279 219 l 172 33 q 125 0 154 0 q 93 10 108 0 q 61 57 61 29 q 71 89 61 74 l 532 901 q 603 942 557 942 l 1058 942 q 1101 926 1086 942 q 1117 883 1117 911 q 1101 840 1117 856 q 1058 825 1086 825 l 713 825 l 713 533 l 894 533 q 938 518 922 533 q 953 475 953 503 q 938 432 953 447 q 894 417 922 417 l 713 417 l 713 117 l 1058 117 q 1101 101 1086 117 q 1117 58 1117 86 q 1101 15 1117 31 q 1058 0 1086 0 l 654 0 m 346 336 l 596 336 l 596 790 l 346 336 m 715 1028 q 696 1064 696 1043 q 710 1099 696 1083 l 811 1221 q 847 1240 826 1240 q 882 1226 867 1240 q 901 1190 901 1211 q 888 1156 901 1171 l 786 1033 q 750 1014 771 1014 q 715 1028 733 1014 z "},"B":{"ha":935,"x_min":144,"x_max":846,"o":"m 736 535 q 846 308 846 471 l 846 261 q 778 67 846 133 q 583 0 711 0 l 203 0 q 160 15 175 0 q 144 58 144 31 l 144 883 q 160 926 144 911 q 203 942 175 942 l 565 942 q 735 883 675 942 q 794 717 794 825 l 794 679 q 779 597 794 635 q 736 535 764 560 m 261 568 l 583 568 l 608 568 q 661 602 644 572 q 678 679 678 632 l 678 717 q 653 801 678 776 q 565 825 628 825 l 261 825 l 261 568 m 729 308 q 696 419 729 386 q 583 451 663 451 l 261 451 l 261 117 l 583 117 q 695 150 661 117 q 729 261 729 183 l 729 308 z "},"C":{"ha":967,"x_min":111,"x_max":872,"o":"m 422 0 q 187 76 263 0 q 111 311 111 151 l 111 631 q 187 867 111 790 q 421 942 263 943 l 589 942 q 788 888 719 942 q 868 718 857 833 q 857 674 872 689 q 813 658 842 658 q 770 673 785 658 q 751 717 756 688 q 708 802 744 779 q 589 825 672 825 l 421 825 q 304 808 346 826 q 245 749 263 790 q 228 631 228 707 l 228 311 q 246 194 228 235 q 305 135 264 153 q 422 117 346 117 l 589 117 q 708 140 672 117 q 751 225 744 163 q 770 269 756 254 q 813 283 785 283 q 857 268 842 283 q 868 224 872 253 q 788 54 857 108 q 589 0 719 0 l 422 0 z "},"Ć":{"ha":967,"x_min":111,"x_max":869,"o":"m 422 0 q 187 76 263 0 q 111 311 111 151 l 111 631 q 187 867 111 790 q 421 942 263 943 l 589 942 q 788 888 719 942 q 868 718 857 833 q 857 674 872 689 q 813 658 842 658 q 770 673 785 658 q 751 717 756 688 q 708 802 744 779 q 589 825 672 825 l 421 825 q 304 808 346 826 q 245 749 263 790 q 228 631 228 707 l 228 311 q 246 194 228 235 q 305 135 264 153 q 422 117 346 117 l 589 117 q 708 140 672 117 q 751 225 744 163 q 770 269 756 254 q 813 283 785 283 q 857 268 842 283 q 868 224 872 253 q 788 54 857 108 q 589 0 719 0 l 422 0 m 486 1028 q 467 1064 467 1043 q 481 1099 467 1083 l 582 1221 q 618 1240 597 1240 q 653 1226 638 1240 q 672 1190 672 1211 q 658 1156 672 1171 l 557 1033 q 521 1014 542 1014 q 486 1028 504 1014 z "},"Č":{"ha":967,"x_min":111,"x_max":869,"o":"m 422 0 q 187 76 263 0 q 111 311 111 151 l 111 631 q 187 867 111 790 q 421 942 263 943 l 589 942 q 788 888 719 942 q 868 718 857 833 q 857 674 872 689 q 813 658 842 658 q 770 673 785 658 q 751 717 756 688 q 708 802 744 779 q 589 825 672 825 l 421 825 q 304 808 346 826 q 245 749 263 790 q 228 631 228 707 l 228 311 q 246 194 228 235 q 305 135 264 153 q 422 117 346 117 l 589 117 q 708 140 672 117 q 751 225 744 163 q 770 269 756 254 q 813 283 785 283 q 857 268 842 283 q 868 224 872 253 q 788 54 857 108 q 589 0 719 0 l 422 0 m 335 1221 q 374 1204 357 1221 l 501 1097 l 503 1097 l 632 1204 q 671 1221 649 1221 q 708 1206 692 1221 q 724 1168 724 1190 q 717 1142 724 1156 q 699 1122 710 1129 l 569 1017 q 539 997 554 1003 q 504 992 524 992 l 500 992 q 435 1017 464 992 l 307 1122 q 289 1142 296 1129 q 282 1168 282 1156 q 297 1206 282 1190 q 335 1221 313 1221 z "},"Ç":{"ha":967,"x_min":111,"x_max":872,"o":"m 813 283 q 857 268 842 283 q 868 224 872 253 q 793 58 857 113 q 607 0 729 4 q 632 -21 613 -7 q 683 -67 663 -42 q 703 -135 703 -92 q 540 -297 703 -297 q 440 -262 475 -297 q 406 -162 406 -228 q 454 -114 406 -114 q 503 -162 503 -114 q 509 -194 503 -187 q 540 -200 515 -200 q 593 -188 581 -200 q 606 -135 606 -176 q 601 -119 606 -125 q 578 -100 596 -112 q 531 -60 551 -83 q 506 0 511 -37 l 422 0 q 187 76 263 0 q 111 311 111 151 l 111 631 q 187 867 111 790 q 421 942 263 943 l 589 942 q 788 888 719 942 q 868 718 857 833 q 857 674 872 689 q 813 658 842 658 q 770 673 785 658 q 751 717 756 688 q 708 802 744 779 q 589 825 672 825 l 421 825 q 304 808 346 826 q 245 749 263 790 q 228 631 228 707 l 228 311 q 246 194 228 235 q 305 135 264 153 q 422 117 346 117 l 589 117 q 708 140 672 117 q 751 225 744 163 q 770 269 756 254 q 813 283 785 283 z "},"Ĉ":{"ha":967,"x_min":111,"x_max":869,"o":"m 422 0 q 187 76 263 0 q 111 311 111 151 l 111 631 q 187 867 111 790 q 421 942 263 943 l 589 942 q 788 888 719 942 q 868 718 857 833 q 857 674 872 689 q 813 658 842 658 q 770 673 785 658 q 751 717 756 688 q 708 802 744 779 q 589 825 672 825 l 421 825 q 304 808 346 826 q 245 749 263 790 q 228 631 228 707 l 228 311 q 246 194 228 235 q 305 135 264 153 q 422 117 346 117 l 589 117 q 708 140 672 117 q 751 225 744 163 q 770 269 756 254 q 813 283 785 283 q 857 268 842 283 q 868 224 872 253 q 788 54 857 108 q 589 0 719 0 l 422 0 m 386 1015 q 352 1030 367 1015 q 338 1064 338 1044 q 351 1097 338 1083 l 453 1199 q 514 1225 478 1225 l 522 1225 q 583 1199 558 1225 l 685 1097 q 699 1064 699 1083 q 684 1030 699 1044 q 650 1015 669 1015 q 615 1029 628 1015 l 526 1128 l 510 1128 l 421 1029 q 386 1015 407 1015 z "},"Ċ":{"ha":967,"x_min":111,"x_max":869,"o":"m 422 0 q 187 76 263 0 q 111 311 111 151 l 111 631 q 187 867 111 790 q 421 942 263 943 l 589 942 q 788 888 719 942 q 868 718 857 833 q 857 674 872 689 q 813 658 842 658 q 770 673 785 658 q 751 717 756 688 q 708 802 744 779 q 589 825 672 825 l 421 825 q 304 808 346 826 q 245 749 263 790 q 228 631 228 707 l 228 311 q 246 194 228 235 q 305 135 264 153 q 422 117 346 117 l 589 117 q 708 140 672 117 q 751 225 744 163 q 770 269 756 254 q 813 283 785 283 q 857 268 842 283 q 868 224 872 253 q 788 54 857 108 q 589 0 719 0 l 422 0 m 499 1056 q 449 1074 467 1056 q 432 1122 432 1092 l 432 1164 q 449 1212 432 1196 q 499 1228 467 1228 l 539 1228 q 601 1164 601 1228 l 601 1122 q 585 1073 601 1090 q 539 1056 569 1056 l 499 1056 z "},"D":{"ha":1001,"x_min":144,"x_max":890,"o":"m 203 0 q 160 15 175 0 q 144 58 144 31 l 144 883 q 160 926 144 911 q 203 942 175 942 l 538 942 q 805 856 719 942 q 890 589 890 771 l 890 353 q 805 85 890 171 q 538 0 719 0 l 203 0 m 538 117 q 678 139 628 117 q 751 212 729 161 q 774 353 774 263 l 774 589 q 751 730 774 679 q 678 803 729 781 q 538 825 628 825 l 261 825 l 261 117 l 538 117 z "},"Ǳ":{"ha":1903,"x_min":144,"x_max":1829,"o":"m 203 0 q 160 15 175 0 q 144 58 144 31 l 144 883 q 160 926 144 911 q 203 942 175 942 l 538 942 q 805 856 719 942 q 890 589 890 771 l 890 353 q 805 85 890 171 q 538 0 719 0 l 203 0 m 538 117 q 678 139 628 117 q 751 212 729 161 q 774 353 774 263 l 774 589 q 751 730 774 679 q 678 803 729 781 q 538 825 628 825 l 261 825 l 261 117 l 538 117 m 1771 228 q 1816 212 1800 228 q 1828 167 1832 196 q 1754 42 1811 85 q 1603 0 1697 0 l 1090 0 q 1048 15 1063 0 q 1033 58 1033 31 q 1056 108 1033 76 l 1603 825 l 1243 825 q 1174 812 1199 825 q 1139 768 1149 799 q 1118 727 1132 740 q 1078 714 1104 714 q 1035 727 1051 714 q 1019 763 1019 740 q 1021 775 1019 771 q 1094 899 1038 856 q 1243 942 1150 942 l 1707 942 q 1751 926 1736 942 q 1765 883 1765 911 q 1743 831 1765 860 l 1196 117 l 1603 117 q 1675 130 1650 117 q 1708 174 1700 143 q 1731 215 1717 201 q 1771 228 1744 228 z "},"Ǆ":{"ha":1903,"x_min":144,"x_max":1829,"o":"m 203 0 q 160 15 175 0 q 144 58 144 31 l 144 883 q 160 926 144 911 q 203 942 175 942 l 538 942 q 805 856 719 942 q 890 589 890 771 l 890 353 q 805 85 890 171 q 538 0 719 0 l 203 0 m 538 117 q 678 139 628 117 q 751 212 729 161 q 774 353 774 263 l 774 589 q 751 730 774 679 q 678 803 729 781 q 538 825 628 825 l 261 825 l 261 117 l 538 117 m 1771 228 q 1816 212 1800 228 q 1828 167 1832 196 q 1754 42 1811 85 q 1603 0 1697 0 l 1090 0 q 1048 15 1063 0 q 1033 58 1033 31 q 1056 108 1033 76 l 1603 825 l 1243 825 q 1174 812 1199 825 q 1139 768 1149 799 q 1118 727 1132 740 q 1078 714 1104 714 q 1035 727 1051 714 q 1019 763 1019 740 q 1021 775 1019 771 q 1094 899 1038 856 q 1243 942 1150 942 l 1707 942 q 1751 926 1736 942 q 1765 883 1765 911 q 1743 831 1765 860 l 1196 117 l 1603 117 q 1675 130 1650 117 q 1708 174 1700 143 q 1731 215 1717 201 q 1771 228 1744 228 m 1231 1221 q 1269 1204 1253 1221 l 1397 1097 l 1399 1097 l 1528 1204 q 1567 1221 1544 1221 q 1603 1206 1588 1221 q 1619 1168 1619 1190 q 1613 1142 1619 1156 q 1594 1122 1606 1129 l 1465 1017 q 1435 997 1450 1003 q 1400 992 1419 992 l 1396 992 q 1331 1017 1360 992 l 1203 1122 q 1185 1142 1192 1129 q 1178 1168 1178 1156 q 1193 1206 1178 1190 q 1231 1221 1208 1221 z "},"Ð":{"ha":1001,"x_min":38,"x_max":890,"o":"m 538 942 q 805 856 719 942 q 890 589 890 771 l 890 353 q 805 85 890 171 q 538 0 719 0 l 203 0 q 160 15 175 0 q 144 58 144 31 l 144 421 l 86 421 q 51 434 64 421 q 38 469 38 447 q 51 506 38 493 q 86 518 64 518 l 144 518 l 144 883 q 160 926 144 911 q 203 942 175 942 l 538 942 m 774 589 q 751 730 774 679 q 678 803 729 781 q 538 825 628 825 l 261 825 l 261 518 l 450 518 q 486 506 474 518 q 499 469 499 493 q 486 433 499 446 q 450 421 474 421 l 261 421 l 261 117 l 538 117 q 678 139 628 117 q 751 212 729 161 q 774 353 774 263 l 774 589 z "},"Ď":{"ha":1001,"x_min":144,"x_max":890,"o":"m 203 0 q 160 15 175 0 q 144 58 144 31 l 144 883 q 160 926 144 911 q 203 942 175 942 l 538 942 q 805 856 719 942 q 890 589 890 771 l 890 353 q 805 85 890 171 q 538 0 719 0 l 203 0 m 538 117 q 678 139 628 117 q 751 212 729 161 q 774 353 774 263 l 774 589 q 751 730 774 679 q 678 803 729 781 q 538 825 628 825 l 261 825 l 261 117 l 538 117 m 308 1221 q 347 1204 331 1221 l 475 1097 l 476 1097 l 606 1204 q 644 1221 622 1221 q 681 1206 665 1221 q 697 1168 697 1190 q 690 1142 697 1156 q 672 1122 683 1129 l 543 1017 q 513 997 528 1003 q 478 992 497 992 l 474 992 q 408 1017 438 992 l 281 1122 q 263 1142 269 1129 q 256 1168 256 1156 q 271 1206 256 1190 q 308 1221 286 1221 z "},"Đ":{"ha":1001,"x_min":38,"x_max":890,"o":"m 538 942 q 805 856 719 942 q 890 589 890 771 l 890 353 q 805 85 890 171 q 538 0 719 0 l 203 0 q 160 15 175 0 q 144 58 144 31 l 144 421 l 86 421 q 51 434 64 421 q 38 469 38 447 q 51 506 38 493 q 86 518 64 518 l 144 518 l 144 883 q 160 926 144 911 q 203 942 175 942 l 538 942 m 774 589 q 751 730 774 679 q 678 803 729 781 q 538 825 628 825 l 261 825 l 261 518 l 450 518 q 486 506 474 518 q 499 469 499 493 q 486 433 499 446 q 450 421 474 421 l 261 421 l 261 117 l 538 117 q 678 139 628 117 q 751 212 729 161 q 774 353 774 263 l 774 589 z "},"ǲ":{"ha":1675,"x_min":144,"x_max":1625,"o":"m 203 0 q 160 15 175 0 q 144 58 144 31 l 144 883 q 160 926 144 911 q 203 942 175 942 l 538 942 q 805 856 719 942 q 890 589 890 771 l 890 353 q 805 85 890 171 q 538 0 719 0 l 203 0 m 538 117 q 678 139 628 117 q 751 212 729 161 q 774 353 774 263 l 774 589 q 751 730 774 679 q 678 803 729 781 q 538 825 628 825 l 261 825 l 261 117 l 538 117 m 1567 200 q 1609 188 1593 200 q 1625 153 1625 175 q 1624 139 1625 144 q 1559 35 1608 71 q 1429 0 1510 0 l 1069 0 q 1026 15 1042 0 q 1011 58 1011 31 q 1036 115 1011 85 l 1414 588 l 1176 588 q 1124 582 1140 588 q 1099 560 1107 576 q 1078 517 1090 531 q 1039 504 1065 504 q 996 517 1011 504 q 981 553 981 529 q 982 565 981 561 q 1176 704 1008 704 l 1517 704 q 1575 646 1575 704 q 1550 588 1575 618 l 1175 118 l 1429 117 q 1480 123 1463 117 q 1506 146 1497 129 q 1528 188 1515 175 q 1567 200 1542 200 z "},"ǅ":{"ha":1675,"x_min":144,"x_max":1625,"o":"m 203 0 q 160 15 175 0 q 144 58 144 31 l 144 883 q 160 926 144 911 q 203 942 175 942 l 538 942 q 805 856 719 942 q 890 589 890 771 l 890 353 q 805 85 890 171 q 538 0 719 0 l 203 0 m 538 117 q 678 139 628 117 q 751 212 729 161 q 774 353 774 263 l 774 589 q 751 730 774 679 q 678 803 729 781 q 538 825 628 825 l 261 825 l 261 117 l 538 117 m 1567 200 q 1609 188 1593 200 q 1625 153 1625 175 q 1624 139 1625 144 q 1559 35 1608 71 q 1429 0 1510 0 l 1069 0 q 1026 15 1042 0 q 1011 58 1011 31 q 1036 115 1011 85 l 1414 588 l 1176 588 q 1124 582 1140 588 q 1099 560 1107 576 q 1078 517 1090 531 q 1039 504 1065 504 q 996 517 1011 504 q 981 553 981 529 q 982 565 981 561 q 1176 704 1008 704 l 1517 704 q 1575 646 1575 704 q 1550 588 1575 618 l 1175 118 l 1429 117 q 1480 123 1463 117 q 1506 146 1497 129 q 1528 188 1515 175 q 1567 200 1542 200 m 1131 983 q 1169 967 1153 983 l 1297 860 l 1299 860 l 1428 967 q 1467 983 1444 983 q 1503 968 1488 983 q 1519 931 1519 953 q 1513 905 1519 918 q 1494 885 1506 892 l 1365 779 q 1335 760 1350 765 q 1300 754 1319 754 l 1296 754 q 1231 779 1260 754 l 1103 885 q 1085 905 1092 892 q 1078 931 1078 918 q 1093 968 1078 953 q 1131 983 1108 983 z "},"E":{"ha":838,"x_min":144,"x_max":760,"o":"m 701 117 q 744 101 729 117 q 760 58 760 86 q 744 15 760 31 q 701 0 729 0 l 203 0 q 160 15 175 0 q 144 58 144 31 l 144 883 q 160 926 144 911 q 203 942 175 942 l 701 942 q 744 926 729 942 q 760 883 760 911 q 744 840 760 856 q 701 825 729 825 l 261 825 l 261 533 l 538 533 q 581 518 565 533 q 596 475 596 503 q 581 432 596 447 q 538 417 565 417 l 261 417 l 261 117 l 701 117 z "},"É":{"ha":838,"x_min":144,"x_max":760,"o":"m 701 117 q 744 101 729 117 q 760 58 760 86 q 744 15 760 31 q 701 0 729 0 l 203 0 q 160 15 175 0 q 144 58 144 31 l 144 883 q 160 926 144 911 q 203 942 175 942 l 701 942 q 744 926 729 942 q 760 883 760 911 q 744 840 760 856 q 701 825 729 825 l 261 825 l 261 533 l 538 533 q 581 518 565 533 q 596 475 596 503 q 581 432 596 447 q 538 417 565 417 l 261 417 l 261 117 l 701 117 m 442 1028 q 422 1064 422 1043 q 436 1099 422 1083 l 538 1221 q 574 1240 553 1240 q 608 1226 593 1240 q 628 1190 628 1211 q 614 1156 628 1171 l 513 1033 q 476 1014 497 1014 q 442 1028 460 1014 z "},"Ĕ":{"ha":838,"x_min":144,"x_max":760,"o":"m 701 117 q 744 101 729 117 q 760 58 760 86 q 744 15 760 31 q 701 0 729 0 l 203 0 q 160 15 175 0 q 144 58 144 31 l 144 883 q 160 926 144 911 q 203 942 175 942 l 701 942 q 744 926 729 942 q 760 883 760 911 q 744 840 760 856 q 701 825 729 825 l 261 825 l 261 533 l 538 533 q 581 518 565 533 q 596 475 596 503 q 581 432 596 447 q 538 417 565 417 l 261 417 l 261 117 l 701 117 m 493 1007 q 352 1042 401 1007 q 303 1140 303 1076 l 303 1169 q 316 1208 303 1194 q 353 1221 329 1221 q 404 1169 404 1221 l 404 1140 q 424 1110 404 1118 q 503 1101 444 1101 q 566 1110 549 1101 q 583 1140 583 1119 l 583 1186 q 597 1212 583 1203 q 633 1221 610 1221 q 685 1169 685 1221 l 685 1140 q 635 1042 685 1076 q 493 1007 585 1007 z "},"Ě":{"ha":838,"x_min":144,"x_max":760,"o":"m 701 117 q 744 101 729 117 q 760 58 760 86 q 744 15 760 31 q 701 0 729 0 l 203 0 q 160 15 175 0 q 144 58 144 31 l 144 883 q 160 926 144 911 q 203 942 175 942 l 701 942 q 744 926 729 942 q 760 883 760 911 q 744 840 760 856 q 701 825 729 825 l 261 825 l 261 533 l 538 533 q 581 518 565 533 q 596 475 596 503 q 581 432 596 447 q 538 417 565 417 l 261 417 l 261 117 l 701 117 m 290 1221 q 329 1204 313 1221 l 457 1097 l 458 1097 l 588 1204 q 626 1221 604 1221 q 663 1206 647 1221 q 679 1168 679 1190 q 672 1142 679 1156 q 654 1122 665 1129 l 525 1017 q 494 997 510 1003 q 460 992 479 992 l 456 992 q 390 1017 419 992 l 263 1122 q 244 1142 251 1129 q 238 1168 238 1156 q 253 1206 238 1190 q 290 1221 268 1221 z "},"Ê":{"ha":838,"x_min":144,"x_max":760,"o":"m 701 117 q 744 101 729 117 q 760 58 760 86 q 744 15 760 31 q 701 0 729 0 l 203 0 q 160 15 175 0 q 144 58 144 31 l 144 883 q 160 926 144 911 q 203 942 175 942 l 701 942 q 744 926 729 942 q 760 883 760 911 q 744 840 760 856 q 701 825 729 825 l 261 825 l 261 533 l 538 533 q 581 518 565 533 q 596 475 596 503 q 581 432 596 447 q 538 417 565 417 l 261 417 l 261 117 l 701 117 m 304 999 q 267 1014 282 999 q 251 1051 251 1029 q 258 1077 251 1064 q 276 1097 265 1090 l 404 1203 q 469 1228 433 1228 l 474 1228 q 508 1222 493 1228 q 539 1203 524 1217 l 668 1097 q 686 1077 679 1090 q 693 1051 693 1064 q 677 1014 693 1029 q 640 999 661 999 q 601 1015 618 999 l 472 1122 l 471 1122 l 343 1015 q 304 999 326 999 z "},"Ế":{"ha":838,"x_min":144,"x_max":776,"o":"m 701 117 q 744 101 729 117 q 760 58 760 86 q 744 15 760 31 q 701 0 729 0 l 203 0 q 160 15 175 0 q 144 58 144 31 l 144 883 q 160 926 144 911 q 203 942 175 942 l 701 942 q 744 926 729 942 q 760 883 760 911 q 744 840 760 856 q 701 825 729 825 l 261 825 l 261 533 l 538 533 q 581 518 565 533 q 596 475 596 503 q 581 432 596 447 q 538 417 565 417 l 261 417 l 261 117 l 701 117 m 657 1144 q 619 1163 639 1144 q 600 1199 600 1181 q 617 1236 600 1215 l 679 1310 q 719 1331 700 1331 q 757 1313 738 1331 q 776 1276 776 1294 q 772 1258 776 1267 q 760 1239 767 1249 l 696 1165 q 657 1144 679 1144 m 303 999 q 265 1014 281 999 q 250 1051 250 1029 q 257 1077 250 1064 q 275 1097 264 1090 l 403 1203 q 468 1228 432 1228 l 472 1228 q 507 1222 492 1228 q 538 1203 522 1217 l 667 1097 q 685 1077 678 1090 q 692 1051 692 1064 q 676 1014 692 1029 q 639 999 660 999 q 600 1015 617 999 l 471 1122 l 469 1122 l 342 1015 q 303 999 325 999 z "},"Ệ":{"ha":838,"x_min":144,"x_max":760,"o":"m 701 117 q 744 101 729 117 q 760 58 760 86 q 744 15 760 31 q 701 0 729 0 l 203 0 q 160 15 175 0 q 144 58 144 31 l 144 883 q 160 926 144 911 q 203 942 175 942 l 701 942 q 744 926 729 942 q 760 883 760 911 q 744 840 760 856 q 701 825 729 825 l 261 825 l 261 533 l 538 533 q 581 518 565 533 q 596 475 596 503 q 581 432 596 447 q 538 417 565 417 l 261 417 l 261 117 l 701 117 m 468 -218 q 427 -203 442 -218 q 413 -162 413 -189 l 413 -128 q 427 -87 413 -101 q 468 -74 442 -74 l 501 -74 q 554 -128 554 -74 l 554 -162 q 541 -203 554 -189 q 501 -218 528 -218 l 468 -218 m 304 999 q 267 1014 282 999 q 251 1051 251 1029 q 258 1077 251 1064 q 276 1097 265 1090 l 404 1203 q 469 1228 433 1228 l 474 1228 q 508 1222 493 1228 q 539 1203 524 1217 l 668 1097 q 686 1077 679 1090 q 693 1051 693 1064 q 677 1014 693 1029 q 640 999 661 999 q 601 1015 618 999 l 472 1122 l 471 1122 l 343 1015 q 304 999 326 999 z "},"Ề":{"ha":838,"x_min":140,"x_max":760,"o":"m 701 117 q 744 101 729 117 q 760 58 760 86 q 744 15 760 31 q 701 0 729 0 l 203 0 q 160 15 175 0 q 144 58 144 31 l 144 883 q 160 926 144 911 q 203 942 175 942 l 701 942 q 744 926 729 942 q 760 883 760 911 q 744 840 760 856 q 701 825 729 825 l 261 825 l 261 533 l 538 533 q 581 518 565 533 q 596 475 596 503 q 581 432 596 447 q 538 417 565 417 l 261 417 l 261 117 l 701 117 m 260 1144 q 219 1165 239 1144 l 157 1239 q 140 1276 140 1254 q 160 1313 140 1294 q 197 1331 179 1331 q 236 1310 217 1331 l 299 1236 q 315 1199 315 1218 q 297 1163 315 1181 q 260 1144 278 1144 m 304 999 q 267 1014 282 999 q 251 1051 251 1029 q 258 1077 251 1064 q 276 1097 265 1090 l 404 1203 q 469 1228 433 1228 l 474 1228 q 508 1222 493 1228 q 539 1203 524 1217 l 668 1097 q 686 1077 679 1090 q 693 1051 693 1064 q 677 1014 693 1029 q 640 999 661 999 q 601 1015 618 999 l 472 1122 l 471 1122 l 343 1015 q 304 999 326 999 z "},"Ể":{"ha":838,"x_min":144,"x_max":760,"o":"m 701 117 q 744 101 729 117 q 760 58 760 86 q 744 15 760 31 q 701 0 729 0 l 203 0 q 160 15 175 0 q 144 58 144 31 l 144 883 q 160 926 144 911 q 203 942 175 942 l 701 942 q 744 926 729 942 q 760 883 760 911 q 744 840 760 856 q 701 825 729 825 l 261 825 l 261 533 l 538 533 q 581 518 565 533 q 596 475 596 503 q 581 432 596 447 q 538 417 565 417 l 261 417 l 261 117 l 701 117 m 306 999 q 268 1014 283 999 q 253 1051 253 1029 q 260 1077 253 1064 q 278 1097 267 1090 l 406 1203 q 471 1228 435 1228 l 475 1228 q 510 1222 494 1228 q 540 1203 525 1217 l 669 1097 q 688 1077 681 1090 q 694 1051 694 1064 q 678 1014 694 1029 q 642 999 663 999 q 603 1015 619 999 l 474 1122 l 472 1122 l 344 1015 q 306 999 328 999 m 597 1218 q 567 1226 575 1218 q 558 1256 558 1233 q 577 1316 558 1294 q 625 1356 596 1338 q 647 1371 643 1367 q 651 1383 651 1375 q 642 1423 651 1414 q 604 1432 633 1432 q 566 1423 575 1432 q 557 1383 557 1414 q 549 1353 557 1361 q 518 1344 540 1344 q 488 1353 496 1344 q 479 1383 479 1361 q 604 1508 479 1508 q 729 1383 729 1508 q 711 1325 729 1346 q 665 1288 693 1304 q 641 1271 646 1276 q 636 1256 636 1265 q 628 1226 636 1233 q 597 1218 619 1218 z "},"Ễ":{"ha":838,"x_min":144,"x_max":760,"o":"m 701 117 q 744 101 729 117 q 760 58 760 86 q 744 15 760 31 q 701 0 729 0 l 203 0 q 160 15 175 0 q 144 58 144 31 l 144 883 q 160 926 144 911 q 203 942 175 942 l 701 942 q 744 926 729 942 q 760 883 760 911 q 744 840 760 856 q 701 825 729 825 l 261 825 l 261 533 l 538 533 q 581 518 565 533 q 596 475 596 503 q 581 432 596 447 q 538 417 565 417 l 261 417 l 261 117 l 701 117 m 301 999 q 264 1014 279 999 q 249 1051 249 1029 q 256 1077 249 1064 q 274 1097 263 1090 l 401 1203 q 467 1228 431 1228 l 471 1228 q 506 1222 490 1228 q 536 1203 521 1217 l 665 1097 q 683 1077 676 1090 q 690 1051 690 1064 q 674 1014 690 1029 q 638 999 658 999 q 599 1015 615 999 l 469 1122 l 468 1122 l 340 1015 q 301 999 324 999 m 571 1267 q 506 1282 531 1267 q 456 1324 482 1297 q 427 1349 438 1343 q 404 1354 417 1354 q 350 1311 368 1354 q 308 1275 335 1275 q 286 1279 299 1275 q 256 1314 256 1290 q 261 1338 256 1326 q 319 1421 285 1394 q 404 1447 353 1447 q 470 1431 444 1447 q 522 1389 496 1415 q 549 1366 540 1371 q 571 1361 557 1361 q 594 1368 585 1361 q 611 1396 603 1375 q 654 1435 626 1435 q 672 1432 658 1435 q 706 1396 706 1424 q 701 1375 706 1388 q 650 1293 682 1319 q 571 1267 618 1267 z "},"Ȅ":{"ha":838,"x_min":144,"x_max":760,"o":"m 294 1171 q 281 1203 281 1185 q 299 1235 281 1221 q 329 1247 313 1247 q 363 1229 349 1247 l 454 1119 q 467 1089 467 1106 q 449 1056 467 1069 q 417 1042 433 1042 q 385 1060 399 1042 l 294 1171 m 456 1171 q 442 1203 442 1185 q 460 1235 442 1221 q 490 1247 475 1247 q 524 1229 510 1247 l 615 1119 q 628 1089 628 1106 q 610 1056 628 1069 q 578 1042 594 1042 q 546 1060 560 1042 l 456 1171 m 701 117 q 744 101 729 117 q 760 58 760 86 q 744 15 760 31 q 701 0 729 0 l 203 0 q 160 15 175 0 q 144 58 144 31 l 144 883 q 160 926 144 911 q 203 942 175 942 l 701 942 q 744 926 729 942 q 760 883 760 911 q 744 840 760 856 q 701 825 729 825 l 261 825 l 261 533 l 538 533 q 581 518 565 533 q 596 475 596 503 q 581 432 596 447 q 538 417 565 417 l 261 417 l 261 117 l 701 117 z "},"Ë":{"ha":838,"x_min":144,"x_max":760,"o":"m 701 117 q 744 101 729 117 q 760 58 760 86 q 744 15 760 31 q 701 0 729 0 l 203 0 q 160 15 175 0 q 144 58 144 31 l 144 883 q 160 926 144 911 q 203 942 175 942 l 701 942 q 744 926 729 942 q 760 883 760 911 q 744 840 760 856 q 701 825 729 825 l 261 825 l 261 533 l 538 533 q 581 518 565 533 q 596 475 596 503 q 581 432 596 447 q 538 417 565 417 l 261 417 l 261 117 l 701 117 m 342 1044 q 301 1059 315 1044 q 286 1100 286 1074 l 286 1135 q 301 1175 286 1161 q 342 1189 315 1189 l 375 1189 q 428 1135 428 1189 l 428 1100 q 415 1059 428 1074 q 375 1044 401 1044 l 342 1044 m 574 1044 q 533 1059 547 1044 q 518 1100 518 1074 l 518 1135 q 533 1175 518 1161 q 574 1189 547 1189 l 607 1189 q 660 1135 660 1189 l 660 1100 q 647 1059 660 1074 q 607 1044 633 1044 l 574 1044 z "},"Ė":{"ha":838,"x_min":144,"x_max":760,"o":"m 701 117 q 744 101 729 117 q 760 58 760 86 q 744 15 760 31 q 701 0 729 0 l 203 0 q 160 15 175 0 q 144 58 144 31 l 144 883 q 160 926 144 911 q 203 942 175 942 l 701 942 q 744 926 729 942 q 760 883 760 911 q 744 840 760 856 q 701 825 729 825 l 261 825 l 261 533 l 538 533 q 581 518 565 533 q 596 475 596 503 q 581 432 596 447 q 538 417 565 417 l 261 417 l 261 117 l 701 117 m 454 1056 q 405 1074 422 1056 q 388 1122 388 1092 l 388 1164 q 405 1212 388 1196 q 454 1228 422 1228 l 494 1228 q 557 1164 557 1228 l 557 1122 q 541 1073 557 1090 q 494 1056 525 1056 l 454 1056 z "},"Ẹ":{"ha":838,"x_min":144,"x_max":760,"o":"m 701 117 q 744 101 729 117 q 760 58 760 86 q 744 15 760 31 q 701 0 729 0 l 203 0 q 160 15 175 0 q 144 58 144 31 l 144 883 q 160 926 144 911 q 203 942 175 942 l 701 942 q 744 926 729 942 q 760 883 760 911 q 744 840 760 856 q 701 825 729 825 l 261 825 l 261 533 l 538 533 q 581 518 565 533 q 596 475 596 503 q 581 432 596 447 q 538 417 565 417 l 261 417 l 261 117 l 701 117 m 468 -218 q 427 -203 442 -218 q 413 -162 413 -189 l 413 -128 q 427 -87 413 -101 q 468 -74 442 -74 l 501 -74 q 554 -128 554 -74 l 554 -162 q 541 -203 554 -189 q 501 -218 528 -218 l 468 -218 z "},"È":{"ha":838,"x_min":144,"x_max":760,"o":"m 701 117 q 744 101 729 117 q 760 58 760 86 q 744 15 760 31 q 701 0 729 0 l 203 0 q 160 15 175 0 q 144 58 144 31 l 144 883 q 160 926 144 911 q 203 942 175 942 l 701 942 q 744 926 729 942 q 760 883 760 911 q 744 840 760 856 q 701 825 729 825 l 261 825 l 261 533 l 538 533 q 581 518 565 533 q 596 475 596 503 q 581 432 596 447 q 538 417 565 417 l 261 417 l 261 117 l 701 117 m 533 1003 q 499 989 515 989 q 463 1008 478 989 l 361 1131 q 347 1165 347 1146 q 367 1201 347 1186 q 401 1215 382 1215 q 438 1196 422 1215 l 539 1074 q 553 1039 553 1058 q 533 1003 553 1018 z "},"Ẻ":{"ha":838,"x_min":144,"x_max":760,"o":"m 701 117 q 744 101 729 117 q 760 58 760 86 q 744 15 760 31 q 701 0 729 0 l 203 0 q 160 15 175 0 q 144 58 144 31 l 144 883 q 160 926 144 911 q 203 942 175 942 l 701 942 q 744 926 729 942 q 760 883 760 911 q 744 840 760 856 q 701 825 729 825 l 261 825 l 261 533 l 538 533 q 581 518 565 533 q 596 475 596 503 q 581 432 596 447 q 538 417 565 417 l 261 417 l 261 117 l 701 117 m 472 1015 q 442 1023 450 1015 q 433 1053 433 1031 q 452 1113 433 1092 q 500 1153 471 1135 q 522 1168 518 1164 q 526 1181 526 1172 q 517 1220 526 1211 q 479 1229 508 1229 q 441 1220 450 1229 q 432 1181 432 1211 q 424 1150 432 1158 q 393 1142 415 1142 q 363 1150 371 1142 q 354 1181 354 1158 q 479 1306 354 1306 q 604 1181 604 1306 q 586 1122 604 1143 q 540 1085 568 1101 q 516 1068 521 1074 q 511 1053 511 1063 q 503 1023 511 1031 q 472 1015 494 1015 z "},"Ȇ":{"ha":838,"x_min":144,"x_max":760,"o":"m 701 117 q 744 101 729 117 q 760 58 760 86 q 744 15 760 31 q 701 0 729 0 l 203 0 q 160 15 175 0 q 144 58 144 31 l 144 883 q 160 926 144 911 q 203 942 175 942 l 701 942 q 744 926 729 942 q 760 883 760 911 q 744 840 760 856 q 701 825 729 825 l 261 825 l 261 533 l 538 533 q 581 518 565 533 q 596 475 596 503 q 581 432 596 447 q 538 417 565 417 l 261 417 l 261 117 l 701 117 m 471 1281 q 613 1246 563 1281 q 663 1147 663 1211 l 663 1118 q 611 1067 663 1067 q 574 1076 588 1067 q 561 1101 561 1085 l 561 1147 q 544 1177 561 1168 q 481 1186 526 1186 q 402 1178 422 1186 q 382 1147 382 1169 l 382 1118 q 331 1067 382 1067 q 294 1080 307 1067 q 281 1118 281 1093 l 281 1147 q 330 1246 281 1211 q 471 1281 379 1281 z "},"Ē":{"ha":838,"x_min":144,"x_max":760,"o":"m 701 117 q 744 101 729 117 q 760 58 760 86 q 744 15 760 31 q 701 0 729 0 l 203 0 q 160 15 175 0 q 144 58 144 31 l 144 883 q 160 926 144 911 q 203 942 175 942 l 701 942 q 744 926 729 942 q 760 883 760 911 q 744 840 760 856 q 701 825 729 825 l 261 825 l 261 533 l 538 533 q 581 518 565 533 q 596 475 596 503 q 581 432 596 447 q 538 417 565 417 l 261 417 l 261 117 l 701 117 m 289 1058 q 231 1117 231 1058 q 289 1175 231 1175 l 640 1175 q 699 1117 699 1175 q 640 1058 699 1058 l 289 1058 z "},"Ę":{"ha":838,"x_min":144,"x_max":890,"o":"m 839 -65 q 876 -80 861 -65 q 890 -115 890 -94 q 876 -151 890 -137 q 810 -197 846 -181 q 736 -214 774 -214 q 634 -176 675 -214 q 593 -82 593 -137 q 619 0 593 -42 l 203 0 q 160 15 175 0 q 144 58 144 31 l 144 883 q 160 926 144 911 q 203 942 175 942 l 701 942 q 744 926 729 942 q 760 883 760 911 q 744 840 760 856 q 701 825 729 825 l 261 825 l 261 533 l 538 533 q 581 518 565 533 q 596 475 596 503 q 581 432 596 447 q 538 417 565 417 l 261 417 l 261 117 l 700 117 l 701 118 q 743 139 718 139 q 778 124 764 139 q 793 88 793 110 q 783 58 793 68 l 710 -49 q 694 -82 694 -65 q 706 -104 694 -96 q 736 -112 718 -112 q 803 -79 772 -112 q 839 -65 822 -65 z "},"Ẽ":{"ha":838,"x_min":144,"x_max":760,"o":"m 701 117 q 744 101 729 117 q 760 58 760 86 q 744 15 760 31 q 701 0 729 0 l 203 0 q 160 15 175 0 q 144 58 144 31 l 144 883 q 160 926 144 911 q 203 942 175 942 l 701 942 q 744 926 729 942 q 760 883 760 911 q 744 840 760 856 q 701 825 729 825 l 261 825 l 261 533 l 538 533 q 581 518 565 533 q 596 475 596 503 q 581 432 596 447 q 538 417 565 417 l 261 417 l 261 117 l 701 117 m 572 1019 q 508 1035 532 1019 q 457 1076 483 1050 q 428 1101 439 1096 q 406 1107 418 1107 q 351 1064 369 1107 q 310 1028 336 1028 q 288 1032 300 1028 q 257 1067 257 1043 q 263 1090 257 1079 q 320 1174 286 1147 q 406 1200 354 1200 q 472 1184 446 1200 q 524 1142 497 1168 q 550 1119 542 1124 q 572 1114 558 1114 q 595 1121 586 1114 q 613 1149 604 1128 q 656 1188 628 1188 q 674 1185 660 1188 q 707 1149 707 1176 q 703 1128 707 1140 q 651 1046 683 1072 q 572 1019 619 1019 z "},"F":{"ha":772,"x_min":144,"x_max":772,"o":"m 203 0 q 160 15 175 0 q 144 58 144 31 l 144 883 q 160 926 144 911 q 203 942 175 942 l 714 942 q 757 926 742 942 q 772 883 772 911 q 757 840 772 856 q 714 825 742 825 l 261 825 l 261 533 l 540 533 q 583 518 568 533 q 599 475 599 503 q 583 432 599 447 q 540 417 568 417 l 261 417 l 261 58 q 246 15 261 31 q 203 0 231 0 z "},"G":{"ha":969,"x_min":111,"x_max":872,"o":"m 422 0 q 187 76 263 0 q 111 311 111 151 l 111 631 q 187 867 111 790 q 421 942 263 943 l 589 942 q 788 888 719 942 q 868 718 857 833 q 857 674 872 689 q 813 658 842 658 q 770 673 785 658 q 751 717 756 688 q 708 802 744 779 q 589 825 672 825 l 421 825 q 304 808 346 826 q 245 749 263 790 q 228 631 228 707 l 228 311 q 246 194 228 235 q 305 135 264 153 q 422 117 346 117 l 589 117 q 691 131 656 117 q 741 181 726 146 q 756 283 756 217 l 756 349 l 647 350 q 589 408 589 350 q 604 451 589 436 q 647 467 619 467 l 814 465 q 857 450 842 465 q 872 407 872 435 l 872 283 q 803 68 872 136 q 589 0 735 0 l 422 0 z "},"Ğ":{"ha":969,"x_min":111,"x_max":872,"o":"m 422 0 q 187 76 263 0 q 111 311 111 151 l 111 631 q 187 867 111 790 q 421 942 263 943 l 589 942 q 788 888 719 942 q 868 718 857 833 q 857 674 872 689 q 813 658 842 658 q 770 673 785 658 q 751 717 756 688 q 708 802 744 779 q 589 825 672 825 l 421 825 q 304 808 346 826 q 245 749 263 790 q 228 631 228 707 l 228 311 q 246 194 228 235 q 305 135 264 153 q 422 117 346 117 l 589 117 q 691 131 656 117 q 741 181 726 146 q 756 283 756 217 l 756 349 l 647 350 q 589 408 589 350 q 604 451 589 436 q 647 467 619 467 l 814 465 q 857 450 842 465 q 872 407 872 435 l 872 283 q 803 68 872 136 q 589 0 735 0 l 422 0 m 528 1007 q 387 1042 436 1007 q 338 1140 338 1076 l 338 1169 q 351 1208 338 1194 q 388 1221 364 1221 q 439 1169 439 1221 l 439 1140 q 459 1110 439 1118 q 538 1101 479 1101 q 601 1110 583 1101 q 618 1140 618 1119 l 618 1186 q 631 1212 618 1203 q 668 1221 644 1221 q 719 1169 719 1221 l 719 1140 q 669 1042 719 1076 q 528 1007 619 1007 z "},"Ǧ":{"ha":969,"x_min":111,"x_max":872,"o":"m 422 0 q 187 76 263 0 q 111 311 111 151 l 111 631 q 187 867 111 790 q 421 942 263 943 l 589 942 q 788 888 719 942 q 868 718 857 833 q 857 674 872 689 q 813 658 842 658 q 770 673 785 658 q 751 717 756 688 q 708 802 744 779 q 589 825 672 825 l 421 825 q 304 808 346 826 q 245 749 263 790 q 228 631 228 707 l 228 311 q 246 194 228 235 q 305 135 264 153 q 422 117 346 117 l 589 117 q 691 131 656 117 q 741 181 726 146 q 756 283 756 217 l 756 349 l 647 350 q 589 408 589 350 q 604 451 589 436 q 647 467 619 467 l 814 465 q 857 450 842 465 q 872 407 872 435 l 872 283 q 803 68 872 136 q 589 0 735 0 l 422 0 m 374 1225 q 408 1211 394 1225 l 497 1113 l 514 1113 l 603 1211 q 638 1225 615 1225 q 672 1210 657 1225 q 686 1176 686 1196 q 672 1143 686 1157 l 571 1042 q 510 1015 546 1015 l 501 1015 q 440 1042 465 1015 l 339 1143 q 325 1176 325 1157 q 340 1210 325 1196 q 374 1225 354 1225 z "},"Ĝ":{"ha":969,"x_min":111,"x_max":872,"o":"m 422 0 q 187 76 263 0 q 111 311 111 151 l 111 631 q 187 867 111 790 q 421 942 263 943 l 589 942 q 788 888 719 942 q 868 718 857 833 q 857 674 872 689 q 813 658 842 658 q 770 673 785 658 q 751 717 756 688 q 708 802 744 779 q 589 825 672 825 l 421 825 q 304 808 346 826 q 245 749 263 790 q 228 631 228 707 l 228 311 q 246 194 228 235 q 305 135 264 153 q 422 117 346 117 l 589 117 q 691 131 656 117 q 741 181 726 146 q 756 283 756 217 l 756 349 l 647 350 q 589 408 589 350 q 604 451 589 436 q 647 467 619 467 l 814 465 q 857 450 842 465 q 872 407 872 435 l 872 283 q 803 68 872 136 q 589 0 735 0 l 422 0 m 376 1015 q 342 1030 357 1015 q 328 1064 328 1044 q 342 1097 328 1083 l 443 1199 q 504 1225 468 1225 l 513 1225 q 574 1199 549 1225 l 675 1097 q 689 1064 689 1083 q 674 1030 689 1044 q 640 1015 660 1015 q 606 1029 618 1015 l 517 1128 l 500 1128 l 411 1029 q 376 1015 397 1015 z "},"Ģ":{"ha":969,"x_min":111,"x_max":872,"o":"m 422 0 q 187 76 263 0 q 111 311 111 151 l 111 631 q 187 867 111 790 q 421 942 263 943 l 589 942 q 788 888 719 942 q 868 718 857 833 q 857 674 872 689 q 813 658 842 658 q 770 673 785 658 q 751 717 756 688 q 708 802 744 779 q 589 825 672 825 l 421 825 q 304 808 346 826 q 245 749 263 790 q 228 631 228 707 l 228 311 q 246 194 228 235 q 305 135 264 153 q 422 117 346 117 l 589 117 q 691 131 656 117 q 741 181 726 146 q 756 283 756 217 l 756 349 l 647 350 q 589 408 589 350 q 604 451 589 436 q 647 467 619 467 l 814 465 q 857 450 842 465 q 872 407 872 435 l 872 283 q 803 68 872 136 q 589 0 735 0 l 422 0 m 607 -140 q 604 -160 607 -149 l 539 -293 q 501 -317 525 -317 q 472 -308 483 -317 q 463 -279 460 -299 l 493 -112 q 505 -83 493 -93 q 538 -72 517 -72 l 564 -72 q 607 -114 607 -72 l 607 -140 z "},"Ġ":{"ha":969,"x_min":111,"x_max":872,"o":"m 422 0 q 187 76 263 0 q 111 311 111 151 l 111 631 q 187 867 111 790 q 421 942 263 943 l 589 942 q 788 888 719 942 q 868 718 857 833 q 857 674 872 689 q 813 658 842 658 q 770 673 785 658 q 751 717 756 688 q 708 802 744 779 q 589 825 672 825 l 421 825 q 304 808 346 826 q 245 749 263 790 q 228 631 228 707 l 228 311 q 246 194 228 235 q 305 135 264 153 q 422 117 346 117 l 589 117 q 691 131 656 117 q 741 181 726 146 q 756 283 756 217 l 756 349 l 647 350 q 589 408 589 350 q 604 451 589 436 q 647 467 619 467 l 814 465 q 857 450 842 465 q 872 407 872 435 l 872 283 q 803 68 872 136 q 589 0 735 0 l 422 0 m 489 1056 q 440 1074 457 1056 q 422 1122 422 1092 l 422 1164 q 440 1212 422 1196 q 489 1228 457 1228 l 529 1228 q 592 1164 592 1228 l 592 1122 q 576 1073 592 1090 q 529 1056 560 1056 l 489 1056 z "},"H":{"ha":1089,"x_min":144,"x_max":944,"o":"m 203 0 q 163 18 181 0 q 144 58 144 36 l 144 883 q 163 924 144 907 q 203 942 181 942 q 244 924 226 942 q 261 883 261 907 l 261 535 l 828 535 l 828 883 q 845 924 828 907 q 886 942 863 942 q 927 924 910 942 q 944 883 944 907 l 944 58 q 927 18 944 36 q 886 0 910 0 q 845 17 863 0 q 828 58 828 35 l 828 418 l 261 418 l 261 58 q 244 18 261 36 q 203 0 226 0 z "},"Ħ":{"ha":1089,"x_min":49,"x_max":1039,"o":"m 992 757 q 1026 745 1014 757 q 1039 711 1039 733 q 992 664 1039 664 l 944 664 l 944 58 q 927 18 944 36 q 886 0 910 0 q 845 17 863 0 q 828 58 828 35 l 828 418 l 261 418 l 261 58 q 244 18 261 36 q 203 0 226 0 q 163 18 181 0 q 144 58 144 36 l 144 664 l 94 664 q 60 676 72 664 q 49 711 49 689 q 60 745 49 733 q 94 757 72 757 l 144 757 l 144 883 q 163 924 144 907 q 203 942 181 942 q 244 924 226 942 q 261 883 261 907 l 261 757 l 828 757 l 828 883 q 845 924 828 907 q 886 942 863 942 q 927 924 910 942 q 944 883 944 907 l 944 757 l 992 757 m 828 535 l 828 664 l 261 664 l 261 535 l 828 535 z "},"Ĥ":{"ha":1089,"x_min":144,"x_max":944,"o":"m 203 0 q 163 18 181 0 q 144 58 144 36 l 144 883 q 163 924 144 907 q 203 942 181 942 q 244 924 226 942 q 261 883 261 907 l 261 535 l 828 535 l 828 883 q 845 924 828 907 q 886 942 863 942 q 927 924 910 942 q 944 883 944 907 l 944 58 q 927 18 944 36 q 886 0 910 0 q 845 17 863 0 q 828 58 828 35 l 828 418 l 261 418 l 261 58 q 244 18 261 36 q 203 0 226 0 m 414 1015 q 380 1030 394 1015 q 365 1064 365 1044 q 379 1097 365 1083 l 481 1199 q 542 1225 506 1225 l 550 1225 q 611 1199 586 1225 l 713 1097 q 726 1064 726 1083 q 712 1030 726 1044 q 678 1015 697 1015 q 643 1029 656 1015 l 554 1128 l 538 1128 l 449 1029 q 414 1015 435 1015 z "},"I":{"ha":406,"x_min":144,"x_max":261,"o":"m 203 0 q 158 14 172 0 q 144 58 144 28 l 144 882 q 158 926 144 913 q 203 940 172 940 q 247 926 233 940 q 261 882 261 913 l 261 58 q 247 14 261 28 q 203 0 233 0 z "},"Í":{"ha":406,"x_min":144,"x_max":358,"o":"m 203 0 q 158 14 172 0 q 144 58 144 28 l 144 882 q 158 926 144 913 q 203 940 172 940 q 247 926 233 940 q 261 882 261 913 l 261 58 q 247 14 261 28 q 203 0 233 0 m 172 1028 q 153 1064 153 1043 q 167 1099 153 1083 l 268 1221 q 304 1240 283 1240 q 339 1226 324 1240 q 358 1190 358 1211 q 344 1156 358 1171 l 243 1033 q 207 1014 228 1014 q 172 1028 190 1014 z "},"Ĭ":{"ha":406,"x_min":33,"x_max":415,"o":"m 203 0 q 158 14 172 0 q 144 58 144 28 l 144 882 q 158 926 144 913 q 203 940 172 940 q 247 926 233 940 q 261 882 261 913 l 261 58 q 247 14 261 28 q 203 0 233 0 m 224 1007 q 83 1042 132 1007 q 33 1140 33 1076 l 33 1169 q 47 1208 33 1194 q 83 1221 60 1221 q 135 1169 135 1221 l 135 1140 q 155 1110 135 1118 q 233 1101 175 1101 q 297 1110 279 1101 q 314 1140 314 1119 l 314 1186 q 327 1212 314 1203 q 364 1221 340 1221 q 415 1169 415 1221 l 415 1140 q 365 1042 415 1076 q 224 1007 315 1007 z "},"Î":{"ha":406,"x_min":24,"x_max":385,"o":"m 203 0 q 158 14 172 0 q 144 58 144 28 l 144 882 q 158 926 144 913 q 203 940 172 940 q 247 926 233 940 q 261 882 261 913 l 261 58 q 247 14 261 28 q 203 0 233 0 m 72 1015 q 38 1030 53 1015 q 24 1064 24 1044 q 38 1097 24 1083 l 139 1199 q 200 1225 164 1225 l 208 1225 q 269 1199 244 1225 l 371 1097 q 385 1064 385 1083 q 370 1030 385 1044 q 336 1015 356 1015 q 301 1029 314 1015 l 213 1128 l 196 1128 l 107 1029 q 72 1015 93 1015 z "},"Ȉ":{"ha":406,"x_min":11,"x_max":358,"o":"m 179 1056 q 147 1042 164 1042 q 115 1060 129 1042 l 25 1171 q 11 1203 11 1185 q 29 1235 11 1221 q 60 1247 44 1247 q 93 1229 79 1247 l 185 1119 q 197 1089 197 1106 q 179 1056 197 1069 m 340 1056 q 308 1042 325 1042 q 276 1060 290 1042 l 186 1171 q 172 1203 172 1185 q 190 1235 172 1221 q 221 1247 206 1247 q 254 1229 240 1247 l 346 1119 q 358 1089 358 1106 q 340 1056 358 1069 m 203 0 q 158 14 172 0 q 144 58 144 28 l 144 882 q 158 926 144 913 q 203 940 172 940 q 247 926 233 940 q 261 882 261 913 l 261 58 q 247 14 261 28 q 203 0 233 0 z "},"Ï":{"ha":406,"x_min":17,"x_max":390,"o":"m 203 0 q 158 14 172 0 q 144 58 144 28 l 144 882 q 158 926 144 913 q 203 940 172 940 q 247 926 233 940 q 261 882 261 913 l 261 58 q 247 14 261 28 q 203 0 233 0 m 72 1044 q 31 1059 46 1044 q 17 1100 17 1074 l 17 1135 q 31 1175 17 1161 q 72 1189 46 1189 l 106 1189 q 158 1135 158 1189 l 158 1100 q 145 1059 158 1074 q 106 1044 132 1044 l 72 1044 m 304 1044 q 263 1059 278 1044 q 249 1100 249 1074 l 249 1135 q 263 1175 249 1161 q 304 1189 278 1189 l 338 1189 q 390 1135 390 1189 l 390 1100 q 377 1059 390 1074 q 338 1044 364 1044 l 304 1044 z "},"İ":{"ha":406,"x_min":118,"x_max":288,"o":"m 203 0 q 158 14 172 0 q 144 58 144 28 l 144 882 q 158 926 144 913 q 203 940 172 940 q 247 926 233 940 q 261 882 261 913 l 261 58 q 247 14 261 28 q 203 0 233 0 m 185 1056 q 135 1074 153 1056 q 118 1122 118 1092 l 118 1164 q 135 1212 118 1196 q 185 1228 153 1228 l 225 1228 q 288 1164 288 1228 l 288 1122 q 272 1073 288 1090 q 225 1056 256 1056 l 185 1056 z "},"Ị":{"ha":406,"x_min":132,"x_max":274,"o":"m 203 0 q 158 14 172 0 q 144 58 144 28 l 144 882 q 158 926 144 913 q 203 940 172 940 q 247 926 233 940 q 261 882 261 913 l 261 58 q 247 14 261 28 q 203 0 233 0 m 188 -218 q 147 -203 161 -218 q 132 -162 132 -189 l 132 -128 q 147 -87 132 -101 q 188 -74 161 -74 l 221 -74 q 274 -128 274 -74 l 274 -162 q 260 -203 274 -189 q 221 -218 247 -218 l 188 -218 z "},"Ì":{"ha":406,"x_min":78,"x_max":283,"o":"m 203 0 q 158 14 172 0 q 144 58 144 28 l 144 882 q 158 926 144 913 q 203 940 172 940 q 247 926 233 940 q 261 882 261 913 l 261 58 q 247 14 261 28 q 203 0 233 0 m 264 1003 q 229 989 246 989 q 193 1008 208 989 l 92 1131 q 78 1165 78 1146 q 97 1201 78 1186 q 132 1215 113 1215 q 168 1196 153 1215 l 269 1074 q 283 1039 283 1058 q 264 1003 283 1018 z "},"Ỉ":{"ha":406,"x_min":85,"x_max":335,"o":"m 203 0 q 158 14 172 0 q 144 58 144 28 l 144 882 q 158 926 144 913 q 203 940 172 940 q 247 926 233 940 q 261 882 261 913 l 261 58 q 247 14 261 28 q 203 0 233 0 m 203 1015 q 172 1023 181 1015 q 164 1053 164 1031 q 183 1113 164 1092 q 231 1153 201 1135 q 253 1168 249 1164 q 257 1181 257 1172 q 248 1220 257 1211 q 210 1229 239 1229 q 172 1220 181 1229 q 163 1181 163 1211 q 154 1150 163 1158 q 124 1142 146 1142 q 93 1150 101 1142 q 85 1181 85 1158 q 210 1306 85 1306 q 335 1181 335 1306 q 317 1122 335 1143 q 271 1085 299 1101 q 247 1068 251 1074 q 242 1053 242 1063 q 233 1023 242 1031 q 203 1015 225 1015 z "},"Ȋ":{"ha":406,"x_min":11,"x_max":393,"o":"m 203 0 q 158 14 172 0 q 144 58 144 28 l 144 882 q 158 926 144 913 q 203 940 172 940 q 247 926 233 940 q 261 882 261 913 l 261 58 q 247 14 261 28 q 203 0 233 0 m 201 1281 q 343 1246 293 1281 q 393 1147 393 1211 l 393 1118 q 342 1067 393 1067 q 305 1076 318 1067 q 292 1101 292 1085 l 292 1147 q 274 1177 292 1168 q 211 1186 257 1186 q 133 1178 153 1186 q 113 1147 113 1169 l 113 1118 q 61 1067 113 1067 q 24 1080 38 1067 q 11 1118 11 1093 l 11 1147 q 60 1246 11 1211 q 201 1281 110 1281 z "},"Ī":{"ha":406,"x_min":44,"x_max":364,"o":"m 203 0 q 158 14 172 0 q 144 58 144 28 l 144 882 q 158 926 144 913 q 203 940 172 940 q 247 926 233 940 q 261 882 261 913 l 261 58 q 247 14 261 28 q 203 0 233 0 m 101 1063 q 44 1118 44 1063 q 59 1160 44 1146 q 101 1175 74 1175 l 307 1175 q 349 1160 333 1175 q 364 1118 364 1146 q 349 1077 364 1092 q 307 1063 335 1063 l 101 1063 z "},"Į":{"ha":406,"x_min":54,"x_max":351,"o":"m 300 -112 q 337 -127 322 -112 q 351 -162 351 -142 q 338 -199 351 -185 q 271 -244 307 -228 q 197 -261 235 -261 q 95 -223 136 -261 q 54 -129 54 -185 q 89 -36 54 -82 l 144 46 l 144 58 l 144 882 q 158 926 144 913 q 203 940 172 940 q 247 926 233 940 q 261 882 261 913 l 261 58 q 247 14 261 28 l 244 11 l 171 -96 q 156 -129 156 -112 q 167 -151 156 -143 q 197 -160 179 -160 q 264 -126 232 -160 q 300 -112 283 -112 z "},"Ĩ":{"ha":406,"x_min":15,"x_max":394,"o":"m 203 0 q 158 14 172 0 q 144 58 144 28 l 144 882 q 158 926 144 913 q 203 940 172 940 q 247 926 233 940 q 261 882 261 913 l 261 58 q 247 14 261 28 q 203 0 233 0 m 278 1025 q 238 1037 257 1025 q 197 1069 219 1049 q 171 1091 183 1082 q 149 1100 158 1100 q 127 1092 136 1100 q 110 1063 118 1083 q 67 1028 92 1028 q 46 1032 57 1028 q 15 1067 15 1044 q 21 1090 15 1079 q 68 1167 40 1144 q 142 1189 96 1189 q 181 1176 160 1189 q 231 1140 201 1164 q 276 1113 265 1113 q 288 1117 283 1113 q 295 1127 292 1122 q 300 1135 299 1132 q 343 1172 314 1172 q 361 1169 354 1172 q 394 1135 394 1160 q 390 1113 394 1125 q 278 1025 351 1025 z "},"J":{"ha":857,"x_min":44,"x_max":726,"o":"m 328 0 q 128 54 197 0 q 47 222 60 108 q 60 267 44 251 q 104 283 75 283 q 164 225 158 283 q 208 140 172 163 q 328 117 244 117 l 443 117 q 545 131 510 117 q 595 181 581 146 q 610 283 610 217 l 610 883 q 668 942 610 942 q 711 926 696 942 q 726 883 726 911 l 726 283 q 658 68 726 136 q 443 0 589 0 l 328 0 z "},"Ĵ":{"ha":857,"x_min":47,"x_max":850,"o":"m 328 0 q 128 54 197 0 q 47 222 60 108 q 60 267 44 251 q 104 283 75 283 q 164 225 158 283 q 208 140 172 163 q 328 117 244 117 l 443 117 q 545 131 510 117 q 595 181 581 146 q 610 283 610 217 l 610 883 q 668 942 610 942 q 711 926 696 942 q 726 883 726 911 l 726 283 q 658 68 726 136 q 443 0 589 0 l 328 0 m 538 1015 q 503 1030 518 1015 q 489 1064 489 1044 q 503 1097 489 1083 l 604 1199 q 665 1225 629 1225 l 674 1225 q 735 1199 710 1225 l 836 1097 q 850 1064 850 1083 q 835 1030 850 1044 q 801 1015 821 1015 q 767 1029 779 1015 l 678 1128 l 661 1128 l 572 1029 q 538 1015 558 1015 z "},"K":{"ha":815,"x_min":144,"x_max":767,"o":"m 751 101 q 767 63 767 82 q 743 19 767 38 q 704 4 726 4 q 661 28 679 4 l 321 449 l 261 386 l 261 58 q 246 15 261 31 q 203 0 231 0 q 160 15 175 0 q 144 58 144 31 l 144 883 q 160 926 144 911 q 203 942 175 942 q 246 926 231 942 q 261 883 261 911 l 261 553 l 615 919 q 657 940 636 940 q 697 921 678 940 q 718 879 718 900 q 699 839 718 858 l 404 533 l 751 101 z "},"Ķ":{"ha":815,"x_min":144,"x_max":767,"o":"m 751 101 q 767 63 767 82 q 743 19 767 38 q 704 4 726 4 q 661 28 679 4 l 321 449 l 261 386 l 261 58 q 246 15 261 31 q 203 0 231 0 q 160 15 175 0 q 144 58 144 31 l 144 883 q 160 926 144 911 q 203 942 175 942 q 246 926 231 942 q 261 883 261 911 l 261 553 l 615 919 q 657 940 636 940 q 697 921 678 940 q 718 879 718 900 q 699 839 718 858 l 404 533 l 751 101 m 497 -140 q 494 -160 497 -149 l 429 -293 q 392 -317 415 -317 q 362 -308 374 -317 q 353 -279 350 -299 l 383 -112 q 395 -83 383 -93 q 428 -72 407 -72 l 454 -72 q 497 -114 497 -72 l 497 -140 z "},"L":{"ha":751,"x_min":144,"x_max":704,"o":"m 203 0 q 144 58 144 0 l 144 883 q 203 942 144 942 q 261 883 261 942 l 261 117 l 646 117 q 704 58 704 117 q 646 0 704 0 l 203 0 z "},"Ǉ":{"ha":1608,"x_min":144,"x_max":1478,"o":"m 203 0 q 144 58 144 0 l 144 883 q 203 942 144 942 q 261 883 261 942 l 261 117 l 646 117 q 704 58 704 117 q 646 0 704 0 l 203 0 m 1079 0 q 880 54 949 0 q 799 222 811 108 q 811 267 796 251 q 856 283 826 283 q 915 225 910 283 q 960 140 924 163 q 1079 117 996 117 l 1194 117 q 1297 131 1261 117 q 1347 181 1332 146 q 1361 283 1361 217 l 1361 883 q 1419 942 1361 942 q 1463 926 1447 942 q 1478 883 1478 911 l 1478 283 q 1409 68 1478 136 q 1194 0 1340 0 l 1079 0 z "},"Ĺ":{"ha":751,"x_min":144,"x_max":704,"o":"m 203 0 q 144 58 144 0 l 144 883 q 203 942 144 942 q 261 883 261 942 l 261 117 l 646 117 q 704 58 704 117 q 646 0 704 0 l 203 0 m 172 1028 q 153 1064 153 1043 q 167 1099 153 1083 l 268 1221 q 304 1240 283 1240 q 339 1226 324 1240 q 358 1190 358 1211 q 344 1156 358 1171 l 243 1033 q 207 1014 228 1014 q 172 1028 190 1014 z "},"Ľ":{"ha":751,"x_min":144,"x_max":704,"o":"m 203 0 q 144 58 144 0 l 144 883 q 203 942 144 942 q 261 883 261 942 l 261 117 l 646 117 q 704 58 704 117 q 646 0 704 0 l 203 0 m 533 851 q 531 832 533 843 l 532 831 l 468 700 q 431 676 454 676 q 401 685 413 676 q 393 714 390 694 l 422 875 l 422 876 q 465 917 422 917 l 492 917 q 533 876 533 917 l 533 851 z "},"Ļ":{"ha":751,"x_min":144,"x_max":704,"o":"m 203 0 q 144 58 144 0 l 144 883 q 203 942 144 942 q 261 883 261 942 l 261 117 l 646 117 q 704 58 704 117 q 646 0 704 0 l 203 0 m 538 -140 q 535 -160 538 -149 l 469 -293 q 432 -317 456 -317 q 402 -308 414 -317 q 393 -279 390 -299 l 424 -112 q 435 -83 424 -93 q 468 -72 447 -72 l 494 -72 q 538 -114 538 -72 l 538 -140 z "},"Ŀ":{"ha":751,"x_min":144,"x_max":704,"o":"m 203 0 q 144 58 144 0 l 144 883 q 203 942 144 942 q 261 883 261 942 l 261 117 l 646 117 q 704 58 704 117 q 646 0 704 0 l 203 0 m 492 425 q 451 440 465 425 q 436 481 436 454 l 436 515 q 451 556 436 542 q 492 569 465 569 l 525 569 q 578 515 578 569 l 578 481 q 565 440 578 454 q 525 425 551 425 l 492 425 z "},"ǈ":{"ha":1025,"x_min":144,"x_max":907,"o":"m 203 0 q 144 58 144 0 l 144 883 q 203 942 144 942 q 261 883 261 942 l 261 117 l 646 117 q 704 58 704 117 q 646 0 704 0 l 203 0 m 613 -219 q 669 -161 613 -161 q 745 -142 726 -161 q 764 -67 764 -124 l 764 646 q 779 689 764 674 q 822 704 794 704 q 865 689 850 704 q 881 646 881 674 l 881 -67 q 828 -226 881 -174 q 669 -278 776 -278 q 613 -219 613 -278 m 804 818 q 755 836 772 818 q 738 885 738 854 l 738 926 q 755 974 738 958 q 804 990 772 990 l 844 990 q 907 926 907 990 l 907 885 q 891 835 907 853 q 844 818 875 818 l 804 818 z "},"Ł":{"ha":751,"x_min":17,"x_max":704,"o":"m 646 117 q 704 58 704 117 q 646 0 704 0 l 203 0 q 144 58 144 0 l 144 315 l 106 286 q 71 272 85 272 q 29 297 49 272 q 17 332 17 317 q 40 375 17 356 l 144 454 l 144 883 q 203 942 144 942 q 261 883 261 942 l 261 542 l 353 611 q 388 625 371 625 q 428 600 410 625 q 442 564 442 582 q 418 522 442 543 l 261 404 l 261 117 l 646 117 z "},"M":{"ha":1163,"x_min":144,"x_max":1018,"o":"m 971 942 q 1018 883 1018 942 l 1018 58 q 1003 15 1018 31 q 960 0 988 0 q 917 15 932 0 q 901 58 901 31 l 901 701 l 646 325 q 615 297 632 306 q 575 288 599 288 q 545 297 558 288 q 518 325 532 306 l 261 703 l 261 58 q 246 15 261 31 q 203 0 231 0 q 160 15 175 0 q 144 58 144 31 l 144 883 q 160 926 144 911 q 203 942 175 942 q 267 904 242 942 l 583 428 l 900 904 q 971 942 924 942 z "},"N":{"ha":1051,"x_min":144,"x_max":907,"o":"m 849 942 q 892 926 876 942 q 907 883 907 911 l 907 58 q 892 15 907 31 q 849 0 876 0 q 818 8 832 0 q 790 35 804 17 l 261 717 l 261 58 q 246 15 261 31 q 203 0 231 0 q 160 15 175 0 q 144 58 144 31 l 144 883 q 160 926 144 911 q 203 942 175 942 q 233 933 219 942 q 261 907 246 925 l 790 225 l 790 883 q 806 926 790 911 q 849 942 821 942 z "},"Ǌ":{"ha":1908,"x_min":144,"x_max":1778,"o":"m 849 942 q 892 926 876 942 q 907 883 907 911 l 907 58 q 892 15 907 31 q 849 0 876 0 q 818 8 832 0 q 790 35 804 17 l 261 717 l 261 58 q 246 15 261 31 q 203 0 231 0 q 160 15 175 0 q 144 58 144 31 l 144 883 q 160 926 144 911 q 203 942 175 942 q 233 933 219 942 q 261 907 246 925 l 790 225 l 790 883 q 806 926 790 911 q 849 942 821 942 m 1379 0 q 1180 54 1249 0 q 1099 222 1111 108 q 1111 267 1096 251 q 1156 283 1126 283 q 1215 225 1210 283 q 1260 140 1224 163 q 1379 117 1296 117 l 1494 117 q 1597 131 1561 117 q 1647 181 1632 146 q 1661 283 1661 217 l 1661 883 q 1719 942 1661 942 q 1763 926 1747 942 q 1778 883 1778 911 l 1778 283 q 1709 68 1778 136 q 1494 0 1640 0 l 1379 0 z "},"Ń":{"ha":1051,"x_min":144,"x_max":907,"o":"m 849 942 q 892 926 876 942 q 907 883 907 911 l 907 58 q 892 15 907 31 q 849 0 876 0 q 818 8 832 0 q 790 35 804 17 l 261 717 l 261 58 q 246 15 261 31 q 203 0 231 0 q 160 15 175 0 q 144 58 144 31 l 144 883 q 160 926 144 911 q 203 942 175 942 q 233 933 219 942 q 261 907 246 925 l 790 225 l 790 883 q 806 926 790 911 q 849 942 821 942 m 490 1028 q 471 1064 471 1043 q 485 1099 471 1083 l 586 1221 q 622 1240 601 1240 q 657 1226 642 1240 q 676 1190 676 1211 q 663 1156 676 1171 l 561 1033 q 525 1014 546 1014 q 490 1028 508 1014 z "},"Ň":{"ha":1051,"x_min":144,"x_max":907,"o":"m 849 942 q 892 926 876 942 q 907 883 907 911 l 907 58 q 892 15 907 31 q 849 0 876 0 q 818 8 832 0 q 790 35 804 17 l 261 717 l 261 58 q 246 15 261 31 q 203 0 231 0 q 160 15 175 0 q 144 58 144 31 l 144 883 q 160 926 144 911 q 203 942 175 942 q 233 933 219 942 q 261 907 246 925 l 790 225 l 790 883 q 806 926 790 911 q 849 942 821 942 m 339 1221 q 378 1204 361 1221 l 506 1097 l 507 1097 l 636 1204 q 675 1221 653 1221 q 712 1206 696 1221 q 728 1168 728 1190 q 721 1142 728 1156 q 703 1122 714 1129 l 574 1017 q 543 997 558 1003 q 508 992 528 992 l 504 992 q 439 1017 468 992 l 311 1122 q 293 1142 300 1129 q 286 1168 286 1156 q 301 1206 286 1190 q 339 1221 317 1221 z "},"Ņ":{"ha":1051,"x_min":144,"x_max":907,"o":"m 849 942 q 892 926 876 942 q 907 883 907 911 l 907 58 q 892 15 907 31 q 849 0 876 0 q 818 8 832 0 q 790 35 804 17 l 261 717 l 261 58 q 246 15 261 31 q 203 0 231 0 q 160 15 175 0 q 144 58 144 31 l 144 883 q 160 926 144 911 q 203 942 175 942 q 233 933 219 942 q 261 907 246 925 l 790 225 l 790 883 q 806 926 790 911 q 849 942 821 942 m 611 -140 q 608 -160 611 -149 l 543 -293 q 506 -317 529 -317 q 476 -308 488 -317 q 467 -279 464 -299 l 497 -112 q 509 -83 497 -93 q 542 -72 521 -72 l 568 -72 q 611 -114 611 -72 l 611 -140 z "},"Ŋ":{"ha":1051,"x_min":144,"x_max":907,"o":"m 849 942 q 892 926 876 942 q 907 883 907 911 l 907 -78 q 858 -229 907 -181 q 707 -278 810 -278 l 542 -278 q 409 -244 457 -278 q 347 -139 361 -210 q 346 -125 346 -135 q 361 -90 346 -103 q 404 -78 376 -78 q 442 -91 429 -78 q 464 -135 454 -104 q 490 -156 474 -150 q 542 -161 507 -161 l 707 -161 q 774 -145 758 -161 q 790 -78 790 -129 l 790 35 l 261 717 l 261 58 q 246 15 261 31 q 203 0 231 0 q 160 15 175 0 q 144 58 144 31 l 144 883 q 160 926 144 911 q 203 942 175 942 q 233 933 219 942 q 261 907 246 925 l 790 225 l 790 883 q 806 926 790 911 q 849 942 821 942 z "},"ǋ":{"ha":1457,"x_min":144,"x_max":1339,"o":"m 849 942 q 892 926 876 942 q 907 883 907 911 l 907 58 q 892 15 907 31 q 849 0 876 0 q 818 8 832 0 q 790 35 804 17 l 261 717 l 261 58 q 246 15 261 31 q 203 0 231 0 q 160 15 175 0 q 144 58 144 31 l 144 883 q 160 926 144 911 q 203 942 175 942 q 233 933 219 942 q 261 907 246 925 l 790 225 l 790 883 q 806 926 790 911 q 849 942 821 942 m 1044 -219 q 1101 -161 1044 -161 q 1177 -142 1158 -161 q 1196 -67 1196 -124 l 1196 646 q 1211 689 1196 674 q 1254 704 1226 704 q 1297 689 1282 704 q 1313 646 1313 674 l 1313 -67 q 1260 -226 1313 -174 q 1101 -278 1208 -278 q 1044 -219 1044 -278 m 1236 818 q 1187 836 1204 818 q 1169 885 1169 854 l 1169 926 q 1187 974 1169 958 q 1236 990 1204 990 l 1276 990 q 1339 926 1339 990 l 1339 885 q 1323 835 1339 853 q 1276 818 1307 818 l 1236 818 z "},"Ñ":{"ha":1051,"x_min":144,"x_max":907,"o":"m 849 942 q 892 926 876 942 q 907 883 907 911 l 907 58 q 892 15 907 31 q 849 0 876 0 q 818 8 832 0 q 790 35 804 17 l 261 717 l 261 58 q 246 15 261 31 q 203 0 231 0 q 160 15 175 0 q 144 58 144 31 l 144 883 q 160 926 144 911 q 203 942 175 942 q 233 933 219 942 q 261 907 246 925 l 790 225 l 790 883 q 806 926 790 911 q 849 942 821 942 m 621 1019 q 556 1035 581 1019 q 506 1076 532 1050 q 477 1101 488 1096 q 454 1107 467 1107 q 400 1064 418 1107 q 358 1028 385 1028 q 336 1032 349 1028 q 306 1067 306 1043 q 311 1090 306 1079 q 369 1174 335 1147 q 454 1200 403 1200 q 520 1184 494 1200 q 572 1142 546 1168 q 599 1119 590 1124 q 621 1114 607 1114 q 644 1121 635 1114 q 661 1149 653 1128 q 704 1188 676 1188 q 722 1185 708 1188 q 756 1149 756 1176 q 751 1128 756 1140 q 700 1046 732 1072 q 621 1019 668 1019 z "},"O":{"ha":1011,"x_min":111,"x_max":900,"o":"m 422 0 q 187 76 263 0 q 111 311 111 151 l 111 632 q 188 867 111 792 q 422 942 264 943 l 589 942 q 824 866 749 942 q 900 631 900 790 l 900 311 q 824 76 900 151 q 589 0 749 0 l 422 0 m 589 117 q 706 135 665 117 q 765 194 747 153 q 783 311 783 235 l 783 631 q 765 747 783 706 q 706 807 747 789 q 589 825 664 825 l 422 825 q 306 808 347 826 q 246 749 264 790 q 228 632 228 707 l 228 311 q 246 194 228 235 q 305 135 264 153 q 422 117 346 117 l 589 117 z "},"Ó":{"ha":1011,"x_min":111,"x_max":900,"o":"m 422 0 q 187 76 263 0 q 111 311 111 151 l 111 632 q 188 867 111 792 q 422 942 264 943 l 589 942 q 824 866 749 942 q 900 631 900 790 l 900 311 q 824 76 900 151 q 589 0 749 0 l 422 0 m 589 117 q 706 135 665 117 q 765 194 747 153 q 783 311 783 235 l 783 631 q 765 747 783 706 q 706 807 747 789 q 589 825 664 825 l 422 825 q 306 808 347 826 q 246 749 264 790 q 228 632 228 707 l 228 311 q 246 194 228 235 q 305 135 264 153 q 422 117 346 117 l 589 117 m 475 1028 q 456 1064 456 1043 q 469 1099 456 1083 l 571 1221 q 607 1240 586 1240 q 642 1226 626 1240 q 661 1190 661 1211 q 647 1156 661 1171 l 546 1033 q 510 1014 531 1014 q 475 1028 493 1014 z "},"Ŏ":{"ha":1011,"x_min":111,"x_max":900,"o":"m 422 0 q 187 76 263 0 q 111 311 111 151 l 111 632 q 188 867 111 792 q 422 942 264 943 l 589 942 q 824 866 749 942 q 900 631 900 790 l 900 311 q 824 76 900 151 q 589 0 749 0 l 422 0 m 589 117 q 706 135 665 117 q 765 194 747 153 q 783 311 783 235 l 783 631 q 765 747 783 706 q 706 807 747 789 q 589 825 664 825 l 422 825 q 306 808 347 826 q 246 749 264 790 q 228 632 228 707 l 228 311 q 246 194 228 235 q 305 135 264 153 q 422 117 346 117 l 589 117 m 526 1007 q 385 1042 435 1007 q 336 1140 336 1076 l 336 1169 q 349 1208 336 1194 q 386 1221 363 1221 q 438 1169 438 1221 l 438 1140 q 458 1110 438 1118 q 536 1101 478 1101 q 599 1110 582 1101 q 617 1140 617 1119 l 617 1186 q 630 1212 617 1203 q 667 1221 643 1221 q 718 1169 718 1221 l 718 1140 q 668 1042 718 1076 q 526 1007 618 1007 z "},"Ô":{"ha":1011,"x_min":111,"x_max":900,"o":"m 422 0 q 187 76 263 0 q 111 311 111 151 l 111 632 q 188 867 111 792 q 422 942 264 943 l 589 942 q 824 866 749 942 q 900 631 900 790 l 900 311 q 824 76 900 151 q 589 0 749 0 l 422 0 m 589 117 q 706 135 665 117 q 765 194 747 153 q 783 311 783 235 l 783 631 q 765 747 783 706 q 706 807 747 789 q 589 825 664 825 l 422 825 q 306 808 347 826 q 246 749 264 790 q 228 632 228 707 l 228 311 q 246 194 228 235 q 305 135 264 153 q 422 117 346 117 l 589 117 m 338 999 q 300 1014 315 999 q 285 1051 285 1029 q 292 1077 285 1064 q 310 1097 299 1090 l 438 1203 q 503 1228 467 1228 l 507 1228 q 542 1222 526 1228 q 572 1203 557 1217 l 701 1097 q 719 1077 713 1090 q 726 1051 726 1064 q 710 1014 726 1029 q 674 999 694 999 q 635 1015 651 999 l 506 1122 l 504 1122 l 376 1015 q 338 999 360 999 z "},"Ố":{"ha":1011,"x_min":111,"x_max":900,"o":"m 422 0 q 187 76 263 0 q 111 311 111 151 l 111 632 q 188 867 111 792 q 422 942 264 943 l 589 942 q 824 866 749 942 q 900 631 900 790 l 900 311 q 824 76 900 151 q 589 0 749 0 l 422 0 m 589 117 q 706 135 665 117 q 765 194 747 153 q 783 311 783 235 l 783 631 q 765 747 783 706 q 706 807 747 789 q 589 825 664 825 l 422 825 q 306 808 347 826 q 246 749 264 790 q 228 632 228 707 l 228 311 q 246 194 228 235 q 305 135 264 153 q 422 117 346 117 l 589 117 m 690 1144 q 653 1163 672 1144 q 633 1199 633 1181 q 650 1236 633 1215 l 713 1310 q 753 1331 733 1331 q 790 1313 771 1331 q 810 1276 810 1294 q 805 1258 810 1267 q 793 1239 800 1249 l 729 1165 q 690 1144 713 1144 m 336 999 q 299 1014 314 999 q 283 1051 283 1029 q 290 1077 283 1064 q 308 1097 297 1090 l 436 1203 q 501 1228 465 1228 l 506 1228 q 540 1222 525 1228 q 571 1203 556 1217 l 700 1097 q 718 1077 711 1090 q 725 1051 725 1064 q 709 1014 725 1029 q 672 999 693 999 q 633 1015 650 999 l 504 1122 l 503 1122 l 375 1015 q 336 999 358 999 z "},"Ộ":{"ha":1011,"x_min":111,"x_max":900,"o":"m 422 0 q 187 76 263 0 q 111 311 111 151 l 111 632 q 188 867 111 792 q 422 942 264 943 l 589 942 q 824 866 749 942 q 900 631 900 790 l 900 311 q 824 76 900 151 q 589 0 749 0 l 422 0 m 589 117 q 706 135 665 117 q 765 194 747 153 q 783 311 783 235 l 783 631 q 765 747 783 706 q 706 807 747 789 q 589 825 664 825 l 422 825 q 306 808 347 826 q 246 749 264 790 q 228 632 228 707 l 228 311 q 246 194 228 235 q 305 135 264 153 q 422 117 346 117 l 589 117 m 475 -218 q 434 -203 449 -218 q 419 -162 419 -189 l 419 -128 q 434 -87 419 -101 q 475 -74 449 -74 l 508 -74 q 561 -128 561 -74 l 561 -162 q 548 -203 561 -189 q 508 -218 535 -218 l 475 -218 m 338 999 q 300 1014 315 999 q 285 1051 285 1029 q 292 1077 285 1064 q 310 1097 299 1090 l 438 1203 q 503 1228 467 1228 l 507 1228 q 542 1222 526 1228 q 572 1203 557 1217 l 701 1097 q 719 1077 713 1090 q 726 1051 726 1064 q 710 1014 726 1029 q 674 999 694 999 q 635 1015 651 999 l 506 1122 l 504 1122 l 376 1015 q 338 999 360 999 z "},"Ồ":{"ha":1011,"x_min":111,"x_max":900,"o":"m 422 0 q 187 76 263 0 q 111 311 111 151 l 111 632 q 188 867 111 792 q 422 942 264 943 l 589 942 q 824 866 749 942 q 900 631 900 790 l 900 311 q 824 76 900 151 q 589 0 749 0 l 422 0 m 589 117 q 706 135 665 117 q 765 194 747 153 q 783 311 783 235 l 783 631 q 765 747 783 706 q 706 807 747 789 q 589 825 664 825 l 422 825 q 306 808 347 826 q 246 749 264 790 q 228 632 228 707 l 228 311 q 246 194 228 235 q 305 135 264 153 q 422 117 346 117 l 589 117 m 293 1144 q 253 1165 272 1144 l 190 1239 q 174 1276 174 1254 q 193 1313 174 1294 q 231 1331 213 1331 q 269 1310 250 1331 l 332 1236 q 349 1199 349 1218 q 330 1163 349 1181 q 293 1144 311 1144 m 338 999 q 300 1014 315 999 q 285 1051 285 1029 q 292 1077 285 1064 q 310 1097 299 1090 l 438 1203 q 503 1228 467 1228 l 507 1228 q 542 1222 526 1228 q 572 1203 557 1217 l 701 1097 q 719 1077 713 1090 q 726 1051 726 1064 q 710 1014 726 1029 q 674 999 694 999 q 635 1015 651 999 l 506 1122 l 504 1122 l 376 1015 q 338 999 360 999 z "},"Ổ":{"ha":1011,"x_min":111,"x_max":900,"o":"m 422 0 q 187 76 263 0 q 111 311 111 151 l 111 632 q 188 867 111 792 q 422 942 264 943 l 589 942 q 824 866 749 942 q 900 631 900 790 l 900 311 q 824 76 900 151 q 589 0 749 0 l 422 0 m 589 117 q 706 135 665 117 q 765 194 747 153 q 783 311 783 235 l 783 631 q 765 747 783 706 q 706 807 747 789 q 589 825 664 825 l 422 825 q 306 808 347 826 q 246 749 264 790 q 228 632 228 707 l 228 311 q 246 194 228 235 q 305 135 264 153 q 422 117 346 117 l 589 117 m 339 999 q 301 1014 317 999 q 286 1051 286 1029 q 293 1077 286 1064 q 311 1097 300 1090 l 439 1203 q 504 1228 468 1228 l 508 1228 q 543 1222 528 1228 q 574 1203 558 1217 l 703 1097 q 721 1077 714 1090 q 728 1051 728 1064 q 712 1014 728 1029 q 675 999 696 999 q 636 1015 653 999 l 507 1122 l 506 1122 l 378 1015 q 339 999 361 999 m 631 1218 q 600 1226 608 1218 q 592 1256 592 1233 q 610 1316 592 1294 q 658 1356 629 1338 q 681 1371 676 1367 q 685 1383 685 1375 q 676 1423 685 1414 q 638 1432 667 1432 q 599 1423 608 1432 q 590 1383 590 1414 q 582 1353 590 1361 q 551 1344 574 1344 q 521 1353 529 1344 q 513 1383 513 1361 q 638 1508 513 1508 q 763 1383 763 1508 q 744 1325 763 1346 q 699 1288 726 1304 q 674 1271 679 1276 q 669 1256 669 1265 q 661 1226 669 1233 q 631 1218 653 1218 z "},"Ỗ":{"ha":1011,"x_min":111,"x_max":900,"o":"m 422 0 q 187 76 263 0 q 111 311 111 151 l 111 632 q 188 867 111 792 q 422 942 264 943 l 589 942 q 824 866 749 942 q 900 631 900 790 l 900 311 q 824 76 900 151 q 589 0 749 0 l 422 0 m 589 117 q 706 135 665 117 q 765 194 747 153 q 783 311 783 235 l 783 631 q 765 747 783 706 q 706 807 747 789 q 589 825 664 825 l 422 825 q 306 808 347 826 q 246 749 264 790 q 228 632 228 707 l 228 311 q 246 194 228 235 q 305 135 264 153 q 422 117 346 117 l 589 117 m 335 999 q 297 1014 313 999 q 282 1051 282 1029 q 289 1077 282 1064 q 307 1097 296 1090 l 435 1203 q 500 1228 464 1228 l 504 1228 q 539 1222 524 1228 q 569 1203 554 1217 l 699 1097 q 717 1077 710 1090 q 724 1051 724 1064 q 708 1014 724 1029 q 671 999 692 999 q 632 1015 649 999 l 503 1122 l 501 1122 l 374 1015 q 335 999 357 999 m 604 1267 q 540 1282 564 1267 q 489 1324 515 1297 q 460 1349 471 1343 q 438 1354 450 1354 q 383 1311 401 1354 q 342 1275 368 1275 q 319 1279 332 1275 q 289 1314 289 1290 q 294 1338 289 1326 q 352 1421 318 1394 q 438 1447 386 1447 q 503 1431 478 1447 q 556 1389 529 1415 q 582 1366 574 1371 q 604 1361 590 1361 q 627 1368 618 1361 q 644 1396 636 1375 q 688 1435 660 1435 q 706 1432 692 1435 q 739 1396 739 1424 q 735 1375 739 1388 q 683 1293 715 1319 q 604 1267 651 1267 z "},"Ȍ":{"ha":1011,"x_min":111,"x_max":900,"o":"m 482 1056 q 450 1042 467 1042 q 418 1060 432 1042 l 328 1171 q 314 1203 314 1185 q 332 1235 314 1221 q 363 1247 347 1247 q 396 1229 382 1247 l 488 1119 q 500 1089 500 1106 q 482 1056 500 1069 m 643 1056 q 611 1042 628 1042 q 579 1060 593 1042 l 489 1171 q 475 1203 475 1185 q 493 1235 475 1221 q 524 1247 507 1247 q 557 1229 543 1247 l 649 1119 q 661 1089 661 1106 q 643 1056 661 1069 m 422 0 q 187 76 263 0 q 111 311 111 151 l 111 632 q 188 867 111 792 q 422 942 264 943 l 589 942 q 824 866 749 942 q 900 631 900 790 l 900 311 q 824 76 900 151 q 589 0 749 0 l 422 0 m 589 117 q 706 135 665 117 q 765 194 747 153 q 783 311 783 235 l 783 631 q 765 747 783 706 q 706 807 747 789 q 589 825 664 825 l 422 825 q 306 808 347 826 q 246 749 264 790 q 228 632 228 707 l 228 311 q 246 194 228 235 q 305 135 264 153 q 422 117 346 117 l 589 117 z "},"Ö":{"ha":1011,"x_min":111,"x_max":900,"o":"m 422 0 q 187 76 263 0 q 111 311 111 151 l 111 632 q 188 867 111 792 q 422 942 264 943 l 589 942 q 824 866 749 942 q 900 631 900 790 l 900 311 q 824 76 900 151 q 589 0 749 0 l 422 0 m 589 117 q 706 135 665 117 q 765 194 747 153 q 783 311 783 235 l 783 631 q 765 747 783 706 q 706 807 747 789 q 589 825 664 825 l 422 825 q 306 808 347 826 q 246 749 264 790 q 228 632 228 707 l 228 311 q 246 194 228 235 q 305 135 264 153 q 422 117 346 117 l 589 117 m 375 1044 q 334 1059 349 1044 q 319 1100 319 1074 l 319 1135 q 334 1175 319 1161 q 375 1189 349 1189 l 408 1189 q 461 1135 461 1189 l 461 1100 q 448 1059 461 1074 q 408 1044 435 1044 l 375 1044 m 607 1044 q 566 1059 581 1044 q 551 1100 551 1074 l 551 1135 q 566 1175 551 1161 q 607 1189 581 1189 l 640 1189 q 693 1135 693 1189 l 693 1100 q 680 1059 693 1074 q 640 1044 667 1044 l 607 1044 z "},"Ȫ":{"ha":1011,"x_min":111,"x_max":900,"o":"m 422 0 q 187 76 263 0 q 111 311 111 151 l 111 632 q 188 867 111 792 q 422 942 264 943 l 589 942 q 824 866 749 942 q 900 631 900 790 l 900 311 q 824 76 900 151 q 589 0 749 0 l 422 0 m 589 117 q 706 135 665 117 q 765 194 747 153 q 783 311 783 235 l 783 631 q 765 747 783 706 q 706 807 747 789 q 589 825 664 825 l 422 825 q 306 808 347 826 q 246 749 264 790 q 228 632 228 707 l 228 311 q 246 194 228 235 q 305 135 264 153 q 422 117 346 117 l 589 117 m 375 1044 q 334 1059 349 1044 q 319 1100 319 1074 l 319 1135 q 334 1175 319 1161 q 375 1189 349 1189 l 408 1189 q 461 1135 461 1189 l 461 1100 q 448 1059 461 1074 q 408 1044 435 1044 l 375 1044 m 607 1044 q 566 1059 581 1044 q 551 1100 551 1074 l 551 1135 q 566 1175 551 1161 q 607 1189 581 1189 l 640 1189 q 693 1135 693 1189 l 693 1100 q 680 1059 693 1074 q 640 1044 667 1044 l 607 1044 m 322 1193 q 264 1251 264 1193 q 322 1310 264 1310 l 674 1310 q 732 1251 732 1310 q 674 1193 732 1193 l 322 1193 z "},"Ȱ":{"ha":1011,"x_min":111,"x_max":900,"o":"m 422 0 q 187 76 263 0 q 111 311 111 151 l 111 632 q 188 867 111 792 q 422 942 264 943 l 589 942 q 824 866 749 942 q 900 631 900 790 l 900 311 q 824 76 900 151 q 589 0 749 0 l 422 0 m 589 117 q 706 135 665 117 q 765 194 747 153 q 783 311 783 235 l 783 631 q 765 747 783 706 q 706 807 747 789 q 589 825 664 825 l 422 825 q 306 808 347 826 q 246 749 264 790 q 228 632 228 707 l 228 311 q 246 194 228 235 q 305 135 264 153 q 422 117 346 117 l 589 117 m 488 1056 q 438 1074 456 1056 q 421 1122 421 1092 l 421 1164 q 438 1212 421 1196 q 488 1228 456 1228 l 528 1228 q 590 1164 590 1228 l 590 1122 q 574 1073 590 1090 q 528 1056 558 1056 l 488 1056 m 322 1242 q 264 1300 264 1242 q 322 1358 264 1358 l 674 1358 q 732 1300 732 1358 q 674 1242 732 1242 l 322 1242 z "},"Ọ":{"ha":1011,"x_min":111,"x_max":900,"o":"m 422 0 q 187 76 263 0 q 111 311 111 151 l 111 632 q 188 867 111 792 q 422 942 264 943 l 589 942 q 824 866 749 942 q 900 631 900 790 l 900 311 q 824 76 900 151 q 589 0 749 0 l 422 0 m 589 117 q 706 135 665 117 q 765 194 747 153 q 783 311 783 235 l 783 631 q 765 747 783 706 q 706 807 747 789 q 589 825 664 825 l 422 825 q 306 808 347 826 q 246 749 264 790 q 228 632 228 707 l 228 311 q 246 194 228 235 q 305 135 264 153 q 422 117 346 117 l 589 117 m 475 -218 q 434 -203 449 -218 q 419 -162 419 -189 l 419 -128 q 434 -87 419 -101 q 475 -74 449 -74 l 508 -74 q 561 -128 561 -74 l 561 -162 q 548 -203 561 -189 q 508 -218 535 -218 l 475 -218 z "},"Ò":{"ha":1011,"x_min":111,"x_max":900,"o":"m 422 0 q 187 76 263 0 q 111 311 111 151 l 111 632 q 188 867 111 792 q 422 942 264 943 l 589 942 q 824 866 749 942 q 900 631 900 790 l 900 311 q 824 76 900 151 q 589 0 749 0 l 422 0 m 589 117 q 706 135 665 117 q 765 194 747 153 q 783 311 783 235 l 783 631 q 765 747 783 706 q 706 807 747 789 q 589 825 664 825 l 422 825 q 306 808 347 826 q 246 749 264 790 q 228 632 228 707 l 228 311 q 246 194 228 235 q 305 135 264 153 q 422 117 346 117 l 589 117 m 567 1003 q 532 989 549 989 q 496 1008 511 989 l 394 1131 q 381 1165 381 1146 q 400 1201 381 1186 q 435 1215 415 1215 q 471 1196 456 1215 l 572 1074 q 586 1039 586 1058 q 567 1003 586 1018 z "},"Ỏ":{"ha":1011,"x_min":111,"x_max":900,"o":"m 422 0 q 187 76 263 0 q 111 311 111 151 l 111 632 q 188 867 111 792 q 422 942 264 943 l 589 942 q 824 866 749 942 q 900 631 900 790 l 900 311 q 824 76 900 151 q 589 0 749 0 l 422 0 m 589 117 q 706 135 665 117 q 765 194 747 153 q 783 311 783 235 l 783 631 q 765 747 783 706 q 706 807 747 789 q 589 825 664 825 l 422 825 q 306 808 347 826 q 246 749 264 790 q 228 632 228 707 l 228 311 q 246 194 228 235 q 305 135 264 153 q 422 117 346 117 l 589 117 m 506 1015 q 475 1023 483 1015 q 467 1053 467 1031 q 485 1113 467 1092 q 533 1153 504 1135 q 556 1168 551 1164 q 560 1181 560 1172 q 551 1220 560 1211 q 513 1229 542 1229 q 474 1220 483 1229 q 465 1181 465 1211 q 457 1150 465 1158 q 426 1142 449 1142 q 396 1150 404 1142 q 388 1181 388 1158 q 513 1306 388 1306 q 638 1181 638 1306 q 619 1122 638 1143 q 574 1085 601 1101 q 549 1068 554 1074 q 544 1053 544 1063 q 536 1023 544 1031 q 506 1015 528 1015 z "},"Ơ":{"ha":1011,"x_min":111,"x_max":978,"o":"m 924 965 q 964 951 950 965 q 978 911 978 938 l 978 893 q 879 774 978 799 q 900 631 900 713 l 900 311 q 824 76 900 151 q 589 0 749 0 l 422 0 q 187 76 263 0 q 111 311 111 151 l 111 632 q 188 867 111 792 q 422 942 264 943 l 589 942 q 838 851 761 942 q 863 864 856 854 q 869 893 869 874 l 869 929 q 924 965 869 965 m 783 631 q 765 747 783 706 q 706 807 747 789 q 589 825 664 825 l 422 825 q 306 808 347 826 q 246 749 264 790 q 228 632 228 707 l 228 311 q 246 194 228 235 q 305 135 264 153 q 422 117 346 117 l 589 117 q 706 135 665 117 q 765 194 747 153 q 783 311 783 235 l 783 631 z "},"Ớ":{"ha":1011,"x_min":111,"x_max":978,"o":"m 924 965 q 964 951 950 965 q 978 911 978 938 l 978 893 q 879 774 978 799 q 900 631 900 713 l 900 311 q 824 76 900 151 q 589 0 749 0 l 422 0 q 187 76 263 0 q 111 311 111 151 l 111 632 q 188 867 111 792 q 422 942 264 943 l 589 942 q 838 851 761 942 q 863 864 856 854 q 869 893 869 874 l 869 929 q 924 965 869 965 m 783 631 q 765 747 783 706 q 706 807 747 789 q 589 825 664 825 l 422 825 q 306 808 347 826 q 246 749 264 790 q 228 632 228 707 l 228 311 q 246 194 228 235 q 305 135 264 153 q 422 117 346 117 l 589 117 q 706 135 665 117 q 765 194 747 153 q 783 311 783 235 l 783 631 m 475 1028 q 456 1064 456 1043 q 469 1099 456 1083 l 571 1221 q 607 1240 586 1240 q 642 1226 626 1240 q 661 1190 661 1211 q 647 1156 661 1171 l 546 1033 q 510 1014 531 1014 q 475 1028 493 1014 z "},"Ợ":{"ha":1011,"x_min":111,"x_max":978,"o":"m 924 965 q 964 951 950 965 q 978 911 978 938 l 978 893 q 879 774 978 799 q 900 631 900 713 l 900 311 q 824 76 900 151 q 589 0 749 0 l 422 0 q 187 76 263 0 q 111 311 111 151 l 111 632 q 188 867 111 792 q 422 942 264 943 l 589 942 q 838 851 761 942 q 863 864 856 854 q 869 893 869 874 l 869 929 q 924 965 869 965 m 783 631 q 765 747 783 706 q 706 807 747 789 q 589 825 664 825 l 422 825 q 306 808 347 826 q 246 749 264 790 q 228 632 228 707 l 228 311 q 246 194 228 235 q 305 135 264 153 q 422 117 346 117 l 589 117 q 706 135 665 117 q 765 194 747 153 q 783 311 783 235 l 783 631 m 475 -218 q 434 -203 449 -218 q 419 -162 419 -189 l 419 -128 q 434 -87 419 -101 q 475 -74 449 -74 l 508 -74 q 561 -128 561 -74 l 561 -162 q 548 -203 561 -189 q 508 -218 535 -218 l 475 -218 z "},"Ờ":{"ha":1011,"x_min":111,"x_max":978,"o":"m 924 965 q 964 951 950 965 q 978 911 978 938 l 978 893 q 879 774 978 799 q 900 631 900 713 l 900 311 q 824 76 900 151 q 589 0 749 0 l 422 0 q 187 76 263 0 q 111 311 111 151 l 111 632 q 188 867 111 792 q 422 942 264 943 l 589 942 q 838 851 761 942 q 863 864 856 854 q 869 893 869 874 l 869 929 q 924 965 869 965 m 783 631 q 765 747 783 706 q 706 807 747 789 q 589 825 664 825 l 422 825 q 306 808 347 826 q 246 749 264 790 q 228 632 228 707 l 228 311 q 246 194 228 235 q 305 135 264 153 q 422 117 346 117 l 589 117 q 706 135 665 117 q 765 194 747 153 q 783 311 783 235 l 783 631 m 567 1003 q 532 989 549 989 q 496 1008 511 989 l 394 1131 q 381 1165 381 1146 q 400 1201 381 1186 q 435 1215 415 1215 q 471 1196 456 1215 l 572 1074 q 586 1039 586 1058 q 567 1003 586 1018 z "},"Ở":{"ha":1011,"x_min":111,"x_max":978,"o":"m 924 965 q 964 951 950 965 q 978 911 978 938 l 978 893 q 879 774 978 799 q 900 631 900 713 l 900 311 q 824 76 900 151 q 589 0 749 0 l 422 0 q 187 76 263 0 q 111 311 111 151 l 111 632 q 188 867 111 792 q 422 942 264 943 l 589 942 q 838 851 761 942 q 863 864 856 854 q 869 893 869 874 l 869 929 q 924 965 869 965 m 783 631 q 765 747 783 706 q 706 807 747 789 q 589 825 664 825 l 422 825 q 306 808 347 826 q 246 749 264 790 q 228 632 228 707 l 228 311 q 246 194 228 235 q 305 135 264 153 q 422 117 346 117 l 589 117 q 706 135 665 117 q 765 194 747 153 q 783 311 783 235 l 783 631 m 506 1015 q 475 1023 483 1015 q 467 1053 467 1031 q 485 1113 467 1092 q 533 1153 504 1135 q 556 1168 551 1164 q 560 1181 560 1172 q 551 1220 560 1211 q 513 1229 542 1229 q 474 1220 483 1229 q 465 1181 465 1211 q 457 1150 465 1158 q 426 1142 449 1142 q 396 1150 404 1142 q 388 1181 388 1158 q 513 1306 388 1306 q 638 1181 638 1306 q 619 1122 638 1143 q 574 1085 601 1101 q 549 1068 554 1074 q 544 1053 544 1063 q 536 1023 544 1031 q 506 1015 528 1015 z "},"Ỡ":{"ha":1011,"x_min":111,"x_max":978,"o":"m 924 965 q 964 951 950 965 q 978 911 978 938 l 978 893 q 879 774 978 799 q 900 631 900 713 l 900 311 q 824 76 900 151 q 589 0 749 0 l 422 0 q 187 76 263 0 q 111 311 111 151 l 111 632 q 188 867 111 792 q 422 942 264 943 l 589 942 q 838 851 761 942 q 863 864 856 854 q 869 893 869 874 l 869 929 q 924 965 869 965 m 783 631 q 765 747 783 706 q 706 807 747 789 q 589 825 664 825 l 422 825 q 306 808 347 826 q 246 749 264 790 q 228 632 228 707 l 228 311 q 246 194 228 235 q 305 135 264 153 q 422 117 346 117 l 589 117 q 706 135 665 117 q 765 194 747 153 q 783 311 783 235 l 783 631 m 606 1019 q 541 1035 565 1019 q 490 1076 517 1050 q 462 1101 472 1096 q 439 1107 451 1107 q 385 1064 403 1107 q 343 1028 369 1028 q 321 1032 333 1028 q 290 1067 290 1043 q 296 1090 290 1079 q 353 1174 319 1147 q 439 1200 388 1200 q 505 1184 479 1200 q 557 1142 531 1168 q 583 1119 575 1124 q 606 1114 592 1114 q 628 1121 619 1114 q 646 1149 638 1128 q 689 1188 661 1188 q 707 1185 693 1188 q 740 1149 740 1176 q 736 1128 740 1140 q 685 1046 717 1072 q 606 1019 653 1019 z "},"Ő":{"ha":1011,"x_min":111,"x_max":900,"o":"m 422 0 q 187 76 263 0 q 111 311 111 151 l 111 632 q 188 867 111 792 q 422 942 264 943 l 589 942 q 824 866 749 942 q 900 631 900 790 l 900 311 q 824 76 900 151 q 589 0 749 0 l 422 0 m 589 117 q 706 135 665 117 q 765 194 747 153 q 783 311 783 235 l 783 631 q 765 747 783 706 q 706 807 747 789 q 589 825 664 825 l 422 825 q 306 808 347 826 q 246 749 264 790 q 228 632 228 707 l 228 311 q 246 194 228 235 q 305 135 264 153 q 422 117 346 117 l 589 117 z "},"Ȏ":{"ha":1011,"x_min":111,"x_max":900,"o":"m 422 0 q 187 76 263 0 q 111 311 111 151 l 111 632 q 188 867 111 792 q 422 942 264 943 l 589 942 q 824 866 749 942 q 900 631 900 790 l 900 311 q 824 76 900 151 q 589 0 749 0 l 422 0 m 589 117 q 706 135 665 117 q 765 194 747 153 q 783 311 783 235 l 783 631 q 765 747 783 706 q 706 807 747 789 q 589 825 664 825 l 422 825 q 306 808 347 826 q 246 749 264 790 q 228 632 228 707 l 228 311 q 246 194 228 235 q 305 135 264 153 q 422 117 346 117 l 589 117 m 504 1281 q 646 1246 596 1281 q 696 1147 696 1211 l 696 1118 q 644 1067 696 1067 q 608 1076 621 1067 q 594 1101 594 1085 l 594 1147 q 577 1177 594 1168 q 514 1186 560 1186 q 435 1178 456 1186 q 415 1147 415 1169 l 415 1118 q 364 1067 415 1067 q 327 1080 340 1067 q 314 1118 314 1093 l 314 1147 q 363 1246 314 1211 q 504 1281 413 1281 z "},"Ō":{"ha":1011,"x_min":111,"x_max":900,"o":"m 422 0 q 187 76 263 0 q 111 311 111 151 l 111 632 q 188 867 111 792 q 422 942 264 943 l 589 942 q 824 866 749 942 q 900 631 900 790 l 900 311 q 824 76 900 151 q 589 0 749 0 l 422 0 m 589 117 q 706 135 665 117 q 765 194 747 153 q 783 311 783 235 l 783 631 q 765 747 783 706 q 706 807 747 789 q 589 825 664 825 l 422 825 q 306 808 347 826 q 246 749 264 790 q 228 632 228 707 l 228 311 q 246 194 228 235 q 305 135 264 153 q 422 117 346 117 l 589 117 m 322 1058 q 264 1117 264 1058 q 322 1175 264 1175 l 674 1175 q 732 1117 732 1175 q 674 1058 732 1058 l 322 1058 z "},"Ǫ":{"ha":1011,"x_min":111,"x_max":900,"o":"m 663 -78 q 647 -111 647 -94 q 659 -133 647 -125 q 689 -142 671 -142 q 756 -108 725 -142 q 792 -94 775 -94 q 828 -109 814 -94 q 843 -144 843 -124 q 829 -181 843 -167 q 763 -226 799 -210 q 689 -243 726 -243 q 587 -205 628 -243 q 546 -111 546 -167 q 581 -18 546 -64 l 593 0 l 589 0 l 422 0 q 187 76 263 0 q 111 311 111 151 l 111 632 q 188 867 111 792 q 422 942 264 943 l 589 942 q 824 866 749 942 q 900 631 900 790 l 900 311 q 858 120 900 192 q 729 19 817 49 l 663 -78 m 589 117 q 706 135 665 117 q 765 194 747 153 q 783 311 783 235 l 783 631 q 765 747 783 706 q 706 807 747 789 q 589 825 664 825 l 422 825 q 306 808 347 826 q 246 749 264 790 q 228 632 228 707 l 228 311 q 246 194 228 235 q 305 135 264 153 q 422 117 346 117 l 589 117 z "},"Ø":{"ha":1011,"x_min":111,"x_max":900,"o":"m 800 886 q 900 631 900 813 l 900 311 q 824 76 900 151 q 589 0 749 0 l 422 0 q 275 22 333 0 l 253 -14 q 210 -43 235 -43 q 178 -32 196 -43 q 149 13 149 -14 q 158 43 149 28 l 182 82 q 111 311 111 157 l 111 632 q 188 867 111 792 q 422 942 264 943 l 589 942 q 701 931 649 942 l 721 963 q 764 992 740 992 q 796 981 778 992 q 824 939 824 961 q 813 906 824 925 l 800 886 m 228 311 q 247 189 228 229 l 636 824 q 589 825 621 825 l 422 825 q 306 808 347 826 q 246 749 264 790 q 228 632 228 707 l 228 311 m 783 631 q 773 726 783 688 q 739 785 763 764 l 338 124 q 422 117 376 117 l 589 117 q 706 135 665 117 q 765 194 747 153 q 783 311 783 235 l 783 631 z "},"Ǿ":{"ha":1011,"x_min":111,"x_max":900,"o":"m 800 886 q 900 631 900 813 l 900 311 q 824 76 900 151 q 589 0 749 0 l 422 0 q 275 22 333 0 l 253 -14 q 210 -43 235 -43 q 178 -32 196 -43 q 149 13 149 -14 q 158 43 149 28 l 182 82 q 111 311 111 157 l 111 632 q 188 867 111 792 q 422 942 264 943 l 589 942 q 701 931 649 942 l 721 963 q 764 992 740 992 q 796 981 778 992 q 824 939 824 961 q 813 906 824 925 l 800 886 m 228 311 q 247 189 228 229 l 636 824 q 589 825 621 825 l 422 825 q 306 808 347 826 q 246 749 264 790 q 228 632 228 707 l 228 311 m 783 631 q 773 726 783 688 q 739 785 763 764 l 338 124 q 422 117 376 117 l 589 117 q 706 135 665 117 q 765 194 747 153 q 783 311 783 235 l 783 631 m 475 1028 q 456 1064 456 1043 q 469 1099 456 1083 l 571 1221 q 607 1240 586 1240 q 642 1226 626 1240 q 661 1190 661 1211 q 647 1156 661 1171 l 546 1033 q 510 1014 531 1014 q 475 1028 493 1014 z "},"Õ":{"ha":1011,"x_min":111,"x_max":900,"o":"m 422 0 q 187 76 263 0 q 111 311 111 151 l 111 632 q 188 867 111 792 q 422 942 264 943 l 589 942 q 824 866 749 942 q 900 631 900 790 l 900 311 q 824 76 900 151 q 589 0 749 0 l 422 0 m 589 117 q 706 135 665 117 q 765 194 747 153 q 783 311 783 235 l 783 631 q 765 747 783 706 q 706 807 747 789 q 589 825 664 825 l 422 825 q 306 808 347 826 q 246 749 264 790 q 228 632 228 707 l 228 311 q 246 194 228 235 q 305 135 264 153 q 422 117 346 117 l 589 117 m 606 1019 q 541 1035 565 1019 q 490 1076 517 1050 q 462 1101 472 1096 q 439 1107 451 1107 q 385 1064 403 1107 q 343 1028 369 1028 q 321 1032 333 1028 q 290 1067 290 1043 q 296 1090 290 1079 q 353 1174 319 1147 q 439 1200 388 1200 q 505 1184 479 1200 q 557 1142 531 1168 q 583 1119 575 1124 q 606 1114 592 1114 q 628 1121 619 1114 q 646 1149 638 1128 q 689 1188 661 1188 q 707 1185 693 1188 q 740 1149 740 1176 q 736 1128 740 1140 q 685 1046 717 1072 q 606 1019 653 1019 z "},"Ȭ":{"ha":1011,"x_min":111,"x_max":900,"o":"m 422 0 q 187 76 263 0 q 111 311 111 151 l 111 632 q 188 867 111 792 q 422 942 264 943 l 589 942 q 824 866 749 942 q 900 631 900 790 l 900 311 q 824 76 900 151 q 589 0 749 0 l 422 0 m 589 117 q 706 135 665 117 q 765 194 747 153 q 783 311 783 235 l 783 631 q 765 747 783 706 q 706 807 747 789 q 589 825 664 825 l 422 825 q 306 808 347 826 q 246 749 264 790 q 228 632 228 707 l 228 311 q 246 194 228 235 q 305 135 264 153 q 422 117 346 117 l 589 117 m 606 1019 q 541 1035 565 1019 q 490 1076 517 1050 q 462 1101 472 1096 q 439 1107 451 1107 q 385 1064 403 1107 q 343 1028 369 1028 q 321 1032 333 1028 q 290 1067 290 1043 q 296 1090 290 1079 q 353 1174 319 1147 q 439 1200 388 1200 q 505 1184 479 1200 q 557 1142 531 1168 q 583 1119 575 1124 q 606 1114 592 1114 q 628 1121 619 1114 q 646 1149 638 1128 q 689 1188 661 1188 q 707 1185 693 1188 q 740 1149 740 1176 q 736 1128 740 1140 q 685 1046 717 1072 q 606 1019 653 1019 m 322 1294 q 264 1353 264 1294 q 322 1411 264 1411 l 674 1411 q 732 1353 732 1411 q 674 1294 732 1294 l 322 1294 z "},"Œ":{"ha":1238,"x_min":111,"x_max":1160,"o":"m 1101 117 q 1144 101 1129 117 q 1160 58 1160 86 q 1144 15 1160 31 q 1101 0 1129 0 l 422 0 q 187 76 263 0 q 111 311 111 151 l 111 632 q 187 867 111 792 q 422 942 263 942 l 1101 942 q 1144 926 1129 942 q 1160 883 1160 911 q 1144 840 1160 856 q 1101 825 1129 825 l 700 825 l 700 533 l 938 533 q 981 518 965 533 q 996 475 996 503 q 981 432 996 447 q 938 417 965 417 l 700 417 l 700 117 l 1101 117 m 228 311 q 246 194 228 235 q 305 135 264 153 q 422 117 346 117 l 583 117 l 583 825 l 422 825 q 306 808 347 825 q 246 749 264 790 q 228 632 228 707 l 228 311 z "},"P":{"ha":851,"x_min":144,"x_max":790,"o":"m 528 942 q 723 874 656 942 q 790 679 790 807 l 790 638 q 723 443 790 511 q 528 375 656 375 l 261 375 l 261 58 q 246 15 261 31 q 203 0 231 0 q 160 15 175 0 q 144 58 144 31 l 144 883 q 160 926 144 911 q 203 942 175 942 l 528 942 m 674 679 q 640 791 674 757 q 528 825 607 825 l 261 825 l 261 492 l 528 492 q 640 525 607 492 q 674 638 674 558 l 674 679 z "},"Þ":{"ha":785,"x_min":144,"x_max":724,"o":"m 461 799 q 656 731 589 799 q 724 536 724 664 l 724 494 q 656 300 724 368 q 461 232 589 232 l 261 232 l 261 58 q 246 15 261 31 q 203 0 231 0 q 160 15 175 0 q 144 58 144 31 l 144 883 q 160 926 144 911 q 203 942 175 942 q 246 926 231 942 q 261 883 261 911 l 261 799 l 461 799 m 607 536 q 574 649 607 615 q 461 682 540 682 l 261 682 l 261 349 l 461 349 q 574 382 540 349 q 607 494 607 415 l 607 536 z "},"Q":{"ha":1018,"x_min":111,"x_max":907,"o":"m 893 -31 q 907 -62 907 -44 q 889 -99 907 -82 q 856 -114 871 -114 q 819 -97 839 -114 l 714 15 q 589 0 664 0 l 422 0 q 187 76 263 0 q 111 311 111 151 l 111 632 q 188 867 111 792 q 422 942 264 943 l 589 942 q 824 866 749 942 q 900 631 900 790 l 900 311 q 807 60 900 136 l 893 -31 m 617 117 l 581 156 q 565 189 565 171 q 582 224 565 207 q 617 240 599 240 q 653 222 632 240 l 726 146 q 770 206 757 167 q 783 311 783 246 l 783 631 q 765 747 783 706 q 706 807 747 789 q 589 825 664 825 l 422 825 q 306 808 347 826 q 246 749 264 790 q 228 632 228 707 l 228 311 q 246 194 228 235 q 305 135 264 153 q 422 117 346 117 l 589 117 l 617 117 z "},"R":{"ha":868,"x_min":144,"x_max":790,"o":"m 790 638 q 739 461 790 528 q 590 379 688 394 l 772 76 q 781 46 781 63 q 750 -3 781 15 q 718 -14 732 -14 q 671 17 690 -14 l 460 368 l 456 375 l 261 375 l 261 58 q 246 15 261 31 q 203 0 231 0 q 160 15 175 0 q 144 58 144 31 l 144 883 q 160 926 144 911 q 203 942 175 942 l 528 942 q 723 874 656 942 q 790 679 790 807 l 790 638 m 674 679 q 640 791 674 757 q 528 825 607 825 l 261 825 l 261 492 l 528 492 q 640 525 607 492 q 674 638 674 558 l 674 679 z "},"Ŕ":{"ha":868,"x_min":144,"x_max":790,"o":"m 790 638 q 739 461 790 528 q 590 379 688 394 l 772 76 q 781 46 781 63 q 750 -3 781 15 q 718 -14 732 -14 q 671 17 690 -14 l 460 368 l 456 375 l 261 375 l 261 58 q 246 15 261 31 q 203 0 231 0 q 160 15 175 0 q 144 58 144 31 l 144 883 q 160 926 144 911 q 203 942 175 942 l 528 942 q 723 874 656 942 q 790 679 790 807 l 790 638 m 674 679 q 640 791 674 757 q 528 825 607 825 l 261 825 l 261 492 l 528 492 q 640 525 607 492 q 674 638 674 558 l 674 679 m 404 1028 q 385 1064 385 1043 q 399 1099 385 1083 l 500 1221 q 536 1240 515 1240 q 571 1226 556 1240 q 590 1190 590 1211 q 576 1156 590 1171 l 475 1033 q 439 1014 460 1014 q 404 1028 422 1014 z "},"Ř":{"ha":868,"x_min":144,"x_max":790,"o":"m 790 638 q 739 461 790 528 q 590 379 688 394 l 772 76 q 781 46 781 63 q 750 -3 781 15 q 718 -14 732 -14 q 671 17 690 -14 l 460 368 l 456 375 l 261 375 l 261 58 q 246 15 261 31 q 203 0 231 0 q 160 15 175 0 q 144 58 144 31 l 144 883 q 160 926 144 911 q 203 942 175 942 l 528 942 q 723 874 656 942 q 790 679 790 807 l 790 638 m 674 679 q 640 791 674 757 q 528 825 607 825 l 261 825 l 261 492 l 528 492 q 640 525 607 492 q 674 638 674 558 l 674 679 m 253 1221 q 292 1204 275 1221 l 419 1097 l 421 1097 l 550 1204 q 589 1221 567 1221 q 626 1206 610 1221 q 642 1168 642 1190 q 635 1142 642 1156 q 617 1122 628 1129 l 488 1017 q 457 997 472 1003 q 422 992 442 992 l 418 992 q 353 1017 382 992 l 225 1122 q 207 1142 214 1129 q 200 1168 200 1156 q 215 1206 200 1190 q 253 1221 231 1221 z "},"Ŗ":{"ha":868,"x_min":144,"x_max":790,"o":"m 790 638 q 739 461 790 528 q 590 379 688 394 l 772 76 q 781 46 781 63 q 750 -3 781 15 q 718 -14 732 -14 q 671 17 690 -14 l 460 368 l 456 375 l 261 375 l 261 58 q 246 15 261 31 q 203 0 231 0 q 160 15 175 0 q 144 58 144 31 l 144 883 q 160 926 144 911 q 203 942 175 942 l 528 942 q 723 874 656 942 q 790 679 790 807 l 790 638 m 674 679 q 640 791 674 757 q 528 825 607 825 l 261 825 l 261 492 l 528 492 q 640 525 607 492 q 674 638 674 558 l 674 679 m 525 -140 q 522 -160 525 -149 l 457 -293 q 419 -317 443 -317 q 390 -308 401 -317 q 381 -279 378 -299 l 411 -112 q 423 -83 411 -93 q 456 -72 435 -72 l 482 -72 q 525 -114 525 -72 l 525 -140 z "},"Ȑ":{"ha":868,"x_min":144,"x_max":790,"o":"m 257 1171 q 243 1203 243 1185 q 261 1235 243 1221 q 292 1247 275 1247 q 325 1229 311 1247 l 417 1119 q 429 1089 429 1106 q 411 1056 429 1069 q 379 1042 396 1042 q 347 1060 361 1042 l 257 1171 m 418 1171 q 404 1203 404 1185 q 422 1235 404 1221 q 453 1247 438 1247 q 486 1229 472 1247 l 578 1119 q 590 1089 590 1106 q 572 1056 590 1069 q 540 1042 557 1042 q 508 1060 522 1042 l 418 1171 m 790 638 q 739 461 790 528 q 590 379 688 394 l 772 76 q 781 46 781 63 q 750 -3 781 15 q 718 -14 732 -14 q 671 17 690 -14 l 460 368 l 456 375 l 261 375 l 261 58 q 246 15 261 31 q 203 0 231 0 q 160 15 175 0 q 144 58 144 31 l 144 883 q 160 926 144 911 q 203 942 175 942 l 528 942 q 723 874 656 942 q 790 679 790 807 l 790 638 m 674 679 q 640 791 674 757 q 528 825 607 825 l 261 825 l 261 492 l 528 492 q 640 525 607 492 q 674 638 674 558 l 674 679 z "},"Ȓ":{"ha":868,"x_min":144,"x_max":790,"o":"m 790 638 q 739 461 790 528 q 590 379 688 394 l 772 76 q 781 46 781 63 q 750 -3 781 15 q 718 -14 732 -14 q 671 17 690 -14 l 460 368 l 456 375 l 261 375 l 261 58 q 246 15 261 31 q 203 0 231 0 q 160 15 175 0 q 144 58 144 31 l 144 883 q 160 926 144 911 q 203 942 175 942 l 528 942 q 723 874 656 942 q 790 679 790 807 l 790 638 m 674 679 q 640 791 674 757 q 528 825 607 825 l 261 825 l 261 492 l 528 492 q 640 525 607 492 q 674 638 674 558 l 674 679 m 433 1281 q 575 1246 525 1281 q 625 1147 625 1211 l 625 1118 q 574 1067 625 1067 q 537 1076 550 1067 q 524 1101 524 1085 l 524 1147 q 506 1177 524 1168 q 443 1186 489 1186 q 365 1178 385 1186 q 344 1147 344 1169 l 344 1118 q 293 1067 344 1067 q 256 1080 269 1067 q 243 1118 243 1093 l 243 1147 q 292 1246 243 1211 q 433 1281 342 1281 z "},"S":{"ha":961,"x_min":108,"x_max":850,"o":"m 379 0 q 194 48 260 0 q 111 196 128 96 q 124 241 108 225 q 168 257 139 257 q 210 244 196 257 q 229 200 224 231 q 273 135 239 153 q 379 117 307 117 l 579 117 q 673 131 640 117 q 719 177 706 144 q 733 269 733 210 q 700 392 733 358 q 579 425 667 425 l 407 425 q 213 489 276 425 q 149 685 149 553 q 212 878 149 815 q 406 942 275 942 l 571 942 q 824 758 790 942 q 813 713 828 729 q 767 697 797 697 q 725 711 739 697 q 707 754 711 725 q 665 810 696 794 q 571 825 635 825 l 406 825 q 319 813 349 825 q 277 770 289 800 q 265 685 265 740 q 278 598 265 628 q 320 555 290 568 q 407 542 350 542 l 579 542 q 783 475 717 542 q 850 269 850 408 q 783 66 850 132 q 579 0 717 0 l 379 0 z "},"Ś":{"ha":961,"x_min":111,"x_max":850,"o":"m 379 0 q 194 48 260 0 q 111 196 128 96 q 124 241 108 225 q 168 257 139 257 q 210 244 196 257 q 229 200 224 231 q 273 135 239 153 q 379 117 307 117 l 579 117 q 673 131 640 117 q 719 177 706 144 q 733 269 733 210 q 700 392 733 358 q 579 425 667 425 l 407 425 q 213 489 276 425 q 149 685 149 553 q 212 878 149 815 q 406 942 275 942 l 571 942 q 824 758 790 942 q 813 713 828 729 q 767 697 797 697 q 725 711 739 697 q 707 754 711 725 q 665 810 696 794 q 571 825 635 825 l 406 825 q 319 813 349 825 q 277 770 289 800 q 265 685 265 740 q 278 598 265 628 q 320 555 290 568 q 407 542 350 542 l 579 542 q 783 475 717 542 q 850 269 850 408 q 783 66 850 132 q 579 0 717 0 l 379 0 m 460 1028 q 440 1064 440 1043 q 454 1099 440 1083 l 556 1221 q 592 1240 571 1240 q 626 1226 611 1240 q 646 1190 646 1211 q 632 1156 646 1171 l 531 1033 q 494 1014 515 1014 q 460 1028 478 1014 z "},"Š":{"ha":961,"x_min":111,"x_max":850,"o":"m 379 0 q 194 48 260 0 q 111 196 128 96 q 124 241 108 225 q 168 257 139 257 q 210 244 196 257 q 229 200 224 231 q 273 135 239 153 q 379 117 307 117 l 579 117 q 673 131 640 117 q 719 177 706 144 q 733 269 733 210 q 700 392 733 358 q 579 425 667 425 l 407 425 q 213 489 276 425 q 149 685 149 553 q 212 878 149 815 q 406 942 275 942 l 571 942 q 824 758 790 942 q 813 713 828 729 q 767 697 797 697 q 725 711 739 697 q 707 754 711 725 q 665 810 696 794 q 571 825 635 825 l 406 825 q 319 813 349 825 q 277 770 289 800 q 265 685 265 740 q 278 598 265 628 q 320 555 290 568 q 407 542 350 542 l 579 542 q 783 475 717 542 q 850 269 850 408 q 783 66 850 132 q 579 0 717 0 l 379 0 m 308 1221 q 347 1204 331 1221 l 475 1097 l 476 1097 l 606 1204 q 644 1221 622 1221 q 681 1206 665 1221 q 697 1168 697 1190 q 690 1142 697 1156 q 672 1122 683 1129 l 543 1017 q 513 997 528 1003 q 478 992 497 992 l 474 992 q 408 1017 438 992 l 281 1122 q 263 1142 269 1129 q 256 1168 256 1156 q 271 1206 256 1190 q 308 1221 286 1221 z "},"Ş":{"ha":961,"x_min":108,"x_max":850,"o":"m 850 269 q 787 69 850 135 q 592 0 724 3 q 617 -21 594 -3 q 667 -66 647 -40 q 688 -135 688 -92 q 525 -297 688 -297 q 425 -262 460 -297 q 390 -162 390 -228 q 439 -114 390 -114 q 488 -162 488 -114 q 494 -194 488 -187 q 525 -200 500 -200 q 578 -188 565 -200 q 590 -135 590 -176 q 585 -119 590 -125 q 563 -100 581 -112 q 516 -60 536 -83 q 490 0 496 -37 l 379 0 q 194 48 260 0 q 111 196 128 96 q 124 241 108 225 q 168 257 139 257 q 210 244 196 257 q 229 200 224 231 q 273 135 239 153 q 379 117 307 117 l 579 117 q 673 131 640 117 q 719 177 706 144 q 733 269 733 210 q 700 392 733 358 q 579 425 667 425 l 407 425 q 213 489 276 425 q 149 685 149 553 q 212 878 149 815 q 406 942 275 942 l 571 942 q 824 758 790 942 q 813 713 828 729 q 767 697 797 697 q 725 711 739 697 q 707 754 711 725 q 665 810 696 794 q 571 825 635 825 l 406 825 q 319 813 349 825 q 277 770 289 800 q 265 685 265 740 q 278 598 265 628 q 320 555 290 568 q 407 542 350 542 l 579 542 q 783 475 717 542 q 850 269 850 408 z "},"Ŝ":{"ha":961,"x_min":111,"x_max":850,"o":"m 379 0 q 194 48 260 0 q 111 196 128 96 q 124 241 108 225 q 168 257 139 257 q 210 244 196 257 q 229 200 224 231 q 273 135 239 153 q 379 117 307 117 l 579 117 q 673 131 640 117 q 719 177 706 144 q 733 269 733 210 q 700 392 733 358 q 579 425 667 425 l 407 425 q 213 489 276 425 q 149 685 149 553 q 212 878 149 815 q 406 942 275 942 l 571 942 q 824 758 790 942 q 813 713 828 729 q 767 697 797 697 q 725 711 739 697 q 707 754 711 725 q 665 810 696 794 q 571 825 635 825 l 406 825 q 319 813 349 825 q 277 770 289 800 q 265 685 265 740 q 278 598 265 628 q 320 555 290 568 q 407 542 350 542 l 579 542 q 783 475 717 542 q 850 269 850 408 q 783 66 850 132 q 579 0 717 0 l 379 0 m 360 1015 q 326 1030 340 1015 q 311 1064 311 1044 q 325 1097 311 1083 l 426 1199 q 488 1225 451 1225 l 496 1225 q 557 1199 532 1225 l 658 1097 q 672 1064 672 1083 q 658 1030 672 1044 q 624 1015 643 1015 q 589 1029 601 1015 l 500 1128 l 483 1128 l 394 1029 q 360 1015 381 1015 z "},"Ș":{"ha":961,"x_min":111,"x_max":850,"o":"m 379 0 q 194 48 260 0 q 111 196 128 96 q 124 241 108 225 q 168 257 139 257 q 210 244 196 257 q 229 200 224 231 q 273 135 239 153 q 379 117 307 117 l 579 117 q 673 131 640 117 q 719 177 706 144 q 733 269 733 210 q 700 392 733 358 q 579 425 667 425 l 407 425 q 213 489 276 425 q 149 685 149 553 q 212 878 149 815 q 406 942 275 942 l 571 942 q 824 758 790 942 q 813 713 828 729 q 767 697 797 697 q 725 711 739 697 q 707 754 711 725 q 665 810 696 794 q 571 825 635 825 l 406 825 q 319 813 349 825 q 277 770 289 800 q 265 685 265 740 q 278 598 265 628 q 320 555 290 568 q 407 542 350 542 l 579 542 q 783 475 717 542 q 850 269 850 408 q 783 66 850 132 q 579 0 717 0 l 379 0 m 581 -140 q 578 -160 581 -149 l 513 -293 q 475 -317 499 -317 q 445 -308 457 -317 q 436 -279 433 -299 l 467 -112 q 478 -83 467 -93 q 511 -72 490 -72 l 538 -72 q 581 -114 581 -72 l 581 -140 z "},"ẞ":{"ha":846,"x_min":144,"x_max":735,"o":"m 203 -28 q 163 -10 181 -28 q 144 31 144 8 l 144 667 q 208 860 144 797 q 401 924 271 924 l 413 924 q 600 865 538 924 q 668 688 663 807 q 662 649 668 665 q 640 614 656 632 l 569 536 q 695 392 656 467 q 735 224 735 317 q 673 35 735 97 q 483 -28 611 -28 l 386 -28 q 346 -10 364 -28 q 328 31 328 8 q 345 72 328 54 q 386 89 363 89 l 483 89 q 566 101 538 89 q 606 142 594 113 q 618 224 618 171 q 579 358 618 300 q 447 479 540 415 l 447 571 l 551 690 q 518 782 549 757 q 413 807 488 807 l 401 807 q 316 794 346 807 q 274 752 286 782 q 261 667 261 722 l 261 31 q 244 -10 261 8 q 203 -28 226 -28 z "},"Ə":{"ha":1011,"x_min":111,"x_max":900,"o":"m 422 0 q 187 76 263 0 q 111 311 111 151 l 111 457 l 783 457 l 783 625 q 765 742 783 700 q 706 801 747 783 q 589 819 664 819 l 422 819 q 306 801 347 819 q 246 742 264 783 q 228 625 228 700 q 210 583 228 600 q 169 567 193 567 q 128 583 146 567 q 111 625 111 600 q 187 860 111 785 q 422 936 263 936 l 589 936 q 824 860 749 936 q 900 625 900 785 l 900 311 q 824 76 900 151 q 589 0 749 0 l 422 0 m 589 117 q 706 135 665 117 q 765 194 747 153 q 783 311 783 235 l 783 340 l 228 340 l 228 311 q 246 194 228 235 q 305 135 264 153 q 422 117 346 117 l 589 117 z "},"T":{"ha":853,"x_min":40,"x_max":813,"o":"m 426 0 q 368 58 368 0 l 368 824 l 99 824 q 40 882 40 824 q 99 940 40 940 l 754 940 q 813 882 813 940 q 754 824 813 824 l 485 824 l 485 58 q 469 15 485 31 q 426 0 454 0 z "},"Ŧ":{"ha":853,"x_min":40,"x_max":813,"o":"m 754 940 q 813 882 813 940 q 754 824 813 824 l 485 824 l 485 519 l 610 519 q 646 507 633 519 q 658 471 658 494 q 646 435 658 447 q 610 422 633 422 l 485 422 l 485 58 q 469 15 485 31 q 426 0 454 0 q 368 58 368 0 l 368 422 l 246 422 q 210 435 224 422 q 197 471 197 449 q 210 507 197 494 q 246 519 224 519 l 368 519 l 368 824 l 99 824 q 40 882 40 824 q 99 940 40 940 l 754 940 z "},"Ť":{"ha":853,"x_min":40,"x_max":813,"o":"m 426 0 q 368 58 368 0 l 368 824 l 99 824 q 40 882 40 824 q 99 940 40 940 l 754 940 q 813 882 813 940 q 754 824 813 824 l 485 824 l 485 58 q 469 15 485 31 q 426 0 454 0 m 244 1221 q 283 1204 267 1221 l 411 1097 l 413 1097 l 542 1204 q 581 1221 558 1221 q 617 1206 601 1221 q 633 1168 633 1190 q 626 1142 633 1156 q 608 1122 619 1129 l 479 1017 q 449 997 464 1003 q 414 992 433 992 l 410 992 q 344 1017 374 992 l 217 1122 q 199 1142 206 1129 q 192 1168 192 1156 q 207 1206 192 1190 q 244 1221 222 1221 z "},"Ţ":{"ha":853,"x_min":40,"x_max":813,"o":"m 754 940 q 813 882 813 940 q 754 824 813 824 l 485 824 l 485 58 q 476 24 485 39 l 476 21 q 481 1 476 8 q 507 -21 486 -7 q 558 -66 538 -40 q 578 -135 578 -92 q 415 -297 578 -297 q 315 -262 350 -297 q 281 -162 281 -228 q 329 -114 281 -114 q 378 -162 378 -114 q 384 -194 378 -187 q 415 -200 390 -200 q 468 -188 456 -200 q 481 -135 481 -176 q 476 -119 481 -125 q 453 -100 471 -112 q 402 -55 424 -82 q 379 18 381 -28 q 368 58 368 33 l 368 824 l 99 824 q 40 882 40 824 q 99 940 40 940 l 754 940 z "},"Ț":{"ha":853,"x_min":40,"x_max":813,"o":"m 426 0 q 368 58 368 0 l 368 824 l 99 824 q 40 882 40 824 q 99 940 40 940 l 754 940 q 813 882 813 940 q 754 824 813 824 l 485 824 l 485 58 q 469 15 485 31 q 426 0 454 0 m 471 -140 q 468 -160 471 -149 l 403 -293 q 365 -317 389 -317 q 335 -308 347 -317 q 326 -279 324 -299 l 357 -112 q 369 -83 357 -93 q 401 -72 381 -72 l 428 -72 q 471 -114 471 -72 l 471 -140 z "},"U":{"ha":1050,"x_min":131,"x_max":919,"o":"m 442 0 q 206 76 282 0 q 131 311 131 151 l 131 883 q 189 942 131 942 q 247 883 247 942 l 247 311 q 265 194 247 235 q 324 135 283 153 q 442 117 365 117 l 608 117 q 726 135 685 117 q 785 194 767 153 q 803 311 803 235 l 803 883 q 861 942 803 942 q 919 883 919 942 l 919 311 q 844 76 919 151 q 608 0 768 0 l 442 0 z "},"Ú":{"ha":1050,"x_min":131,"x_max":919,"o":"m 442 0 q 206 76 282 0 q 131 311 131 151 l 131 883 q 189 942 131 942 q 247 883 247 942 l 247 311 q 265 194 247 235 q 324 135 283 153 q 442 117 365 117 l 608 117 q 726 135 685 117 q 785 194 767 153 q 803 311 803 235 l 803 883 q 861 942 803 942 q 919 883 919 942 l 919 311 q 844 76 919 151 q 608 0 768 0 l 442 0 m 494 1028 q 475 1064 475 1043 q 489 1099 475 1083 l 590 1221 q 626 1240 606 1240 q 661 1226 646 1240 q 681 1190 681 1211 q 667 1156 681 1171 l 565 1033 q 529 1014 550 1014 q 494 1028 513 1014 z "},"Ŭ":{"ha":1050,"x_min":131,"x_max":919,"o":"m 442 0 q 206 76 282 0 q 131 311 131 151 l 131 883 q 189 942 131 942 q 247 883 247 942 l 247 311 q 265 194 247 235 q 324 135 283 153 q 442 117 365 117 l 608 117 q 726 135 685 117 q 785 194 767 153 q 803 311 803 235 l 803 883 q 861 942 803 942 q 919 883 919 942 l 919 311 q 844 76 919 151 q 608 0 768 0 l 442 0 m 546 1007 q 405 1042 454 1007 q 356 1140 356 1076 l 356 1169 q 369 1208 356 1194 q 406 1221 382 1221 q 457 1169 457 1221 l 457 1140 q 477 1110 457 1118 q 556 1101 497 1101 q 619 1110 601 1101 q 636 1140 636 1119 l 636 1186 q 649 1212 636 1203 q 686 1221 663 1221 q 738 1169 738 1221 l 738 1140 q 688 1042 738 1076 q 546 1007 638 1007 z "},"Û":{"ha":1050,"x_min":131,"x_max":919,"o":"m 442 0 q 206 76 282 0 q 131 311 131 151 l 131 883 q 189 942 131 942 q 247 883 247 942 l 247 311 q 265 194 247 235 q 324 135 283 153 q 442 117 365 117 l 608 117 q 726 135 685 117 q 785 194 767 153 q 803 311 803 235 l 803 883 q 861 942 803 942 q 919 883 919 942 l 919 311 q 844 76 919 151 q 608 0 768 0 l 442 0 m 357 999 q 319 1014 335 999 q 304 1051 304 1029 q 311 1077 304 1064 q 329 1097 318 1090 l 457 1203 q 522 1228 486 1228 l 526 1228 q 561 1222 546 1228 q 592 1203 576 1217 l 721 1097 q 739 1077 732 1090 q 746 1051 746 1064 q 730 1014 746 1029 q 693 999 714 999 q 654 1015 671 999 l 525 1122 l 524 1122 l 396 1015 q 357 999 379 999 z "},"Ȕ":{"ha":1050,"x_min":131,"x_max":919,"o":"m 501 1056 q 469 1042 486 1042 q 438 1060 451 1042 l 347 1171 q 333 1203 333 1185 q 351 1235 333 1221 q 382 1247 367 1247 q 415 1229 401 1247 l 507 1119 q 519 1089 519 1106 q 501 1056 519 1069 m 663 1056 q 631 1042 647 1042 q 599 1060 613 1042 l 508 1171 q 494 1203 494 1185 q 513 1235 494 1221 q 543 1247 526 1247 q 576 1229 563 1247 l 668 1119 q 681 1089 681 1106 q 663 1056 681 1069 m 442 0 q 206 76 282 0 q 131 311 131 151 l 131 883 q 189 942 131 942 q 247 883 247 942 l 247 311 q 265 194 247 235 q 324 135 283 153 q 442 117 365 117 l 608 117 q 726 135 685 117 q 785 194 767 153 q 803 311 803 235 l 803 883 q 861 942 803 942 q 919 883 919 942 l 919 311 q 844 76 919 151 q 608 0 768 0 l 442 0 z "},"Ü":{"ha":1050,"x_min":131,"x_max":919,"o":"m 442 0 q 206 76 282 0 q 131 311 131 151 l 131 883 q 189 942 131 942 q 247 883 247 942 l 247 311 q 265 194 247 235 q 324 135 283 153 q 442 117 365 117 l 608 117 q 726 135 685 117 q 785 194 767 153 q 803 311 803 235 l 803 883 q 861 942 803 942 q 919 883 919 942 l 919 311 q 844 76 919 151 q 608 0 768 0 l 442 0 m 394 1044 q 353 1059 368 1044 q 339 1100 339 1074 l 339 1135 q 353 1175 339 1161 q 394 1189 368 1189 l 428 1189 q 481 1135 481 1189 l 481 1100 q 467 1059 481 1074 q 428 1044 454 1044 l 394 1044 m 626 1044 q 585 1059 600 1044 q 571 1100 571 1074 l 571 1135 q 585 1175 571 1161 q 626 1189 600 1189 l 660 1189 q 713 1135 713 1189 l 713 1100 q 699 1059 713 1074 q 660 1044 686 1044 l 626 1044 z "},"Ụ":{"ha":1050,"x_min":131,"x_max":919,"o":"m 442 0 q 206 76 282 0 q 131 311 131 151 l 131 883 q 189 942 131 942 q 247 883 247 942 l 247 311 q 265 194 247 235 q 324 135 283 153 q 442 117 365 117 l 608 117 q 726 135 685 117 q 785 194 767 153 q 803 311 803 235 l 803 883 q 861 942 803 942 q 919 883 919 942 l 919 311 q 844 76 919 151 q 608 0 768 0 l 442 0 m 510 -218 q 469 -203 483 -218 q 454 -162 454 -189 l 454 -128 q 469 -87 454 -101 q 510 -74 483 -74 l 543 -74 q 596 -128 596 -74 l 596 -162 q 583 -203 596 -189 q 543 -218 569 -218 l 510 -218 z "},"Ù":{"ha":1050,"x_min":131,"x_max":919,"o":"m 442 0 q 206 76 282 0 q 131 311 131 151 l 131 883 q 189 942 131 942 q 247 883 247 942 l 247 311 q 265 194 247 235 q 324 135 283 153 q 442 117 365 117 l 608 117 q 726 135 685 117 q 785 194 767 153 q 803 311 803 235 l 803 883 q 861 942 803 942 q 919 883 919 942 l 919 311 q 844 76 919 151 q 608 0 768 0 l 442 0 m 586 1003 q 551 989 568 989 q 515 1008 531 989 l 414 1131 q 400 1165 400 1146 q 419 1201 400 1186 q 454 1215 435 1215 q 490 1196 475 1215 l 592 1074 q 606 1039 606 1058 q 586 1003 606 1018 z "},"Ủ":{"ha":1050,"x_min":131,"x_max":919,"o":"m 442 0 q 206 76 282 0 q 131 311 131 151 l 131 883 q 189 942 131 942 q 247 883 247 942 l 247 311 q 265 194 247 235 q 324 135 283 153 q 442 117 365 117 l 608 117 q 726 135 685 117 q 785 194 767 153 q 803 311 803 235 l 803 883 q 861 942 803 942 q 919 883 919 942 l 919 311 q 844 76 919 151 q 608 0 768 0 l 442 0 m 525 1015 q 494 1023 503 1015 q 486 1053 486 1031 q 505 1113 486 1092 q 553 1153 524 1135 q 575 1168 571 1164 q 579 1181 579 1172 q 570 1220 579 1211 q 532 1229 561 1229 q 494 1220 503 1229 q 485 1181 485 1211 q 476 1150 485 1158 q 446 1142 468 1142 q 415 1150 424 1142 q 407 1181 407 1158 q 532 1306 407 1306 q 657 1181 657 1306 q 639 1122 657 1143 q 593 1085 621 1101 q 569 1068 574 1074 q 564 1053 564 1063 q 556 1023 564 1031 q 525 1015 547 1015 z "},"Ư":{"ha":1050,"x_min":131,"x_max":1040,"o":"m 986 1058 q 1026 1044 1013 1058 q 1040 1004 1040 1031 l 1040 986 q 919 861 1040 882 l 919 311 q 844 76 919 151 q 608 0 768 0 l 442 0 q 206 76 282 0 q 131 311 131 151 l 131 883 q 189 942 131 942 q 247 883 247 942 l 247 311 q 265 194 247 235 q 324 135 283 153 q 442 117 365 117 l 608 117 q 726 135 685 117 q 785 194 767 153 q 803 311 803 235 l 803 883 q 861 942 803 942 q 917 951 903 942 q 932 986 932 960 l 932 1022 q 986 1058 932 1058 z "},"Ứ":{"ha":1050,"x_min":131,"x_max":1040,"o":"m 986 1058 q 1026 1044 1013 1058 q 1040 1004 1040 1031 l 1040 986 q 919 861 1040 882 l 919 311 q 844 76 919 151 q 608 0 768 0 l 442 0 q 206 76 282 0 q 131 311 131 151 l 131 883 q 189 942 131 942 q 247 883 247 942 l 247 311 q 265 194 247 235 q 324 135 283 153 q 442 117 365 117 l 608 117 q 726 135 685 117 q 785 194 767 153 q 803 311 803 235 l 803 883 q 861 942 803 942 q 917 951 903 942 q 932 986 932 960 l 932 1022 q 986 1058 932 1058 m 494 1028 q 475 1064 475 1043 q 489 1099 475 1083 l 590 1221 q 626 1240 606 1240 q 661 1226 646 1240 q 681 1190 681 1211 q 667 1156 681 1171 l 565 1033 q 529 1014 550 1014 q 494 1028 513 1014 z "},"Ự":{"ha":1050,"x_min":131,"x_max":1040,"o":"m 986 1058 q 1026 1044 1013 1058 q 1040 1004 1040 1031 l 1040 986 q 919 861 1040 882 l 919 311 q 844 76 919 151 q 608 0 768 0 l 442 0 q 206 76 282 0 q 131 311 131 151 l 131 883 q 189 942 131 942 q 247 883 247 942 l 247 311 q 265 194 247 235 q 324 135 283 153 q 442 117 365 117 l 608 117 q 726 135 685 117 q 785 194 767 153 q 803 311 803 235 l 803 883 q 861 942 803 942 q 917 951 903 942 q 932 986 932 960 l 932 1022 q 986 1058 932 1058 m 510 -218 q 469 -203 483 -218 q 454 -162 454 -189 l 454 -128 q 469 -87 454 -101 q 510 -74 483 -74 l 543 -74 q 596 -128 596 -74 l 596 -162 q 583 -203 596 -189 q 543 -218 569 -218 l 510 -218 z "},"Ừ":{"ha":1050,"x_min":131,"x_max":1040,"o":"m 986 1058 q 1026 1044 1013 1058 q 1040 1004 1040 1031 l 1040 986 q 919 861 1040 882 l 919 311 q 844 76 919 151 q 608 0 768 0 l 442 0 q 206 76 282 0 q 131 311 131 151 l 131 883 q 189 942 131 942 q 247 883 247 942 l 247 311 q 265 194 247 235 q 324 135 283 153 q 442 117 365 117 l 608 117 q 726 135 685 117 q 785 194 767 153 q 803 311 803 235 l 803 883 q 861 942 803 942 q 917 951 903 942 q 932 986 932 960 l 932 1022 q 986 1058 932 1058 m 586 1003 q 551 989 568 989 q 515 1008 531 989 l 414 1131 q 400 1165 400 1146 q 419 1201 400 1186 q 454 1215 435 1215 q 490 1196 475 1215 l 592 1074 q 606 1039 606 1058 q 586 1003 606 1018 z "},"Ử":{"ha":1050,"x_min":131,"x_max":1040,"o":"m 986 1058 q 1026 1044 1013 1058 q 1040 1004 1040 1031 l 1040 986 q 919 861 1040 882 l 919 311 q 844 76 919 151 q 608 0 768 0 l 442 0 q 206 76 282 0 q 131 311 131 151 l 131 883 q 189 942 131 942 q 247 883 247 942 l 247 311 q 265 194 247 235 q 324 135 283 153 q 442 117 365 117 l 608 117 q 726 135 685 117 q 785 194 767 153 q 803 311 803 235 l 803 883 q 861 942 803 942 q 917 951 903 942 q 932 986 932 960 l 932 1022 q 986 1058 932 1058 m 525 1015 q 494 1023 503 1015 q 486 1053 486 1031 q 505 1113 486 1092 q 553 1153 524 1135 q 575 1168 571 1164 q 579 1181 579 1172 q 570 1220 579 1211 q 532 1229 561 1229 q 494 1220 503 1229 q 485 1181 485 1211 q 476 1150 485 1158 q 446 1142 468 1142 q 415 1150 424 1142 q 407 1181 407 1158 q 532 1306 407 1306 q 657 1181 657 1306 q 639 1122 657 1143 q 593 1085 621 1101 q 569 1068 574 1074 q 564 1053 564 1063 q 556 1023 564 1031 q 525 1015 547 1015 z "},"Ữ":{"ha":1050,"x_min":131,"x_max":1040,"o":"m 986 1058 q 1026 1044 1013 1058 q 1040 1004 1040 1031 l 1040 986 q 919 861 1040 882 l 919 311 q 844 76 919 151 q 608 0 768 0 l 442 0 q 206 76 282 0 q 131 311 131 151 l 131 883 q 189 942 131 942 q 247 883 247 942 l 247 311 q 265 194 247 235 q 324 135 283 153 q 442 117 365 117 l 608 117 q 726 135 685 117 q 785 194 767 153 q 803 311 803 235 l 803 883 q 861 942 803 942 q 917 951 903 942 q 932 986 932 960 l 932 1022 q 986 1058 932 1058 m 625 1019 q 560 1035 585 1019 q 510 1076 536 1050 q 481 1101 492 1096 q 458 1107 471 1107 q 404 1064 422 1107 q 363 1028 389 1028 q 340 1032 353 1028 q 310 1067 310 1043 q 315 1090 310 1079 q 373 1174 339 1147 q 458 1200 407 1200 q 524 1184 499 1200 q 576 1142 550 1168 q 603 1119 594 1124 q 625 1114 611 1114 q 648 1121 639 1114 q 665 1149 657 1128 q 708 1188 681 1188 q 726 1185 713 1188 q 760 1149 760 1176 q 756 1128 760 1140 q 704 1046 736 1072 q 625 1019 672 1019 z "},"Ű":{"ha":1050,"x_min":131,"x_max":919,"o":"m 442 0 q 206 76 282 0 q 131 311 131 151 l 131 883 q 189 942 131 942 q 247 883 247 942 l 247 311 q 265 194 247 235 q 324 135 283 153 q 442 117 365 117 l 608 117 q 726 135 685 117 q 785 194 767 153 q 803 311 803 235 l 803 883 q 861 942 803 942 q 919 883 919 942 l 919 311 q 844 76 919 151 q 608 0 768 0 l 442 0 m 389 1028 q 369 1064 369 1043 q 383 1099 369 1083 l 485 1221 q 521 1240 500 1240 q 556 1226 540 1240 q 575 1190 575 1211 q 561 1156 575 1171 l 460 1033 q 424 1014 444 1014 q 389 1028 407 1014 m 610 1028 q 590 1064 590 1043 q 604 1099 590 1083 l 706 1221 q 742 1240 721 1240 q 776 1226 761 1240 q 796 1190 796 1211 q 782 1156 796 1171 l 681 1033 q 644 1014 665 1014 q 610 1028 628 1014 z "},"Ȗ":{"ha":1050,"x_min":131,"x_max":919,"o":"m 442 0 q 206 76 282 0 q 131 311 131 151 l 131 883 q 189 942 131 942 q 247 883 247 942 l 247 311 q 265 194 247 235 q 324 135 283 153 q 442 117 365 117 l 608 117 q 726 135 685 117 q 785 194 767 153 q 803 311 803 235 l 803 883 q 861 942 803 942 q 919 883 919 942 l 919 311 q 844 76 919 151 q 608 0 768 0 l 442 0 m 524 1281 q 665 1246 615 1281 q 715 1147 715 1211 l 715 1118 q 664 1067 715 1067 q 627 1076 640 1067 q 614 1101 614 1085 l 614 1147 q 597 1177 614 1168 q 533 1186 579 1186 q 455 1178 475 1186 q 435 1147 435 1169 l 435 1118 q 383 1067 435 1067 q 347 1080 360 1067 q 333 1118 333 1093 l 333 1147 q 383 1246 333 1211 q 524 1281 432 1281 z "},"Ū":{"ha":1050,"x_min":131,"x_max":919,"o":"m 442 0 q 206 76 282 0 q 131 311 131 151 l 131 883 q 189 942 131 942 q 247 883 247 942 l 247 311 q 265 194 247 235 q 324 135 283 153 q 442 117 365 117 l 608 117 q 726 135 685 117 q 785 194 767 153 q 803 311 803 235 l 803 883 q 861 942 803 942 q 919 883 919 942 l 919 311 q 844 76 919 151 q 608 0 768 0 l 442 0 m 342 1058 q 283 1117 283 1058 q 342 1175 283 1175 l 693 1175 q 751 1117 751 1175 q 693 1058 751 1058 l 342 1058 z "},"Ų":{"ha":1050,"x_min":131,"x_max":919,"o":"m 742 -64 q 726 -99 726 -82 q 738 -119 726 -111 q 768 -128 750 -128 q 790 -124 778 -128 q 808 -122 803 -121 q 826 -119 822 -119 q 867 -135 854 -119 q 879 -174 879 -150 q 856 -208 879 -194 q 768 -229 811 -229 q 666 -192 707 -229 q 625 -99 625 -154 q 660 -4 625 -50 l 665 3 q 608 0 629 0 l 442 0 q 206 76 282 0 q 131 311 131 151 l 131 883 q 189 942 131 942 q 247 883 247 942 l 247 311 q 265 194 247 235 q 324 135 283 153 q 442 117 365 117 l 608 117 q 726 135 685 117 q 785 194 767 153 q 803 311 803 235 l 803 883 q 861 942 803 942 q 919 883 919 942 l 919 311 q 858 92 919 167 q 849 78 850 79 l 742 -64 z "},"Ů":{"ha":1050,"x_min":131,"x_max":919,"o":"m 442 0 q 206 76 282 0 q 131 311 131 151 l 131 883 q 189 942 131 942 q 247 883 247 942 l 247 311 q 265 194 247 235 q 324 135 283 153 q 442 117 365 117 l 608 117 q 726 135 685 117 q 785 194 767 153 q 803 311 803 235 l 803 883 q 861 942 803 942 q 919 883 919 942 l 919 311 q 844 76 919 151 q 608 0 768 0 l 442 0 m 528 1013 q 450 1041 479 1013 q 421 1119 421 1069 q 450 1198 421 1169 q 528 1226 479 1226 q 607 1198 578 1226 q 636 1119 636 1169 q 607 1041 636 1069 q 528 1013 578 1013 m 517 1092 q 549 1094 543 1092 q 556 1106 556 1096 l 556 1128 q 553 1144 556 1142 q 540 1147 551 1147 l 531 1147 q 504 1144 508 1147 q 500 1129 500 1142 l 500 1119 q 503 1096 500 1100 q 517 1092 506 1092 z "},"Ũ":{"ha":1050,"x_min":131,"x_max":919,"o":"m 442 0 q 206 76 282 0 q 131 311 131 151 l 131 883 q 189 942 131 942 q 247 883 247 942 l 247 311 q 265 194 247 235 q 324 135 283 153 q 442 117 365 117 l 608 117 q 726 135 685 117 q 785 194 767 153 q 803 311 803 235 l 803 883 q 861 942 803 942 q 919 883 919 942 l 919 311 q 844 76 919 151 q 608 0 768 0 l 442 0 m 625 1019 q 560 1035 585 1019 q 510 1076 536 1050 q 481 1101 492 1096 q 458 1107 471 1107 q 404 1064 422 1107 q 363 1028 389 1028 q 340 1032 353 1028 q 310 1067 310 1043 q 315 1090 310 1079 q 373 1174 339 1147 q 458 1200 407 1200 q 524 1184 499 1200 q 576 1142 550 1168 q 603 1119 594 1124 q 625 1114 611 1114 q 648 1121 639 1114 q 665 1149 657 1128 q 708 1188 681 1188 q 726 1185 713 1188 q 760 1149 760 1176 q 756 1128 760 1140 q 704 1046 736 1072 q 625 1019 672 1019 z "},"V":{"ha":893,"x_min":33,"x_max":860,"o":"m 440 0 q 383 46 404 0 l 40 858 q 33 889 33 876 q 67 933 33 918 q 100 942 83 942 q 147 904 133 942 l 451 185 l 747 904 q 794 942 763 942 q 828 933 810 942 q 860 886 860 918 q 854 858 860 871 l 508 46 q 446 0 486 0 l 440 0 z "},"W":{"ha":1247,"x_min":33,"x_max":1214,"o":"m 1176 936 q 1214 888 1214 918 q 1210 864 1214 876 l 953 50 q 929 13 943 25 q 892 0 915 0 l 889 0 q 828 50 844 0 l 614 740 l 615 713 l 410 50 q 387 12 400 24 q 349 0 374 0 q 315 12 328 0 q 294 50 303 24 l 38 864 q 33 889 33 879 q 42 915 33 904 q 71 936 51 926 q 99 943 88 943 q 147 899 132 943 l 358 228 l 558 892 q 583 929 567 917 q 625 942 599 942 q 689 892 674 940 l 889 228 l 1100 899 q 1149 942 1114 942 q 1176 936 1157 942 z "},"Ẃ":{"ha":1247,"x_min":33,"x_max":1214,"o":"m 1176 936 q 1214 888 1214 918 q 1210 864 1214 876 l 953 50 q 929 13 943 25 q 892 0 915 0 l 889 0 q 828 50 844 0 l 614 740 l 615 713 l 410 50 q 387 12 400 24 q 349 0 374 0 q 315 12 328 0 q 294 50 303 24 l 38 864 q 33 889 33 879 q 42 915 33 904 q 71 936 51 926 q 99 943 88 943 q 147 899 132 943 l 358 228 l 558 892 q 583 929 567 917 q 625 942 599 942 q 689 892 674 940 l 889 228 l 1100 899 q 1149 942 1114 942 q 1176 936 1157 942 m 594 1028 q 575 1064 575 1043 q 589 1099 575 1083 l 690 1221 q 726 1240 706 1240 q 761 1226 746 1240 q 781 1190 781 1211 q 767 1156 781 1171 l 665 1033 q 629 1014 650 1014 q 594 1028 613 1014 z "},"Ŵ":{"ha":1247,"x_min":33,"x_max":1214,"o":"m 1176 936 q 1214 888 1214 918 q 1210 864 1214 876 l 953 50 q 929 13 943 25 q 892 0 915 0 l 889 0 q 828 50 844 0 l 614 740 l 615 713 l 410 50 q 387 12 400 24 q 349 0 374 0 q 315 12 328 0 q 294 50 303 24 l 38 864 q 33 889 33 879 q 42 915 33 904 q 71 936 51 926 q 99 943 88 943 q 147 899 132 943 l 358 228 l 558 892 q 583 929 567 917 q 625 942 599 942 q 689 892 674 940 l 889 228 l 1100 899 q 1149 942 1114 942 q 1176 936 1157 942 m 457 999 q 419 1014 435 999 q 404 1051 404 1029 q 411 1077 404 1064 q 429 1097 418 1090 l 557 1203 q 622 1228 586 1228 l 626 1228 q 661 1222 646 1228 q 692 1203 676 1217 l 821 1097 q 839 1077 832 1090 q 846 1051 846 1064 q 830 1014 846 1029 q 793 999 814 999 q 754 1015 771 999 l 625 1122 l 624 1122 l 496 1015 q 457 999 479 999 z "},"Ẅ":{"ha":1247,"x_min":33,"x_max":1214,"o":"m 1176 936 q 1214 888 1214 918 q 1210 864 1214 876 l 953 50 q 929 13 943 25 q 892 0 915 0 l 889 0 q 828 50 844 0 l 614 740 l 615 713 l 410 50 q 387 12 400 24 q 349 0 374 0 q 315 12 328 0 q 294 50 303 24 l 38 864 q 33 889 33 879 q 42 915 33 904 q 71 936 51 926 q 99 943 88 943 q 147 899 132 943 l 358 228 l 558 892 q 583 929 567 917 q 625 942 599 942 q 689 892 674 940 l 889 228 l 1100 899 q 1149 942 1114 942 q 1176 936 1157 942 m 494 1044 q 453 1059 468 1044 q 439 1100 439 1074 l 439 1135 q 453 1175 439 1161 q 494 1189 468 1189 l 528 1189 q 581 1135 581 1189 l 581 1100 q 567 1059 581 1074 q 528 1044 554 1044 l 494 1044 m 726 1044 q 685 1059 700 1044 q 671 1100 671 1074 l 671 1135 q 685 1175 671 1161 q 726 1189 700 1189 l 760 1189 q 813 1135 813 1189 l 813 1100 q 799 1059 813 1074 q 760 1044 786 1044 l 726 1044 z "},"Ẁ":{"ha":1247,"x_min":33,"x_max":1214,"o":"m 1176 936 q 1214 888 1214 918 q 1210 864 1214 876 l 953 50 q 929 13 943 25 q 892 0 915 0 l 889 0 q 828 50 844 0 l 614 740 l 615 713 l 410 50 q 387 12 400 24 q 349 0 374 0 q 315 12 328 0 q 294 50 303 24 l 38 864 q 33 889 33 879 q 42 915 33 904 q 71 936 51 926 q 99 943 88 943 q 147 899 132 943 l 358 228 l 558 892 q 583 929 567 917 q 625 942 599 942 q 689 892 674 940 l 889 228 l 1100 899 q 1149 942 1114 942 q 1176 936 1157 942 m 686 1003 q 651 989 668 989 q 615 1008 631 989 l 514 1131 q 500 1165 500 1146 q 519 1201 500 1186 q 554 1215 535 1215 q 590 1196 575 1215 l 692 1074 q 706 1039 706 1058 q 686 1003 706 1018 z "},"X":{"ha":869,"x_min":79,"x_max":794,"o":"m 119 13 q 93 57 93 31 q 106 94 93 76 l 360 469 l 92 847 q 79 882 79 867 q 107 929 79 908 q 143 942 126 942 q 188 914 168 942 l 436 565 l 686 914 q 731 942 707 942 q 767 926 747 942 q 794 882 794 907 q 781 846 794 864 l 507 465 l 769 96 q 782 60 782 78 q 754 13 782 32 q 718 0 736 0 q 674 28 693 0 l 432 368 l 201 26 q 157 0 183 0 q 119 13 140 0 z "},"Y":{"ha":854,"x_min":33,"x_max":822,"o":"m 792 928 q 822 882 822 908 q 810 849 822 865 l 479 342 l 479 58 q 464 15 479 31 q 421 0 449 0 q 378 15 393 0 q 363 58 363 31 l 363 342 l 44 849 q 33 883 33 868 q 63 931 33 913 q 97 942 82 942 q 143 913 124 942 l 421 467 l 713 913 q 757 940 729 940 q 792 928 774 940 z "},"Ý":{"ha":854,"x_min":33,"x_max":822,"o":"m 792 928 q 822 882 822 908 q 810 849 822 865 l 479 342 l 479 58 q 464 15 479 31 q 421 0 449 0 q 378 15 393 0 q 363 58 363 31 l 363 342 l 44 849 q 33 883 33 868 q 63 931 33 913 q 97 942 82 942 q 143 913 124 942 l 421 467 l 713 913 q 757 940 729 940 q 792 928 774 940 m 396 1028 q 376 1064 376 1043 q 390 1099 376 1083 l 492 1221 q 528 1240 507 1240 q 563 1226 547 1240 q 582 1190 582 1211 q 568 1156 582 1171 l 467 1033 q 431 1014 451 1014 q 396 1028 414 1014 z "},"Ŷ":{"ha":854,"x_min":33,"x_max":822,"o":"m 792 928 q 822 882 822 908 q 810 849 822 865 l 479 342 l 479 58 q 464 15 479 31 q 421 0 449 0 q 378 15 393 0 q 363 58 363 31 l 363 342 l 44 849 q 33 883 33 868 q 63 931 33 913 q 97 942 82 942 q 143 913 124 942 l 421 467 l 713 913 q 757 940 729 940 q 792 928 774 940 m 258 999 q 221 1014 236 999 q 206 1051 206 1029 q 213 1077 206 1064 q 231 1097 219 1090 l 358 1203 q 424 1228 388 1228 l 428 1228 q 463 1222 447 1228 q 493 1203 478 1217 l 622 1097 q 640 1077 633 1090 q 647 1051 647 1064 q 631 1014 647 1029 q 594 999 615 999 q 556 1015 572 999 l 426 1122 l 425 1122 l 297 1015 q 258 999 281 999 z "},"Ÿ":{"ha":854,"x_min":33,"x_max":822,"o":"m 792 928 q 822 882 822 908 q 810 849 822 865 l 479 342 l 479 58 q 464 15 479 31 q 421 0 449 0 q 378 15 393 0 q 363 58 363 31 l 363 342 l 44 849 q 33 883 33 868 q 63 931 33 913 q 97 942 82 942 q 143 913 124 942 l 421 467 l 713 913 q 757 940 729 940 q 792 928 774 940 m 296 1044 q 255 1059 269 1044 q 240 1100 240 1074 l 240 1135 q 255 1175 240 1161 q 296 1189 269 1189 l 329 1189 q 382 1135 382 1189 l 382 1100 q 369 1059 382 1074 q 329 1044 356 1044 l 296 1044 m 528 1044 q 487 1059 501 1044 q 472 1100 472 1074 l 472 1135 q 487 1175 472 1161 q 528 1189 501 1189 l 561 1189 q 614 1135 614 1189 l 614 1100 q 601 1059 614 1074 q 561 1044 588 1044 l 528 1044 z "},"Ỵ":{"ha":854,"x_min":33,"x_max":822,"o":"m 792 928 q 822 882 822 908 q 810 849 822 865 l 479 342 l 479 58 q 464 15 479 31 q 421 0 449 0 q 378 15 393 0 q 363 58 363 31 l 363 342 l 44 849 q 33 883 33 868 q 63 931 33 913 q 97 942 82 942 q 143 913 124 942 l 421 467 l 713 913 q 757 940 729 940 q 792 928 774 940 m 411 -218 q 370 -203 385 -218 q 356 -162 356 -189 l 356 -128 q 370 -87 356 -101 q 411 -74 385 -74 l 444 -74 q 497 -128 497 -74 l 497 -162 q 484 -203 497 -189 q 444 -218 471 -218 l 411 -218 z "},"Ỳ":{"ha":854,"x_min":33,"x_max":822,"o":"m 792 928 q 822 882 822 908 q 810 849 822 865 l 479 342 l 479 58 q 464 15 479 31 q 421 0 449 0 q 378 15 393 0 q 363 58 363 31 l 363 342 l 44 849 q 33 883 33 868 q 63 931 33 913 q 97 942 82 942 q 143 913 124 942 l 421 467 l 713 913 q 757 940 729 940 q 792 928 774 940 m 488 1003 q 453 989 469 989 q 417 1008 432 989 l 315 1131 q 301 1165 301 1146 q 321 1201 301 1186 q 356 1215 336 1215 q 392 1196 376 1215 l 493 1074 q 507 1039 507 1058 q 488 1003 507 1018 z "},"Ỷ":{"ha":854,"x_min":33,"x_max":822,"o":"m 792 928 q 822 882 822 908 q 810 849 822 865 l 479 342 l 479 58 q 464 15 479 31 q 421 0 449 0 q 378 15 393 0 q 363 58 363 31 l 363 342 l 44 849 q 33 883 33 868 q 63 931 33 913 q 97 942 82 942 q 143 913 124 942 l 421 467 l 713 913 q 757 940 729 940 q 792 928 774 940 m 426 1015 q 396 1023 404 1015 q 388 1053 388 1031 q 406 1113 388 1092 q 454 1153 425 1135 q 476 1168 472 1164 q 481 1181 481 1172 q 472 1220 481 1211 q 433 1229 463 1229 q 395 1220 404 1229 q 386 1181 386 1211 q 378 1150 386 1158 q 347 1142 369 1142 q 317 1150 325 1142 q 308 1181 308 1158 q 433 1306 308 1306 q 558 1181 558 1306 q 540 1122 558 1143 q 494 1085 522 1101 q 470 1068 475 1074 q 465 1053 465 1063 q 457 1023 465 1031 q 426 1015 449 1015 z "},"Ȳ":{"ha":854,"x_min":33,"x_max":822,"o":"m 792 928 q 822 882 822 908 q 810 849 822 865 l 479 342 l 479 58 q 464 15 479 31 q 421 0 449 0 q 378 15 393 0 q 363 58 363 31 l 363 342 l 44 849 q 33 883 33 868 q 63 931 33 913 q 97 942 82 942 q 143 913 124 942 l 421 467 l 713 913 q 757 940 729 940 q 792 928 774 940 m 243 1058 q 185 1117 185 1058 q 243 1175 185 1175 l 594 1175 q 653 1117 653 1175 q 594 1058 653 1058 l 243 1058 z "},"Ỹ":{"ha":854,"x_min":33,"x_max":822,"o":"m 792 928 q 822 882 822 908 q 810 849 822 865 l 479 342 l 479 58 q 464 15 479 31 q 421 0 449 0 q 378 15 393 0 q 363 58 363 31 l 363 342 l 44 849 q 33 883 33 868 q 63 931 33 913 q 97 942 82 942 q 143 913 124 942 l 421 467 l 713 913 q 757 940 729 940 q 792 928 774 940 m 526 1019 q 462 1035 486 1019 q 411 1076 438 1050 q 383 1101 393 1096 q 360 1107 372 1107 q 306 1064 324 1107 q 264 1028 290 1028 q 242 1032 254 1028 q 211 1067 211 1043 q 217 1090 211 1079 q 274 1174 240 1147 q 360 1200 308 1200 q 426 1184 400 1200 q 478 1142 451 1168 q 504 1119 496 1124 q 526 1114 513 1114 q 549 1121 540 1114 q 567 1149 558 1128 q 610 1188 582 1188 q 628 1185 614 1188 q 661 1149 661 1176 q 657 1128 661 1140 q 606 1046 638 1072 q 526 1019 574 1019 z "},"Z":{"ha":957,"x_min":74,"x_max":886,"o":"m 825 228 q 870 212 854 228 q 882 167 886 196 q 808 42 865 85 q 657 0 751 0 l 144 0 q 102 15 117 0 q 88 58 88 31 q 110 108 88 76 l 657 825 l 297 825 q 228 812 253 825 q 193 768 203 799 q 172 727 186 740 q 132 714 158 714 q 90 727 106 714 q 74 763 74 740 q 75 775 74 771 q 148 899 92 856 q 297 942 204 942 l 761 942 q 805 926 790 942 q 819 883 819 911 q 797 831 819 860 l 250 117 l 657 117 q 729 130 704 117 q 763 174 754 143 q 785 215 771 201 q 825 228 799 228 z "},"Ź":{"ha":957,"x_min":74,"x_max":883,"o":"m 825 228 q 870 212 854 228 q 882 167 886 196 q 808 42 865 85 q 657 0 751 0 l 144 0 q 102 15 117 0 q 88 58 88 31 q 110 108 88 76 l 657 825 l 297 825 q 228 812 253 825 q 193 768 203 799 q 172 727 186 740 q 132 714 158 714 q 90 727 106 714 q 74 763 74 740 q 75 775 74 771 q 148 899 92 856 q 297 942 204 942 l 761 942 q 805 926 790 942 q 819 883 819 911 q 797 831 819 860 l 250 117 l 657 117 q 729 130 704 117 q 763 174 754 143 q 785 215 771 201 q 825 228 799 228 m 471 1028 q 451 1064 451 1043 q 465 1099 451 1083 l 567 1221 q 603 1240 582 1240 q 638 1226 622 1240 q 657 1190 657 1211 q 643 1156 657 1171 l 542 1033 q 506 1014 526 1014 q 471 1028 489 1014 z "},"Ž":{"ha":957,"x_min":74,"x_max":883,"o":"m 825 228 q 870 212 854 228 q 882 167 886 196 q 808 42 865 85 q 657 0 751 0 l 144 0 q 102 15 117 0 q 88 58 88 31 q 110 108 88 76 l 657 825 l 297 825 q 228 812 253 825 q 193 768 203 799 q 172 727 186 740 q 132 714 158 714 q 90 727 106 714 q 74 763 74 740 q 75 775 74 771 q 148 899 92 856 q 297 942 204 942 l 761 942 q 805 926 790 942 q 819 883 819 911 q 797 831 819 860 l 250 117 l 657 117 q 729 130 704 117 q 763 174 754 143 q 785 215 771 201 q 825 228 799 228 m 319 1221 q 358 1204 342 1221 l 486 1097 l 488 1097 l 617 1204 q 656 1221 633 1221 q 692 1206 676 1221 q 708 1168 708 1190 q 701 1142 708 1156 q 683 1122 694 1129 l 554 1017 q 524 997 539 1003 q 489 992 508 992 l 485 992 q 419 1017 449 992 l 292 1122 q 274 1142 281 1129 q 267 1168 267 1156 q 282 1206 267 1190 q 319 1221 297 1221 z "},"Ż":{"ha":957,"x_min":74,"x_max":883,"o":"m 825 228 q 870 212 854 228 q 882 167 886 196 q 808 42 865 85 q 657 0 751 0 l 144 0 q 102 15 117 0 q 88 58 88 31 q 110 108 88 76 l 657 825 l 297 825 q 228 812 253 825 q 193 768 203 799 q 172 727 186 740 q 132 714 158 714 q 90 727 106 714 q 74 763 74 740 q 75 775 74 771 q 148 899 92 856 q 297 942 204 942 l 761 942 q 805 926 790 942 q 819 883 819 911 q 797 831 819 860 l 250 117 l 657 117 q 729 130 704 117 q 763 174 754 143 q 785 215 771 201 q 825 228 799 228 m 483 1056 q 434 1074 451 1056 q 417 1122 417 1092 l 417 1164 q 434 1212 417 1196 q 483 1228 451 1228 l 524 1228 q 586 1164 586 1228 l 586 1122 q 570 1073 586 1090 q 524 1056 554 1056 l 483 1056 z "},"a":{"ha":889,"x_min":117,"x_max":758,"o":"m 486 704 q 692 638 625 704 q 758 432 758 571 l 758 58 q 743 15 758 31 q 700 0 728 0 q 657 15 672 0 q 642 58 642 31 l 642 90 q 425 0 568 0 l 347 0 q 174 57 231 0 q 117 231 117 114 q 173 404 117 347 q 347 461 229 461 l 640 461 q 603 560 636 533 q 486 588 569 588 l 406 588 q 302 578 336 588 q 254 544 268 568 q 228 504 242 515 q 189 493 214 493 q 148 506 164 493 q 132 539 132 518 q 133 553 132 547 q 220 667 154 631 q 406 704 286 704 l 486 704 m 635 213 q 638 222 636 217 q 642 232 639 226 l 642 344 l 347 344 q 276 335 300 344 q 243 301 253 325 q 233 231 233 278 q 243 160 233 183 q 276 126 253 136 q 347 117 300 117 l 425 117 q 635 213 601 117 z "},"á":{"ha":889,"x_min":117,"x_max":758,"o":"m 486 704 q 692 638 625 704 q 758 432 758 571 l 758 58 q 743 15 758 31 q 700 0 728 0 q 657 15 672 0 q 642 58 642 31 l 642 90 q 425 0 568 0 l 347 0 q 174 57 231 0 q 117 231 117 114 q 173 404 117 347 q 347 461 229 461 l 640 461 q 603 560 636 533 q 486 588 569 588 l 406 588 q 302 578 336 588 q 254 544 268 568 q 228 504 242 515 q 189 493 214 493 q 148 506 164 493 q 132 539 132 518 q 133 553 132 547 q 220 667 154 631 q 406 704 286 704 l 486 704 m 635 213 q 638 222 636 217 q 642 232 639 226 l 642 344 l 347 344 q 276 335 300 344 q 243 301 253 325 q 233 231 233 278 q 243 160 233 183 q 276 126 253 136 q 347 117 300 117 l 425 117 q 635 213 601 117 m 401 790 q 382 826 382 806 q 396 861 382 846 l 497 983 q 533 1003 513 1003 q 568 989 553 1003 q 588 953 588 974 q 574 918 588 933 l 472 796 q 436 776 457 776 q 401 790 419 776 z "},"ă":{"ha":889,"x_min":117,"x_max":758,"o":"m 486 704 q 692 638 625 704 q 758 432 758 571 l 758 58 q 743 15 758 31 q 700 0 728 0 q 657 15 672 0 q 642 58 642 31 l 642 90 q 425 0 568 0 l 347 0 q 174 57 231 0 q 117 231 117 114 q 173 404 117 347 q 347 461 229 461 l 640 461 q 603 560 636 533 q 486 588 569 588 l 406 588 q 302 578 336 588 q 254 544 268 568 q 228 504 242 515 q 189 493 214 493 q 148 506 164 493 q 132 539 132 518 q 133 553 132 547 q 220 667 154 631 q 406 704 286 704 l 486 704 m 635 213 q 638 222 636 217 q 642 232 639 226 l 642 344 l 347 344 q 276 335 300 344 q 243 301 253 325 q 233 231 233 278 q 243 160 233 183 q 276 126 253 136 q 347 117 300 117 l 425 117 q 635 213 601 117 m 453 769 q 312 804 361 769 q 263 903 263 839 l 263 932 q 276 970 263 957 q 313 983 289 983 q 364 932 364 983 l 364 903 q 384 872 364 881 q 463 864 404 864 q 526 873 508 864 q 543 903 543 882 l 543 949 q 556 974 543 965 q 593 983 569 983 q 644 932 644 983 l 644 903 q 594 804 644 839 q 453 769 544 769 z "},"ắ":{"ha":889,"x_min":117,"x_max":758,"o":"m 486 704 q 692 638 625 704 q 758 432 758 571 l 758 58 q 743 15 758 31 q 700 0 728 0 q 657 15 672 0 q 642 58 642 31 l 642 90 q 425 0 568 0 l 347 0 q 174 57 231 0 q 117 231 117 114 q 173 404 117 347 q 347 461 229 461 l 640 461 q 603 560 636 533 q 486 588 569 588 l 406 588 q 302 578 336 588 q 254 544 268 568 q 228 504 242 515 q 189 493 214 493 q 148 506 164 493 q 132 539 132 518 q 133 553 132 547 q 220 667 154 631 q 406 704 286 704 l 486 704 m 635 213 q 638 222 636 217 q 642 232 639 226 l 642 344 l 347 344 q 276 335 300 344 q 243 301 253 325 q 233 231 233 278 q 243 160 233 183 q 276 126 253 136 q 347 117 300 117 l 425 117 q 635 213 601 117 m 432 769 q 291 804 340 769 q 242 903 242 839 l 242 932 q 255 970 242 957 q 292 983 268 983 q 343 932 343 983 l 343 903 q 363 872 343 881 q 442 864 383 864 q 505 873 488 864 q 522 903 522 882 l 522 949 q 535 974 522 965 q 572 983 549 983 q 624 932 624 983 l 624 903 q 574 804 624 839 q 432 769 524 769 m 368 988 q 349 1024 349 1003 q 363 1058 349 1043 l 464 1181 q 500 1200 479 1200 q 535 1186 519 1200 q 554 1150 554 1171 q 540 1115 554 1131 l 439 993 q 403 974 424 974 q 368 988 386 974 z "},"ặ":{"ha":889,"x_min":117,"x_max":758,"o":"m 486 704 q 692 638 625 704 q 758 432 758 571 l 758 58 q 743 15 758 31 q 700 0 728 0 q 657 15 672 0 q 642 58 642 31 l 642 90 q 425 0 568 0 l 347 0 q 174 57 231 0 q 117 231 117 114 q 173 404 117 347 q 347 461 229 461 l 640 461 q 603 560 636 533 q 486 588 569 588 l 406 588 q 302 578 336 588 q 254 544 268 568 q 228 504 242 515 q 189 493 214 493 q 148 506 164 493 q 132 539 132 518 q 133 553 132 547 q 220 667 154 631 q 406 704 286 704 l 486 704 m 635 213 q 638 222 636 217 q 642 232 639 226 l 642 344 l 347 344 q 276 335 300 344 q 243 301 253 325 q 233 231 233 278 q 243 160 233 183 q 276 126 253 136 q 347 117 300 117 l 425 117 q 635 213 601 117 m 417 -218 q 376 -203 390 -218 q 361 -162 361 -189 l 361 -128 q 376 -87 361 -101 q 417 -74 390 -74 l 450 -74 q 503 -128 503 -74 l 503 -162 q 490 -203 503 -189 q 450 -218 476 -218 l 417 -218 m 453 769 q 312 804 361 769 q 263 903 263 839 l 263 932 q 276 970 263 957 q 313 983 289 983 q 364 932 364 983 l 364 903 q 384 872 364 881 q 463 864 404 864 q 526 873 508 864 q 543 903 543 882 l 543 949 q 556 974 543 965 q 593 983 569 983 q 644 932 644 983 l 644 903 q 594 804 644 839 q 453 769 544 769 z "},"ằ":{"ha":889,"x_min":117,"x_max":758,"o":"m 486 704 q 692 638 625 704 q 758 432 758 571 l 758 58 q 743 15 758 31 q 700 0 728 0 q 657 15 672 0 q 642 58 642 31 l 642 90 q 425 0 568 0 l 347 0 q 174 57 231 0 q 117 231 117 114 q 173 404 117 347 q 347 461 229 461 l 640 461 q 603 560 636 533 q 486 588 569 588 l 406 588 q 302 578 336 588 q 254 544 268 568 q 228 504 242 515 q 189 493 214 493 q 148 506 164 493 q 132 539 132 518 q 133 553 132 547 q 220 667 154 631 q 406 704 286 704 l 486 704 m 635 213 q 638 222 636 217 q 642 232 639 226 l 642 344 l 347 344 q 276 335 300 344 q 243 301 253 325 q 233 231 233 278 q 243 160 233 183 q 276 126 253 136 q 347 117 300 117 l 425 117 q 635 213 601 117 m 432 769 q 291 804 340 769 q 242 903 242 839 l 242 932 q 255 970 242 957 q 292 983 268 983 q 343 932 343 983 l 343 903 q 363 872 343 881 q 442 864 383 864 q 505 873 488 864 q 522 903 522 882 l 522 949 q 535 974 522 965 q 572 983 549 983 q 624 932 624 983 l 624 903 q 574 804 624 839 q 432 769 524 769 m 429 988 q 394 974 411 974 q 358 993 374 974 l 257 1115 q 243 1150 243 1131 q 263 1186 243 1171 q 297 1200 278 1200 q 333 1181 318 1200 l 435 1058 q 449 1024 449 1043 q 429 988 449 1003 z "},"ẳ":{"ha":889,"x_min":117,"x_max":758,"o":"m 486 704 q 692 638 625 704 q 758 432 758 571 l 758 58 q 743 15 758 31 q 700 0 728 0 q 657 15 672 0 q 642 58 642 31 l 642 90 q 425 0 568 0 l 347 0 q 174 57 231 0 q 117 231 117 114 q 173 404 117 347 q 347 461 229 461 l 640 461 q 603 560 636 533 q 486 588 569 588 l 406 588 q 302 578 336 588 q 254 544 268 568 q 228 504 242 515 q 189 493 214 493 q 148 506 164 493 q 132 539 132 518 q 133 553 132 547 q 220 667 154 631 q 406 704 286 704 l 486 704 m 635 213 q 638 222 636 217 q 642 232 639 226 l 642 344 l 347 344 q 276 335 300 344 q 243 301 253 325 q 233 231 233 278 q 243 160 233 183 q 276 126 253 136 q 347 117 300 117 l 425 117 q 635 213 601 117 m 432 769 q 291 804 340 769 q 242 903 242 839 l 242 932 q 255 970 242 957 q 292 983 268 983 q 343 932 343 983 l 343 903 q 363 872 343 881 q 442 864 383 864 q 505 873 488 864 q 522 903 522 882 l 522 949 q 535 974 522 965 q 572 983 549 983 q 624 932 624 983 l 624 903 q 574 804 624 839 q 432 769 524 769 m 433 946 q 403 953 411 946 q 394 983 394 961 q 413 1044 394 1022 q 461 1083 432 1065 q 483 1099 479 1094 q 488 1111 488 1103 q 478 1151 488 1142 q 440 1160 469 1160 q 402 1151 411 1160 q 393 1111 393 1142 q 385 1081 393 1089 q 354 1072 376 1072 q 324 1081 332 1072 q 315 1111 315 1089 q 440 1236 315 1236 q 565 1111 565 1236 q 547 1053 565 1074 q 501 1015 529 1032 q 477 999 482 1004 q 472 983 472 993 q 464 953 472 961 q 433 946 456 946 z "},"ẵ":{"ha":889,"x_min":117,"x_max":758,"o":"m 486 704 q 692 638 625 704 q 758 432 758 571 l 758 58 q 743 15 758 31 q 700 0 728 0 q 657 15 672 0 q 642 58 642 31 l 642 90 q 425 0 568 0 l 347 0 q 174 57 231 0 q 117 231 117 114 q 173 404 117 347 q 347 461 229 461 l 640 461 q 603 560 636 533 q 486 588 569 588 l 406 588 q 302 578 336 588 q 254 544 268 568 q 228 504 242 515 q 189 493 214 493 q 148 506 164 493 q 132 539 132 518 q 133 553 132 547 q 220 667 154 631 q 406 704 286 704 l 486 704 m 635 213 q 638 222 636 217 q 642 232 639 226 l 642 344 l 347 344 q 276 335 300 344 q 243 301 253 325 q 233 231 233 278 q 243 160 233 183 q 276 126 253 136 q 347 117 300 117 l 425 117 q 635 213 601 117 m 433 769 q 292 804 342 769 q 243 903 243 839 l 243 932 q 256 970 243 957 q 293 983 269 983 q 344 932 344 983 l 344 903 q 365 872 344 881 q 443 864 385 864 q 506 873 489 864 q 524 903 524 882 l 524 949 q 537 974 524 965 q 574 983 550 983 q 625 932 625 983 l 625 903 q 575 804 625 839 q 433 769 525 769 m 506 1014 q 466 1026 485 1014 q 425 1058 447 1038 q 399 1080 411 1071 q 376 1089 386 1089 q 355 1081 364 1089 q 338 1051 346 1072 q 294 1017 319 1017 q 274 1021 285 1017 q 243 1056 243 1033 q 249 1079 243 1068 q 296 1156 268 1133 q 369 1178 324 1178 q 408 1165 388 1178 q 458 1129 429 1153 q 504 1101 493 1101 q 515 1106 511 1101 q 523 1116 519 1111 q 528 1124 526 1121 q 571 1161 542 1161 q 589 1158 582 1161 q 622 1124 622 1149 q 618 1101 622 1114 q 506 1014 579 1014 z "},"â":{"ha":889,"x_min":117,"x_max":758,"o":"m 486 704 q 692 638 625 704 q 758 432 758 571 l 758 58 q 743 15 758 31 q 700 0 728 0 q 657 15 672 0 q 642 58 642 31 l 642 90 q 425 0 568 0 l 347 0 q 174 57 231 0 q 117 231 117 114 q 173 404 117 347 q 347 461 229 461 l 640 461 q 603 560 636 533 q 486 588 569 588 l 406 588 q 302 578 336 588 q 254 544 268 568 q 228 504 242 515 q 189 493 214 493 q 148 506 164 493 q 132 539 132 518 q 133 553 132 547 q 220 667 154 631 q 406 704 286 704 l 486 704 m 635 213 q 638 222 636 217 q 642 232 639 226 l 642 344 l 347 344 q 276 335 300 344 q 243 301 253 325 q 233 231 233 278 q 243 160 233 183 q 276 126 253 136 q 347 117 300 117 l 425 117 q 635 213 601 117 m 301 778 q 267 792 282 778 q 253 826 253 807 q 267 860 253 846 l 368 961 q 429 988 393 988 l 438 988 q 499 961 474 988 l 600 860 q 614 826 614 846 q 599 792 614 807 q 565 778 585 778 q 531 792 543 778 l 442 890 l 425 890 l 336 792 q 301 778 322 778 z "},"ấ":{"ha":889,"x_min":117,"x_max":761,"o":"m 486 704 q 692 638 625 704 q 758 432 758 571 l 758 58 q 743 15 758 31 q 700 0 728 0 q 657 15 672 0 q 642 58 642 31 l 642 90 q 425 0 568 0 l 347 0 q 174 57 231 0 q 117 231 117 114 q 173 404 117 347 q 347 461 229 461 l 640 461 q 603 560 636 533 q 486 588 569 588 l 406 588 q 302 578 336 588 q 254 544 268 568 q 228 504 242 515 q 189 493 214 493 q 148 506 164 493 q 132 539 132 518 q 133 553 132 547 q 220 667 154 631 q 406 704 286 704 l 486 704 m 635 213 q 638 222 636 217 q 642 232 639 226 l 642 344 l 347 344 q 276 335 300 344 q 243 301 253 325 q 233 231 233 278 q 243 160 233 183 q 276 126 253 136 q 347 117 300 117 l 425 117 q 635 213 601 117 m 599 885 q 576 922 576 903 q 593 956 576 939 l 668 1033 q 707 1053 688 1053 q 739 1039 724 1053 q 761 1001 761 1021 q 746 968 761 986 l 669 890 q 632 871 650 871 q 599 885 614 871 m 300 778 q 266 792 281 778 q 251 826 251 807 q 265 860 251 846 l 367 961 q 428 988 392 988 l 436 988 q 497 961 472 988 l 599 860 q 613 826 613 846 q 598 792 613 807 q 564 778 583 778 q 529 792 542 778 l 440 890 l 424 890 l 335 792 q 300 778 321 778 z "},"ậ":{"ha":889,"x_min":117,"x_max":758,"o":"m 486 704 q 692 638 625 704 q 758 432 758 571 l 758 58 q 743 15 758 31 q 700 0 728 0 q 657 15 672 0 q 642 58 642 31 l 642 90 q 425 0 568 0 l 347 0 q 174 57 231 0 q 117 231 117 114 q 173 404 117 347 q 347 461 229 461 l 640 461 q 603 560 636 533 q 486 588 569 588 l 406 588 q 302 578 336 588 q 254 544 268 568 q 228 504 242 515 q 189 493 214 493 q 148 506 164 493 q 132 539 132 518 q 133 553 132 547 q 220 667 154 631 q 406 704 286 704 l 486 704 m 635 213 q 638 222 636 217 q 642 232 639 226 l 642 344 l 347 344 q 276 335 300 344 q 243 301 253 325 q 233 231 233 278 q 243 160 233 183 q 276 126 253 136 q 347 117 300 117 l 425 117 q 635 213 601 117 m 417 -218 q 376 -203 390 -218 q 361 -162 361 -189 l 361 -128 q 376 -87 361 -101 q 417 -74 390 -74 l 450 -74 q 503 -128 503 -74 l 503 -162 q 490 -203 503 -189 q 450 -218 476 -218 l 417 -218 m 301 778 q 267 792 282 778 q 253 826 253 807 q 267 860 253 846 l 368 961 q 429 988 393 988 l 438 988 q 499 961 474 988 l 600 860 q 614 826 614 846 q 599 792 614 807 q 565 778 585 778 q 531 792 543 778 l 442 890 l 425 890 l 336 792 q 301 778 322 778 z "},"ầ":{"ha":889,"x_min":93,"x_max":758,"o":"m 486 704 q 692 638 625 704 q 758 432 758 571 l 758 58 q 743 15 758 31 q 700 0 728 0 q 657 15 672 0 q 642 58 642 31 l 642 90 q 425 0 568 0 l 347 0 q 174 57 231 0 q 117 231 117 114 q 173 404 117 347 q 347 461 229 461 l 640 461 q 603 560 636 533 q 486 588 569 588 l 406 588 q 302 578 336 588 q 254 544 268 568 q 228 504 242 515 q 189 493 214 493 q 148 506 164 493 q 132 539 132 518 q 133 553 132 547 q 220 667 154 631 q 406 704 286 704 l 486 704 m 635 213 q 638 222 636 217 q 642 232 639 226 l 642 344 l 347 344 q 276 335 300 344 q 243 301 253 325 q 233 231 233 278 q 243 160 233 183 q 276 126 253 136 q 347 117 300 117 l 425 117 q 635 213 601 117 m 254 885 q 221 871 239 871 q 183 890 203 871 l 108 968 q 93 1001 93 983 q 114 1039 93 1022 q 146 1053 129 1053 q 185 1033 165 1053 l 261 956 q 276 922 276 940 q 254 885 276 901 m 299 778 q 265 792 279 778 q 250 826 250 807 q 264 860 250 846 l 365 961 q 426 988 390 988 l 435 988 q 496 961 471 988 l 597 860 q 611 826 611 846 q 597 792 611 807 q 563 778 582 778 q 528 792 540 778 l 439 890 l 422 890 l 333 792 q 299 778 319 778 z "},"ẩ":{"ha":889,"x_min":117,"x_max":758,"o":"m 486 704 q 692 638 625 704 q 758 432 758 571 l 758 58 q 743 15 758 31 q 700 0 728 0 q 657 15 672 0 q 642 58 642 31 l 642 90 q 425 0 568 0 l 347 0 q 174 57 231 0 q 117 231 117 114 q 173 404 117 347 q 347 461 229 461 l 640 461 q 603 560 636 533 q 486 588 569 588 l 406 588 q 302 578 336 588 q 254 544 268 568 q 228 504 242 515 q 189 493 214 493 q 148 506 164 493 q 132 539 132 518 q 133 553 132 547 q 220 667 154 631 q 406 704 286 704 l 486 704 m 635 213 q 638 222 636 217 q 642 232 639 226 l 642 344 l 347 344 q 276 335 300 344 q 243 301 253 325 q 233 231 233 278 q 243 160 233 183 q 276 126 253 136 q 347 117 300 117 l 425 117 q 635 213 601 117 m 300 778 q 266 792 281 778 q 251 826 251 807 q 265 860 251 846 l 367 961 q 428 988 392 988 l 436 988 q 497 961 472 988 l 599 860 q 613 826 613 846 q 598 792 613 807 q 564 778 583 778 q 529 792 542 778 l 440 890 l 424 890 l 335 792 q 300 778 321 778 m 568 928 q 538 935 546 928 q 529 965 529 943 q 548 1026 529 1004 q 596 1065 567 1047 q 618 1081 614 1076 q 622 1093 622 1085 q 613 1133 622 1124 q 575 1142 604 1142 q 537 1133 546 1142 q 528 1093 528 1124 q 519 1063 528 1071 q 489 1054 511 1054 q 458 1063 467 1054 q 450 1093 450 1071 q 575 1218 450 1218 q 700 1093 700 1218 q 682 1035 700 1056 q 636 997 664 1014 q 612 981 617 986 q 607 965 607 975 q 599 935 607 943 q 568 928 590 928 z "},"ẫ":{"ha":889,"x_min":117,"x_max":758,"o":"m 486 704 q 692 638 625 704 q 758 432 758 571 l 758 58 q 743 15 758 31 q 700 0 728 0 q 657 15 672 0 q 642 58 642 31 l 642 90 q 425 0 568 0 l 347 0 q 174 57 231 0 q 117 231 117 114 q 173 404 117 347 q 347 461 229 461 l 640 461 q 603 560 636 533 q 486 588 569 588 l 406 588 q 302 578 336 588 q 254 544 268 568 q 228 504 242 515 q 189 493 214 493 q 148 506 164 493 q 132 539 132 518 q 133 553 132 547 q 220 667 154 631 q 406 704 286 704 l 486 704 m 635 213 q 638 222 636 217 q 642 232 639 226 l 642 344 l 347 344 q 276 335 300 344 q 243 301 253 325 q 233 231 233 278 q 243 160 233 183 q 276 126 253 136 q 347 117 300 117 l 425 117 q 635 213 601 117 m 300 778 q 266 792 281 778 q 251 826 251 807 q 265 860 251 846 l 367 961 q 428 988 392 988 l 436 988 q 497 961 472 988 l 599 860 q 613 826 613 846 q 598 792 613 807 q 564 778 583 778 q 529 792 542 778 l 440 890 l 424 890 l 335 792 q 300 778 321 778 m 500 1015 q 460 1027 479 1015 q 419 1060 442 1039 q 393 1081 406 1072 q 371 1090 381 1090 q 349 1082 358 1090 q 332 1053 340 1074 q 289 1018 314 1018 q 268 1022 279 1018 q 238 1057 238 1035 q 243 1081 238 1069 q 290 1157 263 1135 q 364 1179 318 1179 q 403 1167 382 1179 q 453 1131 424 1154 q 499 1103 488 1103 q 510 1108 506 1103 q 517 1117 514 1113 q 522 1125 521 1122 q 565 1163 536 1163 q 583 1160 576 1163 q 617 1125 617 1150 q 613 1103 617 1115 q 500 1015 574 1015 z "},"ȁ":{"ha":889,"x_min":117,"x_max":758,"o":"m 254 933 q 240 965 240 947 q 258 997 240 983 q 289 1010 274 1010 q 322 992 308 1010 l 414 882 q 426 851 426 868 q 408 818 426 832 q 376 804 393 804 q 344 822 358 804 l 254 933 m 415 933 q 401 965 401 947 q 419 997 401 983 q 450 1010 435 1010 q 483 992 469 1010 l 575 882 q 588 851 588 868 q 569 818 588 832 q 538 804 554 804 q 506 822 519 804 l 415 933 m 486 704 q 692 638 625 704 q 758 432 758 571 l 758 58 q 743 15 758 31 q 700 0 728 0 q 657 15 672 0 q 642 58 642 31 l 642 90 q 425 0 568 0 l 347 0 q 174 57 231 0 q 117 231 117 114 q 173 404 117 347 q 347 461 229 461 l 640 461 q 603 560 636 533 q 486 588 569 588 l 406 588 q 302 578 336 588 q 254 544 268 568 q 228 504 242 515 q 189 493 214 493 q 148 506 164 493 q 132 539 132 518 q 133 553 132 547 q 220 667 154 631 q 406 704 286 704 l 486 704 m 635 213 q 638 222 636 217 q 642 232 639 226 l 642 344 l 347 344 q 276 335 300 344 q 243 301 253 325 q 233 231 233 278 q 243 160 233 183 q 276 126 253 136 q 347 117 300 117 l 425 117 q 635 213 601 117 z "},"ä":{"ha":889,"x_min":117,"x_max":758,"o":"m 486 704 q 692 638 625 704 q 758 432 758 571 l 758 58 q 743 15 758 31 q 700 0 728 0 q 657 15 672 0 q 642 58 642 31 l 642 90 q 425 0 568 0 l 347 0 q 174 57 231 0 q 117 231 117 114 q 173 404 117 347 q 347 461 229 461 l 640 461 q 603 560 636 533 q 486 588 569 588 l 406 588 q 302 578 336 588 q 254 544 268 568 q 228 504 242 515 q 189 493 214 493 q 148 506 164 493 q 132 539 132 518 q 133 553 132 547 q 220 667 154 631 q 406 704 286 704 l 486 704 m 635 213 q 638 222 636 217 q 642 232 639 226 l 642 344 l 347 344 q 276 335 300 344 q 243 301 253 325 q 233 231 233 278 q 243 160 233 183 q 276 126 253 136 q 347 117 300 117 l 425 117 q 635 213 601 117 m 301 807 q 260 822 275 807 q 246 863 246 836 l 246 897 q 260 938 246 924 q 301 951 275 951 l 335 951 q 388 897 388 951 l 388 863 q 374 822 388 836 q 335 807 361 807 l 301 807 m 533 807 q 492 822 507 807 q 478 863 478 836 l 478 897 q 492 938 478 924 q 533 951 507 951 l 567 951 q 619 897 619 951 l 619 863 q 606 822 619 836 q 567 807 593 807 l 533 807 z "},"ạ":{"ha":889,"x_min":117,"x_max":758,"o":"m 486 704 q 692 638 625 704 q 758 432 758 571 l 758 58 q 743 15 758 31 q 700 0 728 0 q 657 15 672 0 q 642 58 642 31 l 642 90 q 425 0 568 0 l 347 0 q 174 57 231 0 q 117 231 117 114 q 173 404 117 347 q 347 461 229 461 l 640 461 q 603 560 636 533 q 486 588 569 588 l 406 588 q 302 578 336 588 q 254 544 268 568 q 228 504 242 515 q 189 493 214 493 q 148 506 164 493 q 132 539 132 518 q 133 553 132 547 q 220 667 154 631 q 406 704 286 704 l 486 704 m 635 213 q 638 222 636 217 q 642 232 639 226 l 642 344 l 347 344 q 276 335 300 344 q 243 301 253 325 q 233 231 233 278 q 243 160 233 183 q 276 126 253 136 q 347 117 300 117 l 425 117 q 635 213 601 117 m 417 -218 q 376 -203 390 -218 q 361 -162 361 -189 l 361 -128 q 376 -87 361 -101 q 417 -74 390 -74 l 450 -74 q 503 -128 503 -74 l 503 -162 q 490 -203 503 -189 q 450 -218 476 -218 l 417 -218 z "},"à":{"ha":889,"x_min":117,"x_max":758,"o":"m 486 704 q 692 638 625 704 q 758 432 758 571 l 758 58 q 743 15 758 31 q 700 0 728 0 q 657 15 672 0 q 642 58 642 31 l 642 90 q 425 0 568 0 l 347 0 q 174 57 231 0 q 117 231 117 114 q 173 404 117 347 q 347 461 229 461 l 640 461 q 603 560 636 533 q 486 588 569 588 l 406 588 q 302 578 336 588 q 254 544 268 568 q 228 504 242 515 q 189 493 214 493 q 148 506 164 493 q 132 539 132 518 q 133 553 132 547 q 220 667 154 631 q 406 704 286 704 l 486 704 m 635 213 q 638 222 636 217 q 642 232 639 226 l 642 344 l 347 344 q 276 335 300 344 q 243 301 253 325 q 233 231 233 278 q 243 160 233 183 q 276 126 253 136 q 347 117 300 117 l 425 117 q 635 213 601 117 m 493 765 q 458 751 475 751 q 422 771 438 751 l 321 893 q 307 928 307 908 q 326 964 307 949 q 361 978 342 978 q 397 958 382 978 l 499 836 q 513 801 513 821 q 493 765 513 781 z "},"ả":{"ha":889,"x_min":117,"x_max":758,"o":"m 486 704 q 692 638 625 704 q 758 432 758 571 l 758 58 q 743 15 758 31 q 700 0 728 0 q 657 15 672 0 q 642 58 642 31 l 642 90 q 425 0 568 0 l 347 0 q 174 57 231 0 q 117 231 117 114 q 173 404 117 347 q 347 461 229 461 l 640 461 q 603 560 636 533 q 486 588 569 588 l 406 588 q 302 578 336 588 q 254 544 268 568 q 228 504 242 515 q 189 493 214 493 q 148 506 164 493 q 132 539 132 518 q 133 553 132 547 q 220 667 154 631 q 406 704 286 704 l 486 704 m 635 213 q 638 222 636 217 q 642 232 639 226 l 642 344 l 347 344 q 276 335 300 344 q 243 301 253 325 q 233 231 233 278 q 243 160 233 183 q 276 126 253 136 q 347 117 300 117 l 425 117 q 635 213 601 117 m 432 778 q 401 785 410 778 q 393 815 393 793 q 412 876 393 854 q 460 915 431 897 q 482 931 478 926 q 486 943 486 935 q 477 983 486 974 q 439 992 468 992 q 401 983 410 992 q 392 943 392 974 q 383 913 392 921 q 353 904 375 904 q 322 913 331 904 q 314 943 314 921 q 439 1068 314 1068 q 564 943 564 1068 q 546 885 564 906 q 500 847 528 864 q 476 831 481 836 q 471 815 471 825 q 463 785 471 793 q 432 778 454 778 z "},"ȃ":{"ha":889,"x_min":117,"x_max":758,"o":"m 486 704 q 692 638 625 704 q 758 432 758 571 l 758 58 q 743 15 758 31 q 700 0 728 0 q 657 15 672 0 q 642 58 642 31 l 642 90 q 425 0 568 0 l 347 0 q 174 57 231 0 q 117 231 117 114 q 173 404 117 347 q 347 461 229 461 l 640 461 q 603 560 636 533 q 486 588 569 588 l 406 588 q 302 578 336 588 q 254 544 268 568 q 228 504 242 515 q 189 493 214 493 q 148 506 164 493 q 132 539 132 518 q 133 553 132 547 q 220 667 154 631 q 406 704 286 704 l 486 704 m 635 213 q 638 222 636 217 q 642 232 639 226 l 642 344 l 347 344 q 276 335 300 344 q 243 301 253 325 q 233 231 233 278 q 243 160 233 183 q 276 126 253 136 q 347 117 300 117 l 425 117 q 635 213 601 117 m 431 1043 q 572 1008 522 1043 q 622 910 622 974 l 622 881 q 571 829 622 829 q 534 838 547 829 q 521 864 521 847 l 521 910 q 503 940 521 931 q 440 949 486 949 q 362 940 382 949 q 342 910 342 932 l 342 881 q 290 829 342 829 q 253 842 267 829 q 240 881 240 856 l 240 910 q 290 1008 240 974 q 431 1043 339 1043 z "},"ā":{"ha":889,"x_min":117,"x_max":758,"o":"m 486 704 q 692 638 625 704 q 758 432 758 571 l 758 58 q 743 15 758 31 q 700 0 728 0 q 657 15 672 0 q 642 58 642 31 l 642 90 q 425 0 568 0 l 347 0 q 174 57 231 0 q 117 231 117 114 q 173 404 117 347 q 347 461 229 461 l 640 461 q 603 560 636 533 q 486 588 569 588 l 406 588 q 302 578 336 588 q 254 544 268 568 q 228 504 242 515 q 189 493 214 493 q 148 506 164 493 q 132 539 132 518 q 133 553 132 547 q 220 667 154 631 q 406 704 286 704 l 486 704 m 635 213 q 638 222 636 217 q 642 232 639 226 l 642 344 l 347 344 q 276 335 300 344 q 243 301 253 325 q 233 231 233 278 q 243 160 233 183 q 276 126 253 136 q 347 117 300 117 l 425 117 q 635 213 601 117 m 249 821 q 190 879 190 821 q 249 938 190 938 l 600 938 q 658 879 658 938 q 600 821 658 821 l 249 821 z "},"ą":{"ha":889,"x_min":117,"x_max":849,"o":"m 797 -112 q 834 -127 819 -112 q 849 -162 849 -142 q 835 -199 849 -185 q 768 -244 804 -228 q 694 -261 732 -261 q 592 -223 633 -261 q 551 -129 551 -185 q 586 -36 551 -82 l 643 46 q 642 58 642 50 l 642 90 q 425 0 568 0 l 347 0 q 174 57 231 0 q 117 231 117 114 q 173 404 117 347 q 347 461 229 461 l 640 461 q 603 560 636 533 q 486 588 569 588 l 406 588 q 302 578 336 588 q 254 544 268 568 q 228 504 242 515 q 189 493 214 493 q 148 506 164 493 q 132 539 132 518 q 133 553 132 547 q 220 667 154 631 q 406 704 286 704 l 486 704 q 692 638 625 704 q 758 432 758 571 l 758 58 q 747 19 758 35 q 742 11 744 14 l 668 -96 q 653 -129 653 -112 q 665 -151 653 -143 q 694 -160 676 -160 q 761 -126 731 -160 q 797 -112 781 -112 m 635 213 q 638 222 636 217 q 642 232 639 226 l 642 344 l 347 344 q 276 335 300 344 q 243 301 253 325 q 233 231 233 278 q 243 160 233 183 q 276 126 253 136 q 347 117 300 117 l 425 117 q 635 213 601 117 z "},"å":{"ha":889,"x_min":117,"x_max":758,"o":"m 486 704 q 692 638 625 704 q 758 432 758 571 l 758 58 q 743 15 758 31 q 700 0 728 0 q 657 15 672 0 q 642 58 642 31 l 642 90 q 425 0 568 0 l 347 0 q 174 57 231 0 q 117 231 117 114 q 173 404 117 347 q 347 461 229 461 l 640 461 q 603 560 636 533 q 486 588 569 588 l 406 588 q 302 578 336 588 q 254 544 268 568 q 228 504 242 515 q 189 493 214 493 q 148 506 164 493 q 132 539 132 518 q 133 553 132 547 q 220 667 154 631 q 406 704 286 704 l 486 704 m 635 213 q 638 222 636 217 q 642 232 639 226 l 642 344 l 347 344 q 276 335 300 344 q 243 301 253 325 q 233 231 233 278 q 243 160 233 183 q 276 126 253 136 q 347 117 300 117 l 425 117 q 635 213 601 117 m 435 775 q 357 803 386 775 q 328 882 328 832 q 357 960 328 932 q 435 989 386 989 q 514 960 485 989 q 543 882 543 932 q 514 803 543 832 q 435 775 485 775 m 424 854 q 456 856 450 854 q 463 868 463 858 l 463 890 q 460 907 463 904 q 447 910 458 910 l 438 910 q 411 907 415 910 q 407 892 407 904 l 407 882 q 410 858 407 863 q 424 854 413 854 z "},"ǻ":{"ha":889,"x_min":117,"x_max":758,"o":"m 486 704 q 692 638 625 704 q 758 432 758 571 l 758 58 q 743 15 758 31 q 700 0 728 0 q 657 15 672 0 q 642 58 642 31 l 642 90 q 425 0 568 0 l 347 0 q 174 57 231 0 q 117 231 117 114 q 173 404 117 347 q 347 461 229 461 l 640 461 q 603 560 636 533 q 486 588 569 588 l 406 588 q 302 578 336 588 q 254 544 268 568 q 228 504 242 515 q 189 493 214 493 q 148 506 164 493 q 132 539 132 518 q 133 553 132 547 q 220 667 154 631 q 406 704 286 704 l 486 704 m 635 213 q 638 222 636 217 q 642 232 639 226 l 642 344 l 347 344 q 276 335 300 344 q 243 301 253 325 q 233 231 233 278 q 243 160 233 183 q 276 126 253 136 q 347 117 300 117 l 425 117 q 635 213 601 117 m 435 775 q 357 803 386 775 q 328 882 328 832 q 357 960 328 932 q 435 989 386 989 q 514 960 485 989 q 543 882 543 932 q 514 803 543 832 q 435 775 485 775 m 424 854 q 456 856 450 854 q 463 868 463 858 l 463 890 q 460 907 463 904 q 447 910 458 910 l 438 910 q 411 907 415 910 q 407 892 407 904 l 407 882 q 410 858 407 863 q 424 854 413 854 m 403 1061 q 383 1097 383 1076 q 397 1132 383 1117 l 499 1254 q 535 1274 514 1274 q 569 1260 554 1274 q 589 1224 589 1244 q 575 1189 589 1204 l 474 1067 q 438 1047 458 1047 q 403 1061 421 1047 z "},"ã":{"ha":889,"x_min":117,"x_max":758,"o":"m 486 704 q 692 638 625 704 q 758 432 758 571 l 758 58 q 743 15 758 31 q 700 0 728 0 q 657 15 672 0 q 642 58 642 31 l 642 90 q 425 0 568 0 l 347 0 q 174 57 231 0 q 117 231 117 114 q 173 404 117 347 q 347 461 229 461 l 640 461 q 603 560 636 533 q 486 588 569 588 l 406 588 q 302 578 336 588 q 254 544 268 568 q 228 504 242 515 q 189 493 214 493 q 148 506 164 493 q 132 539 132 518 q 133 553 132 547 q 220 667 154 631 q 406 704 286 704 l 486 704 m 635 213 q 638 222 636 217 q 642 232 639 226 l 642 344 l 347 344 q 276 335 300 344 q 243 301 253 325 q 233 231 233 278 q 243 160 233 183 q 276 126 253 136 q 347 117 300 117 l 425 117 q 635 213 601 117 m 532 782 q 467 797 492 782 q 417 839 443 813 q 388 864 399 858 q 365 869 378 869 q 311 826 329 869 q 269 790 296 790 q 247 794 260 790 q 217 829 217 806 q 222 853 217 842 q 280 936 246 910 q 365 963 314 963 q 431 947 406 963 q 483 904 457 931 q 510 881 501 886 q 532 876 518 876 q 555 883 546 876 q 572 911 564 890 q 615 950 588 950 q 633 947 619 950 q 667 911 667 939 q 663 890 667 903 q 611 808 643 835 q 532 782 579 782 z "},"æ":{"ha":1342,"x_min":117,"x_max":1231,"o":"m 879 -31 q 661 89 729 -31 q 551 2 618 32 q 397 -28 485 -28 l 347 -28 q 174 29 231 -28 q 117 203 117 86 q 174 376 117 319 q 347 433 231 433 l 614 433 q 573 528 607 503 q 458 554 539 554 l 406 554 q 306 545 340 554 q 258 516 272 536 q 244 460 244 496 q 227 419 244 436 q 186 401 210 401 q 145 419 163 401 q 128 460 128 436 q 196 619 128 568 q 406 671 264 671 l 458 671 q 672 564 604 671 q 881 669 739 671 l 964 669 q 1165 597 1100 669 q 1231 375 1231 525 q 1215 332 1231 347 q 1171 317 1200 317 l 731 317 l 731 244 q 744 148 731 182 q 790 100 758 114 q 879 86 821 86 l 964 86 q 1056 96 1024 86 q 1101 127 1089 106 q 1114 188 1114 149 q 1131 228 1114 211 q 1172 246 1149 246 q 1213 228 1196 246 q 1231 188 1231 211 q 1165 22 1231 75 q 964 -31 1099 -31 l 879 -31 m 1110 433 q 1069 526 1101 500 q 964 553 1036 553 l 881 553 q 770 528 803 554 q 732 433 738 503 l 1110 433 m 397 89 q 562 126 510 89 q 614 239 614 163 l 614 317 l 347 317 q 276 307 300 317 q 243 274 253 297 q 233 203 233 250 q 243 132 233 156 q 276 99 253 108 q 347 89 300 89 l 397 89 z "},"ǽ":{"ha":1342,"x_min":117,"x_max":1231,"o":"m 879 -31 q 661 89 729 -31 q 551 2 618 32 q 397 -28 485 -28 l 347 -28 q 174 29 231 -28 q 117 203 117 86 q 174 376 117 319 q 347 433 231 433 l 614 433 q 573 528 607 503 q 458 554 539 554 l 406 554 q 306 545 340 554 q 258 516 272 536 q 244 460 244 496 q 227 419 244 436 q 186 401 210 401 q 145 419 163 401 q 128 460 128 436 q 196 619 128 568 q 406 671 264 671 l 458 671 q 672 564 604 671 q 881 669 739 671 l 964 669 q 1165 597 1100 669 q 1231 375 1231 525 q 1215 332 1231 347 q 1171 317 1200 317 l 731 317 l 731 244 q 744 148 731 182 q 790 100 758 114 q 879 86 821 86 l 964 86 q 1056 96 1024 86 q 1101 127 1089 106 q 1114 188 1114 149 q 1131 228 1114 211 q 1172 246 1149 246 q 1213 228 1196 246 q 1231 188 1231 211 q 1165 22 1231 75 q 964 -31 1099 -31 l 879 -31 m 1110 433 q 1069 526 1101 500 q 964 553 1036 553 l 881 553 q 770 528 803 554 q 732 433 738 503 l 1110 433 m 397 89 q 562 126 510 89 q 614 239 614 163 l 614 317 l 347 317 q 276 307 300 317 q 243 274 253 297 q 233 203 233 250 q 243 132 233 156 q 276 99 253 108 q 347 89 300 89 l 397 89 m 644 790 q 625 826 625 806 q 639 861 625 846 l 740 983 q 776 1003 756 1003 q 811 989 796 1003 q 831 953 831 974 q 817 918 831 933 l 715 796 q 679 776 700 776 q 644 790 663 776 z "},"b":{"ha":914,"x_min":144,"x_max":803,"o":"m 531 704 q 736 638 669 704 q 803 432 803 571 l 803 272 q 736 67 803 133 q 531 0 669 0 l 478 0 q 261 74 335 0 l 261 58 q 246 15 261 31 q 203 0 231 0 q 160 15 175 0 q 144 58 144 31 l 144 919 q 160 963 144 947 q 203 978 175 978 q 246 963 231 978 q 261 919 261 947 l 261 631 q 478 704 335 704 l 531 704 m 686 432 q 672 526 686 493 q 625 574 658 560 q 531 588 592 588 l 478 588 q 322 563 382 588 q 261 492 261 539 l 261 213 q 322 141 261 165 q 478 117 382 117 l 531 117 q 625 131 592 117 q 672 178 658 144 q 686 272 686 211 l 686 432 z "},"c":{"ha":821,"x_min":111,"x_max":738,"o":"m 383 0 q 178 67 244 0 q 111 272 111 133 l 111 433 q 178 639 111 572 q 383 704 244 706 l 497 704 q 736 563 703 704 q 738 549 738 557 q 722 514 738 526 q 679 501 706 501 q 641 514 654 501 q 617 554 628 526 q 579 580 607 572 q 497 588 551 588 l 383 588 q 289 575 322 589 q 242 528 256 561 q 228 433 228 494 l 228 272 q 242 178 228 211 q 289 131 256 144 q 383 117 322 117 l 497 117 q 579 124 551 117 q 617 150 607 132 q 641 191 628 179 q 681 203 654 203 q 722 190 706 203 q 738 156 738 178 q 736 142 738 147 q 497 0 703 0 l 383 0 z "},"ć":{"ha":821,"x_min":111,"x_max":738,"o":"m 383 0 q 178 67 244 0 q 111 272 111 133 l 111 433 q 178 639 111 572 q 383 704 244 706 l 497 704 q 736 563 703 704 q 738 549 738 557 q 722 514 738 526 q 679 501 706 501 q 641 514 654 501 q 617 554 628 526 q 579 580 607 572 q 497 588 551 588 l 383 588 q 289 575 322 589 q 242 528 256 561 q 228 433 228 494 l 228 272 q 242 178 228 211 q 289 131 256 144 q 383 117 322 117 l 497 117 q 579 124 551 117 q 617 150 607 132 q 641 191 628 179 q 681 203 654 203 q 722 190 706 203 q 738 156 738 178 q 736 142 738 147 q 497 0 703 0 l 383 0 m 408 790 q 389 826 389 806 q 403 861 389 846 l 504 983 q 540 1003 519 1003 q 575 989 560 1003 q 594 953 594 974 q 581 918 594 933 l 479 796 q 443 776 464 776 q 408 790 426 776 z "},"č":{"ha":821,"x_min":111,"x_max":738,"o":"m 383 0 q 178 67 244 0 q 111 272 111 133 l 111 433 q 178 639 111 572 q 383 704 244 706 l 497 704 q 736 563 703 704 q 738 549 738 557 q 722 514 738 526 q 679 501 706 501 q 641 514 654 501 q 617 554 628 526 q 579 580 607 572 q 497 588 551 588 l 383 588 q 289 575 322 589 q 242 528 256 561 q 228 433 228 494 l 228 272 q 242 178 228 211 q 289 131 256 144 q 383 117 322 117 l 497 117 q 579 124 551 117 q 617 150 607 132 q 641 191 628 179 q 681 203 654 203 q 722 190 706 203 q 738 156 738 178 q 736 142 738 147 q 497 0 703 0 l 383 0 m 306 988 q 340 974 326 988 l 429 875 l 446 875 l 535 974 q 569 988 547 988 q 603 973 589 988 q 618 939 618 958 q 604 906 618 919 l 503 804 q 442 778 478 778 l 433 778 q 372 804 397 778 l 271 906 q 257 939 257 919 q 272 973 257 958 q 306 988 286 988 z "},"ç":{"ha":821,"x_min":111,"x_max":738,"o":"m 681 203 q 722 190 706 203 q 738 156 738 178 q 736 142 738 147 q 542 1 707 17 q 568 -21 547 -7 q 619 -67 599 -42 q 639 -135 639 -92 q 476 -297 639 -297 q 376 -262 411 -297 q 342 -162 342 -228 q 390 -114 342 -114 q 439 -162 439 -114 q 445 -194 439 -187 q 476 -200 451 -200 q 529 -188 517 -200 q 542 -135 542 -176 q 537 -119 542 -125 q 514 -100 532 -112 q 467 -60 488 -83 q 442 0 447 -37 l 383 0 q 178 67 244 0 q 111 272 111 133 l 111 433 q 178 639 111 572 q 383 704 244 706 l 497 704 q 736 563 703 704 q 738 549 738 557 q 722 514 738 526 q 679 501 706 501 q 641 514 654 501 q 617 554 628 526 q 579 580 607 572 q 497 588 551 588 l 383 588 q 289 575 322 589 q 242 528 256 561 q 228 433 228 494 l 228 272 q 242 178 228 211 q 289 131 256 144 q 383 117 322 117 l 497 117 q 579 124 551 117 q 617 150 607 132 q 641 191 628 179 q 681 203 654 203 z "},"ĉ":{"ha":821,"x_min":111,"x_max":738,"o":"m 383 0 q 178 67 244 0 q 111 272 111 133 l 111 433 q 178 639 111 572 q 383 704 244 706 l 497 704 q 736 563 703 704 q 738 549 738 557 q 722 514 738 526 q 679 501 706 501 q 641 514 654 501 q 617 554 628 526 q 579 580 607 572 q 497 588 551 588 l 383 588 q 289 575 322 589 q 242 528 256 561 q 228 433 228 494 l 228 272 q 242 178 228 211 q 289 131 256 144 q 383 117 322 117 l 497 117 q 579 124 551 117 q 617 150 607 132 q 641 191 628 179 q 681 203 654 203 q 722 190 706 203 q 738 156 738 178 q 736 142 738 147 q 497 0 703 0 l 383 0 m 308 778 q 274 792 289 778 q 260 826 260 807 q 274 860 260 846 l 375 961 q 436 988 400 988 l 444 988 q 506 961 481 988 l 607 860 q 621 826 621 846 q 606 792 621 807 q 572 778 592 778 q 538 792 550 778 l 449 890 l 432 890 l 343 792 q 308 778 329 778 z "},"ċ":{"ha":821,"x_min":111,"x_max":738,"o":"m 383 0 q 178 67 244 0 q 111 272 111 133 l 111 433 q 178 639 111 572 q 383 704 244 706 l 497 704 q 736 563 703 704 q 738 549 738 557 q 722 514 738 526 q 679 501 706 501 q 641 514 654 501 q 617 554 628 526 q 579 580 607 572 q 497 588 551 588 l 383 588 q 289 575 322 589 q 242 528 256 561 q 228 433 228 494 l 228 272 q 242 178 228 211 q 289 131 256 144 q 383 117 322 117 l 497 117 q 579 124 551 117 q 617 150 607 132 q 641 191 628 179 q 681 203 654 203 q 722 190 706 203 q 738 156 738 178 q 736 142 738 147 q 497 0 703 0 l 383 0 m 421 818 q 372 836 389 818 q 354 885 354 854 l 354 926 q 372 974 354 958 q 421 990 389 990 l 461 990 q 524 926 524 990 l 524 885 q 508 835 524 853 q 461 818 492 818 l 421 818 z "},"d":{"ha":900,"x_min":111,"x_max":769,"o":"m 711 978 q 754 963 739 978 q 769 919 769 947 l 769 58 q 754 15 769 31 q 711 0 739 0 q 668 15 683 0 q 653 58 653 31 l 653 68 q 566 17 618 33 q 436 0 514 0 l 383 0 q 178 67 244 0 q 111 272 111 133 l 111 432 q 178 638 111 571 q 383 704 244 704 l 653 704 l 653 919 q 668 963 653 947 q 711 978 683 978 m 436 117 q 592 141 532 117 q 653 213 653 165 l 653 588 l 383 588 q 289 574 322 588 q 242 526 256 560 q 228 432 228 493 l 228 272 q 242 178 228 211 q 289 131 256 144 q 383 117 322 117 l 436 117 z "},"ð":{"ha":881,"x_min":111,"x_max":769,"o":"m 569 936 q 717 803 671 913 q 769 471 764 694 l 769 272 q 703 67 769 133 q 497 0 636 0 l 383 0 q 178 66 244 0 q 111 271 111 132 l 111 432 q 178 637 111 571 q 383 704 244 703 l 497 704 q 642 643 581 704 q 606 776 631 739 q 539 822 582 813 l 438 847 l 361 775 q 326 758 344 758 q 290 776 307 758 q 274 813 274 793 q 292 847 274 831 l 324 876 l 215 904 q 169 956 169 917 q 172 976 169 963 q 222 1021 185 1021 q 243 1018 229 1021 l 424 972 l 496 1040 q 531 1057 513 1057 q 567 1039 550 1057 q 583 1004 583 1022 q 565 968 583 985 l 539 943 l 569 936 m 653 418 q 641 522 653 486 q 596 572 629 557 q 497 588 563 588 l 383 588 q 288 573 321 586 q 242 527 256 560 q 228 432 228 494 l 228 271 q 242 177 228 210 q 289 131 256 144 q 383 117 322 117 l 497 117 q 592 131 558 117 q 639 178 625 144 q 653 272 653 211 l 653 418 z "},"ď":{"ha":964,"x_min":111,"x_max":1036,"o":"m 711 978 q 754 963 739 978 q 769 919 769 947 l 769 58 q 754 15 769 31 q 711 0 739 0 q 668 15 683 0 q 653 58 653 31 l 653 68 q 566 17 618 33 q 436 0 514 0 l 383 0 q 178 67 244 0 q 111 272 111 133 l 111 432 q 178 638 111 571 q 383 704 244 704 l 653 704 l 653 919 q 668 963 653 947 q 711 978 683 978 m 436 117 q 592 141 532 117 q 653 213 653 165 l 653 588 l 383 588 q 289 574 322 588 q 242 526 256 560 q 228 432 228 493 l 228 272 q 242 178 228 211 q 289 131 256 144 q 383 117 322 117 l 436 117 m 1036 925 q 1033 906 1036 917 l 1035 904 l 971 774 q 933 750 957 750 q 904 759 915 750 q 896 788 893 768 l 925 949 l 925 950 q 968 990 925 990 l 994 990 q 1036 950 1036 990 l 1036 925 z "},"đ":{"ha":900,"x_min":111,"x_max":882,"o":"m 833 875 q 869 863 857 875 q 882 826 882 850 q 869 790 882 803 q 833 778 857 778 l 769 778 l 769 58 q 754 15 769 31 q 711 0 739 0 q 668 15 683 0 q 653 58 653 31 l 653 68 q 566 17 618 33 q 436 0 514 0 l 383 0 q 178 67 244 0 q 111 272 111 133 l 111 432 q 178 638 111 571 q 383 704 244 704 l 653 704 l 653 778 l 469 778 q 434 791 447 778 q 421 826 421 804 q 434 863 421 850 q 469 875 447 875 l 653 875 l 653 919 q 668 963 653 947 q 711 978 683 978 q 754 963 739 978 q 769 919 769 947 l 769 875 l 833 875 m 436 117 q 592 141 532 117 q 653 213 653 165 l 653 588 l 383 588 q 289 574 322 588 q 242 526 256 560 q 228 432 228 493 l 228 272 q 242 178 228 211 q 289 131 256 144 q 383 117 322 117 l 436 117 z "},"ǳ":{"ha":1589,"x_min":111,"x_max":1539,"o":"m 711 978 q 754 963 739 978 q 769 919 769 947 l 769 58 q 754 15 769 31 q 711 0 739 0 q 668 15 683 0 q 653 58 653 31 l 653 68 q 566 17 618 33 q 436 0 514 0 l 383 0 q 178 67 244 0 q 111 272 111 133 l 111 432 q 178 638 111 571 q 383 704 244 704 l 653 704 l 653 919 q 668 963 653 947 q 711 978 683 978 m 436 117 q 592 141 532 117 q 653 213 653 165 l 653 588 l 383 588 q 289 574 322 588 q 242 526 256 560 q 228 432 228 493 l 228 272 q 242 178 228 211 q 289 131 256 144 q 383 117 322 117 l 436 117 m 1481 200 q 1523 188 1507 200 q 1539 153 1539 175 q 1538 139 1539 144 q 1473 35 1522 71 q 1343 0 1424 0 l 983 0 q 940 15 956 0 q 925 58 925 31 q 950 115 925 85 l 1328 588 l 1090 588 q 1038 582 1054 588 q 1013 560 1021 576 q 992 517 1004 531 q 953 504 979 504 q 910 517 925 504 q 894 553 894 529 q 896 565 894 561 q 1090 704 922 704 l 1431 704 q 1489 646 1489 704 q 1464 588 1489 618 l 1089 118 l 1343 117 q 1394 123 1376 117 q 1419 146 1411 129 q 1442 188 1429 175 q 1481 200 1456 200 z "},"ǆ":{"ha":1589,"x_min":111,"x_max":1539,"o":"m 711 978 q 754 963 739 978 q 769 919 769 947 l 769 58 q 754 15 769 31 q 711 0 739 0 q 668 15 683 0 q 653 58 653 31 l 653 68 q 566 17 618 33 q 436 0 514 0 l 383 0 q 178 67 244 0 q 111 272 111 133 l 111 432 q 178 638 111 571 q 383 704 244 704 l 653 704 l 653 919 q 668 963 653 947 q 711 978 683 978 m 436 117 q 592 141 532 117 q 653 213 653 165 l 653 588 l 383 588 q 289 574 322 588 q 242 526 256 560 q 228 432 228 493 l 228 272 q 242 178 228 211 q 289 131 256 144 q 383 117 322 117 l 436 117 m 1481 200 q 1523 188 1507 200 q 1539 153 1539 175 q 1538 139 1539 144 q 1473 35 1522 71 q 1343 0 1424 0 l 983 0 q 940 15 956 0 q 925 58 925 31 q 950 115 925 85 l 1328 588 l 1090 588 q 1038 582 1054 588 q 1013 560 1021 576 q 992 517 1004 531 q 953 504 979 504 q 910 517 925 504 q 894 553 894 529 q 896 565 894 561 q 1090 704 922 704 l 1431 704 q 1489 646 1489 704 q 1464 588 1489 618 l 1089 118 l 1343 117 q 1394 123 1376 117 q 1419 146 1411 129 q 1442 188 1429 175 q 1481 200 1456 200 m 1093 988 q 1128 974 1114 988 l 1217 875 l 1233 875 l 1322 974 q 1357 988 1335 988 q 1391 973 1376 988 q 1406 939 1406 958 q 1392 906 1406 919 l 1290 804 q 1229 778 1265 778 l 1221 778 q 1160 804 1185 778 l 1058 906 q 1044 939 1044 919 q 1059 973 1044 958 q 1093 988 1074 988 z "},"e":{"ha":881,"x_min":111,"x_max":769,"o":"m 228 304 l 228 271 q 242 177 228 210 q 289 131 256 144 q 383 117 322 117 l 497 117 q 602 130 568 117 q 647 176 636 143 q 669 217 656 204 q 710 231 683 231 q 751 219 736 231 q 765 185 765 207 q 764 171 765 175 q 497 0 733 0 l 383 0 q 178 67 244 0 q 111 271 111 133 l 111 432 q 178 639 111 572 q 383 704 244 706 l 497 704 q 703 638 636 704 q 769 432 769 571 l 769 363 q 754 319 769 335 q 711 304 739 304 l 228 304 m 228 421 l 653 421 l 653 432 q 639 526 653 493 q 592 574 625 560 q 497 588 558 588 l 383 588 q 289 575 322 589 q 242 528 256 561 q 228 432 228 494 l 228 421 z "},"é":{"ha":881,"x_min":111,"x_max":769,"o":"m 228 304 l 228 271 q 242 177 228 210 q 289 131 256 144 q 383 117 322 117 l 497 117 q 602 130 568 117 q 647 176 636 143 q 669 217 656 204 q 710 231 683 231 q 751 219 736 231 q 765 185 765 207 q 764 171 765 175 q 497 0 733 0 l 383 0 q 178 67 244 0 q 111 271 111 133 l 111 432 q 178 639 111 572 q 383 704 244 706 l 497 704 q 703 638 636 704 q 769 432 769 571 l 769 363 q 754 319 769 335 q 711 304 739 304 l 228 304 m 228 421 l 653 421 l 653 432 q 639 526 653 493 q 592 574 625 560 q 497 588 558 588 l 383 588 q 289 575 322 589 q 242 528 256 561 q 228 432 228 494 l 228 421 m 411 790 q 392 826 392 806 q 406 861 392 846 l 507 983 q 543 1003 522 1003 q 578 989 563 1003 q 597 953 597 974 q 583 918 597 933 l 482 796 q 446 776 467 776 q 411 790 429 776 z "},"ĕ":{"ha":881,"x_min":111,"x_max":769,"o":"m 228 304 l 228 271 q 242 177 228 210 q 289 131 256 144 q 383 117 322 117 l 497 117 q 602 130 568 117 q 647 176 636 143 q 669 217 656 204 q 710 231 683 231 q 751 219 736 231 q 765 185 765 207 q 764 171 765 175 q 497 0 733 0 l 383 0 q 178 67 244 0 q 111 271 111 133 l 111 432 q 178 639 111 572 q 383 704 244 706 l 497 704 q 703 638 636 704 q 769 432 769 571 l 769 363 q 754 319 769 335 q 711 304 739 304 l 228 304 m 228 421 l 653 421 l 653 432 q 639 526 653 493 q 592 574 625 560 q 497 588 558 588 l 383 588 q 289 575 322 589 q 242 528 256 561 q 228 432 228 494 l 228 421 m 463 769 q 322 804 371 769 q 272 903 272 839 l 272 932 q 285 970 272 957 q 322 983 299 983 q 374 932 374 983 l 374 903 q 394 872 374 881 q 472 864 414 864 q 535 873 518 864 q 553 903 553 882 l 553 949 q 566 974 553 965 q 603 983 579 983 q 654 932 654 983 l 654 903 q 604 804 654 839 q 463 769 554 769 z "},"ě":{"ha":881,"x_min":111,"x_max":769,"o":"m 228 304 l 228 271 q 242 177 228 210 q 289 131 256 144 q 383 117 322 117 l 497 117 q 602 130 568 117 q 647 176 636 143 q 669 217 656 204 q 710 231 683 231 q 751 219 736 231 q 765 185 765 207 q 764 171 765 175 q 497 0 733 0 l 383 0 q 178 67 244 0 q 111 271 111 133 l 111 432 q 178 639 111 572 q 383 704 244 706 l 497 704 q 703 638 636 704 q 769 432 769 571 l 769 363 q 754 319 769 335 q 711 304 739 304 l 228 304 m 228 421 l 653 421 l 653 432 q 639 526 653 493 q 592 574 625 560 q 497 588 558 588 l 383 588 q 289 575 322 589 q 242 528 256 561 q 228 432 228 494 l 228 421 m 308 988 q 343 974 329 988 l 432 875 l 449 875 l 538 974 q 572 988 550 988 q 606 973 592 988 q 621 939 621 958 q 607 906 621 919 l 506 804 q 444 778 481 778 l 436 778 q 375 804 400 778 l 274 906 q 260 939 260 919 q 274 973 260 958 q 308 988 289 988 z "},"ê":{"ha":881,"x_min":111,"x_max":769,"o":"m 228 304 l 228 271 q 242 177 228 210 q 289 131 256 144 q 383 117 322 117 l 497 117 q 602 130 568 117 q 647 176 636 143 q 669 217 656 204 q 710 231 683 231 q 751 219 736 231 q 765 185 765 207 q 764 171 765 175 q 497 0 733 0 l 383 0 q 178 67 244 0 q 111 271 111 133 l 111 432 q 178 639 111 572 q 383 704 244 706 l 497 704 q 703 638 636 704 q 769 432 769 571 l 769 363 q 754 319 769 335 q 711 304 739 304 l 228 304 m 228 421 l 653 421 l 653 432 q 639 526 653 493 q 592 574 625 560 q 497 588 558 588 l 383 588 q 289 575 322 589 q 242 528 256 561 q 228 432 228 494 l 228 421 m 311 778 q 277 792 292 778 q 263 826 263 807 q 276 860 263 846 l 378 961 q 439 988 403 988 l 447 988 q 508 961 483 988 l 610 860 q 624 826 624 846 q 609 792 624 807 q 575 778 594 778 q 540 792 553 778 l 451 890 l 435 890 l 346 792 q 311 778 332 778 z "},"ế":{"ha":881,"x_min":111,"x_max":771,"o":"m 228 304 l 228 271 q 242 177 228 210 q 289 131 256 144 q 383 117 322 117 l 497 117 q 602 130 568 117 q 647 176 636 143 q 669 217 656 204 q 710 231 683 231 q 751 219 736 231 q 765 185 765 207 q 764 171 765 175 q 497 0 733 0 l 383 0 q 178 67 244 0 q 111 271 111 133 l 111 432 q 178 639 111 572 q 383 704 244 706 l 497 704 q 703 638 636 704 q 769 432 769 571 l 769 363 q 754 319 769 335 q 711 304 739 304 l 228 304 m 228 421 l 653 421 l 653 432 q 639 526 653 493 q 592 574 625 560 q 497 588 558 588 l 383 588 q 289 575 322 589 q 242 528 256 561 q 228 432 228 494 l 228 421 m 608 885 q 586 922 586 903 q 603 956 586 939 l 678 1033 q 717 1053 697 1053 q 749 1039 733 1053 q 771 1001 771 1021 q 756 968 771 986 l 679 890 q 642 871 660 871 q 608 885 624 871 m 310 778 q 276 792 290 778 q 261 826 261 807 q 275 860 261 846 l 376 961 q 438 988 401 988 l 446 988 q 507 961 482 988 l 608 860 q 622 826 622 846 q 608 792 622 807 q 574 778 593 778 q 539 792 551 778 l 450 890 l 433 890 l 344 792 q 310 778 331 778 z "},"ệ":{"ha":881,"x_min":111,"x_max":769,"o":"m 228 304 l 228 271 q 242 177 228 210 q 289 131 256 144 q 383 117 322 117 l 497 117 q 602 130 568 117 q 647 176 636 143 q 669 217 656 204 q 710 231 683 231 q 751 219 736 231 q 765 185 765 207 q 764 171 765 175 q 497 0 733 0 l 383 0 q 178 67 244 0 q 111 271 111 133 l 111 432 q 178 639 111 572 q 383 704 244 706 l 497 704 q 703 638 636 704 q 769 432 769 571 l 769 363 q 754 319 769 335 q 711 304 739 304 l 228 304 m 228 421 l 653 421 l 653 432 q 639 526 653 493 q 592 574 625 560 q 497 588 558 588 l 383 588 q 289 575 322 589 q 242 528 256 561 q 228 432 228 494 l 228 421 m 426 -218 q 385 -203 400 -218 q 371 -162 371 -189 l 371 -128 q 385 -87 371 -101 q 426 -74 400 -74 l 460 -74 q 513 -128 513 -74 l 513 -162 q 499 -203 513 -189 q 460 -218 486 -218 l 426 -218 m 311 778 q 277 792 292 778 q 263 826 263 807 q 276 860 263 846 l 378 961 q 439 988 403 988 l 447 988 q 508 961 483 988 l 610 860 q 624 826 624 846 q 609 792 624 807 q 575 778 594 778 q 540 792 553 778 l 451 890 l 435 890 l 346 792 q 311 778 332 778 z "},"ề":{"ha":881,"x_min":103,"x_max":769,"o":"m 228 304 l 228 271 q 242 177 228 210 q 289 131 256 144 q 383 117 322 117 l 497 117 q 602 130 568 117 q 647 176 636 143 q 669 217 656 204 q 710 231 683 231 q 751 219 736 231 q 765 185 765 207 q 764 171 765 175 q 497 0 733 0 l 383 0 q 178 67 244 0 q 111 271 111 133 l 111 432 q 178 639 111 572 q 383 704 244 706 l 497 704 q 703 638 636 704 q 769 432 769 571 l 769 363 q 754 319 769 335 q 711 304 739 304 l 228 304 m 228 421 l 653 421 l 653 432 q 639 526 653 493 q 592 574 625 560 q 497 588 558 588 l 383 588 q 289 575 322 589 q 242 528 256 561 q 228 432 228 494 l 228 421 m 264 885 q 231 871 249 871 q 193 890 213 871 l 118 968 q 103 1001 103 983 q 124 1039 103 1022 q 156 1053 139 1053 q 194 1033 175 1053 l 271 956 q 286 922 286 940 q 264 885 286 901 m 308 778 q 274 792 289 778 q 260 826 260 807 q 274 860 260 846 l 375 961 q 436 988 400 988 l 444 988 q 506 961 481 988 l 607 860 q 621 826 621 846 q 606 792 621 807 q 572 778 592 778 q 538 792 550 778 l 449 890 l 432 890 l 343 792 q 308 778 329 778 z "},"ể":{"ha":881,"x_min":111,"x_max":769,"o":"m 228 304 l 228 271 q 242 177 228 210 q 289 131 256 144 q 383 117 322 117 l 497 117 q 602 130 568 117 q 647 176 636 143 q 669 217 656 204 q 710 231 683 231 q 751 219 736 231 q 765 185 765 207 q 764 171 765 175 q 497 0 733 0 l 383 0 q 178 67 244 0 q 111 271 111 133 l 111 432 q 178 639 111 572 q 383 704 244 706 l 497 704 q 703 638 636 704 q 769 432 769 571 l 769 363 q 754 319 769 335 q 711 304 739 304 l 228 304 m 228 421 l 653 421 l 653 432 q 639 526 653 493 q 592 574 625 560 q 497 588 558 588 l 383 588 q 289 575 322 589 q 242 528 256 561 q 228 432 228 494 l 228 421 m 310 778 q 276 792 290 778 q 261 826 261 807 q 275 860 261 846 l 376 961 q 438 988 401 988 l 446 988 q 507 961 482 988 l 608 860 q 622 826 622 846 q 608 792 622 807 q 574 778 593 778 q 539 792 551 778 l 450 890 l 433 890 l 344 792 q 310 778 331 778 m 578 928 q 547 935 556 928 q 539 965 539 943 q 558 1026 539 1004 q 606 1065 576 1047 q 628 1081 624 1076 q 632 1093 632 1085 q 623 1133 632 1124 q 585 1142 614 1142 q 547 1133 556 1142 q 538 1093 538 1124 q 529 1063 538 1071 q 499 1054 521 1054 q 468 1063 476 1054 q 460 1093 460 1071 q 585 1218 460 1218 q 710 1093 710 1218 q 692 1035 710 1056 q 646 997 674 1014 q 622 981 626 986 q 617 965 617 975 q 608 935 617 943 q 578 928 600 928 z "},"ễ":{"ha":881,"x_min":111,"x_max":769,"o":"m 228 304 l 228 271 q 242 177 228 210 q 289 131 256 144 q 383 117 322 117 l 497 117 q 602 130 568 117 q 647 176 636 143 q 669 217 656 204 q 710 231 683 231 q 751 219 736 231 q 765 185 765 207 q 764 171 765 175 q 497 0 733 0 l 383 0 q 178 67 244 0 q 111 271 111 133 l 111 432 q 178 639 111 572 q 383 704 244 706 l 497 704 q 703 638 636 704 q 769 432 769 571 l 769 363 q 754 319 769 335 q 711 304 739 304 l 228 304 m 228 421 l 653 421 l 653 432 q 639 526 653 493 q 592 574 625 560 q 497 588 558 588 l 383 588 q 289 575 322 589 q 242 528 256 561 q 228 432 228 494 l 228 421 m 310 778 q 276 792 290 778 q 261 826 261 807 q 275 860 261 846 l 376 961 q 438 988 401 988 l 446 988 q 507 961 482 988 l 608 860 q 622 826 622 846 q 608 792 622 807 q 574 778 593 778 q 539 792 551 778 l 450 890 l 433 890 l 344 792 q 310 778 331 778 m 510 1015 q 470 1027 489 1015 q 429 1060 451 1039 q 403 1081 415 1072 q 381 1090 390 1090 q 359 1082 368 1090 q 342 1053 350 1074 q 299 1018 324 1018 q 278 1022 289 1018 q 247 1057 247 1035 q 253 1081 247 1069 q 300 1157 272 1135 q 374 1179 328 1179 q 413 1167 392 1179 q 463 1131 433 1154 q 508 1103 497 1103 q 519 1108 515 1103 q 527 1117 524 1113 q 532 1125 531 1122 q 575 1163 546 1163 q 593 1160 586 1163 q 626 1125 626 1150 q 622 1103 626 1115 q 510 1015 583 1015 z "},"ȅ":{"ha":881,"x_min":111,"x_max":769,"o":"m 264 933 q 250 965 250 947 q 268 997 250 983 q 299 1010 283 1010 q 332 992 318 1010 l 424 882 q 436 851 436 868 q 418 818 436 832 q 386 804 403 804 q 354 822 368 804 l 264 933 m 425 933 q 411 965 411 947 q 429 997 411 983 q 460 1010 444 1010 q 493 992 479 1010 l 585 882 q 597 851 597 868 q 579 818 597 832 q 547 804 564 804 q 515 822 529 804 l 425 933 m 228 304 l 228 271 q 242 177 228 210 q 289 131 256 144 q 383 117 322 117 l 497 117 q 602 130 568 117 q 647 176 636 143 q 669 217 656 204 q 710 231 683 231 q 751 219 736 231 q 765 185 765 207 q 764 171 765 175 q 497 0 733 0 l 383 0 q 178 67 244 0 q 111 271 111 133 l 111 432 q 178 639 111 572 q 383 704 244 706 l 497 704 q 703 638 636 704 q 769 432 769 571 l 769 363 q 754 319 769 335 q 711 304 739 304 l 228 304 m 228 421 l 653 421 l 653 432 q 639 526 653 493 q 592 574 625 560 q 497 588 558 588 l 383 588 q 289 575 322 589 q 242 528 256 561 q 228 432 228 494 l 228 421 z "},"ë":{"ha":881,"x_min":111,"x_max":769,"o":"m 228 304 l 228 271 q 242 177 228 210 q 289 131 256 144 q 383 117 322 117 l 497 117 q 602 130 568 117 q 647 176 636 143 q 669 217 656 204 q 710 231 683 231 q 751 219 736 231 q 765 185 765 207 q 764 171 765 175 q 497 0 733 0 l 383 0 q 178 67 244 0 q 111 271 111 133 l 111 432 q 178 639 111 572 q 383 704 244 706 l 497 704 q 703 638 636 704 q 769 432 769 571 l 769 363 q 754 319 769 335 q 711 304 739 304 l 228 304 m 228 421 l 653 421 l 653 432 q 639 526 653 493 q 592 574 625 560 q 497 588 558 588 l 383 588 q 289 575 322 589 q 242 528 256 561 q 228 432 228 494 l 228 421 m 311 807 q 270 822 285 807 q 256 863 256 836 l 256 897 q 270 938 256 924 q 311 951 285 951 l 344 951 q 397 897 397 951 l 397 863 q 384 822 397 836 q 344 807 371 807 l 311 807 m 543 807 q 502 822 517 807 q 488 863 488 836 l 488 897 q 502 938 488 924 q 543 951 517 951 l 576 951 q 629 897 629 951 l 629 863 q 616 822 629 836 q 576 807 603 807 l 543 807 z "},"ė":{"ha":881,"x_min":111,"x_max":769,"o":"m 228 304 l 228 271 q 242 177 228 210 q 289 131 256 144 q 383 117 322 117 l 497 117 q 602 130 568 117 q 647 176 636 143 q 669 217 656 204 q 710 231 683 231 q 751 219 736 231 q 765 185 765 207 q 764 171 765 175 q 497 0 733 0 l 383 0 q 178 67 244 0 q 111 271 111 133 l 111 432 q 178 639 111 572 q 383 704 244 706 l 497 704 q 703 638 636 704 q 769 432 769 571 l 769 363 q 754 319 769 335 q 711 304 739 304 l 228 304 m 228 421 l 653 421 l 653 432 q 639 526 653 493 q 592 574 625 560 q 497 588 558 588 l 383 588 q 289 575 322 589 q 242 528 256 561 q 228 432 228 494 l 228 421 m 424 818 q 374 836 392 818 q 357 885 357 854 l 357 926 q 374 974 357 958 q 424 990 392 990 l 464 990 q 526 926 526 990 l 526 885 q 510 835 526 853 q 464 818 494 818 l 424 818 z "},"ẹ":{"ha":881,"x_min":111,"x_max":769,"o":"m 228 304 l 228 271 q 242 177 228 210 q 289 131 256 144 q 383 117 322 117 l 497 117 q 602 130 568 117 q 647 176 636 143 q 669 217 656 204 q 710 231 683 231 q 751 219 736 231 q 765 185 765 207 q 764 171 765 175 q 497 0 733 0 l 383 0 q 178 67 244 0 q 111 271 111 133 l 111 432 q 178 639 111 572 q 383 704 244 706 l 497 704 q 703 638 636 704 q 769 432 769 571 l 769 363 q 754 319 769 335 q 711 304 739 304 l 228 304 m 228 421 l 653 421 l 653 432 q 639 526 653 493 q 592 574 625 560 q 497 588 558 588 l 383 588 q 289 575 322 589 q 242 528 256 561 q 228 432 228 494 l 228 421 m 426 -218 q 385 -203 400 -218 q 371 -162 371 -189 l 371 -128 q 385 -87 371 -101 q 426 -74 400 -74 l 460 -74 q 513 -128 513 -74 l 513 -162 q 499 -203 513 -189 q 460 -218 486 -218 l 426 -218 z "}}}
